<svg xmlns="http://www.w3.org/2000/svg" viewBox="0 0 79.86 34.94"><defs><style>.cls-1{fill:#fdd835;}.cls-2,.cls-3,.cls-4{isolation:isolate;}.cls-3,.cls-4{font-size:11px;fill:#ff7600;letter-spacing:0.02em;}.cls-3{font-family:YuGothicUI-Regular, Yu Gothic UI;}.cls-4{font-family:MicrosoftJhengHeiUIRegular, Microsoft JhengHei UI;}.cls-5{fill:#fff;}</style></defs><g id="图层_2" data-name="图层 2"><g id="图层_1-2" data-name="图层 1"><g id="组_639" data-name="组 639"><g id="组_637" data-name="组 637"><path id="矩形_668" data-name="矩形 668" class="cls-1" d="M12.44,10.07H60.28A12.43,12.43,0,0,1,72.71,22.51h0A12.43,12.43,0,0,1,60.28,34.94H12.44A12.44,12.44,0,0,1,0,22.51H0A12.44,12.44,0,0,1,12.44,10.07Z"/></g><g id="活动细则" class="cls-2"><text class="cls-3" transform="translate(5.86 27)">活</text><text class="cls-4" transform="translate(17.08 27.11)">动细则</text></g></g><g id="组_640" data-name="组 640"><circle id="椭圆_39" data-name="椭圆 39" class="cls-1" cx="66.86" cy="13" r="13"/><path id="路径_1453" data-name="路径 1453" class="cls-5" d="M67.28,2.85A10.07,10.07,0,1,0,77.35,12.92,10.07,10.07,0,0,0,67.28,2.85ZM67.21,20a1.46,1.46,0,1,1,0-2.92h0a1.46,1.46,0,1,1,0,2.92Zm4-8.24a10,10,0,0,1-1.87,1.87,3.55,3.55,0,0,0-.91,1,3.21,3.21,0,0,0-.16,1.34H66.15c0-.3,0-.49,0-.56a3.66,3.66,0,0,1,.34-1.69,5.09,5.09,0,0,1,1.36-1.49,10.45,10.45,0,0,0,1.22-1.09,1.43,1.43,0,0,0,.3-.89A1.45,1.45,0,0,0,68.82,9a2.16,2.16,0,0,0-1.47-.49,2.23,2.23,0,0,0-1.48.5,3,3,0,0,0-.82,1.54c-.08.43-2.17.61-2.14-.26a3.6,3.6,0,0,1,1.26-2.52,4.53,4.53,0,0,1,3.09-1,4.64,4.64,0,0,1,3.19,1.05,3.17,3.17,0,0,1,1.19,2.44,2.61,2.61,0,0,1-.44,1.46Z"/><path id="路径_1454" data-name="路径 1454" class="cls-5" d="M59.37,17l4.14,4.14-9.66,1.38Z"/></g></g></g></svg>