<svg xmlns="http://www.w3.org/2000/svg" viewBox="0 0 111.2 83.35"><defs><style>.cls-1{fill:#f7d235;}.cls-2{fill:#ff7600;}.cls-3{fill:#1c1c1c;}.cls-4{fill:#ffc71a;opacity:0.3;isolation:isolate;}</style></defs><g id="图层_2" data-name="图层 2"><g id="图层_1-2" data-name="图层 1"><g id="组_924" data-name="组 924"><path id="路径_1747" data-name="路径 1747" class="cls-1" d="M40.07,36.29l15.42,44,15.42-44Z"/><path id="路径_1748" data-name="路径 1748" class="cls-2" d="M74.79,23.88c0-.48.08-1,.08-1.45A19.33,19.33,0,0,0,50.39,3.74a22.59,22.59,0,0,1,17,21.9c0,.57,0,1.14-.08,1.71a7.26,7.26,0,0,1,6.91,7.26A7.36,7.36,0,0,1,74,36.36h.49a6.24,6.24,0,0,0,.3-12.48Z"/><path id="路径_1749" data-name="路径 1749" class="cls-3" d="M52,33.31H48.89a3,3,0,0,0,0,6.08H52a3,3,0,0,0,0-6.08Z"/><path id="路径_1750" data-name="路径 1750" class="cls-3" d="M77.89,21.47a22.42,22.42,0,0,0-44.8,0,9.28,9.28,0,0,0,3.39,17.91h1.43L52.62,81.32a3,3,0,0,0,5.74,0l14.7-41.94h1.43a9.28,9.28,0,0,0,3.4-17.91Zm-3.4,11.84H59.06a3,3,0,0,0,0,6.08h7.56L55.49,71.14,42.93,35.34a3,3,0,0,0-2.84-2h-3.6a3.2,3.2,0,0,1-.15-6.39,3,3,0,0,0,2.12-1.06,3.12,3.12,0,0,0,.75-2.27c0-.38-.06-.77-.06-1.16a16.35,16.35,0,1,1,32.7,0c0,.4,0,.8-.07,1.23a3.08,3.08,0,0,0,.75,2.23,3.12,3.12,0,0,0,2.13,1,3.19,3.19,0,0,1,3,3.19,3.24,3.24,0,0,1-3.23,3.2Z"/><path id="路径_1751" data-name="路径 1751" class="cls-1" d="M20.38,71.27H16.53V67.42a1.5,1.5,0,0,0-1.47-1.53H15a1.5,1.5,0,0,0-1.52,1.48,0,0,0,0,0,0,0v3.85H9.63A1.5,1.5,0,0,0,8.1,72.74v.06a1.48,1.48,0,0,0,1.47,1.52.06.06,0,0,0,.06,0h3.85v3.85A1.49,1.49,0,0,0,15,79.7H15a1.5,1.5,0,0,0,1.53-1.47V74.32h3.85a1.5,1.5,0,0,0,1.53-1.47v0A1.55,1.55,0,0,0,20.38,71.27Z"/><path id="路径_1752" data-name="路径 1752" class="cls-1" d="M.35,9.47l6.44,6.44a1.16,1.16,0,0,0,1.64,0h0l6.44-6.44a1.16,1.16,0,0,0,0-1.64v0L8.45,1.37a1.17,1.17,0,0,0-1.65,0h0L.35,7.81a1.16,1.16,0,0,0,0,1.64Zm2.52-.8L7.65,3.89l4.78,4.78L7.65,13.45Zm107.4,7.44a1.63,1.63,0,0,0-1.66.33l-8.16,8.16a1.72,1.72,0,0,0-.47,1.06,1.62,1.62,0,0,0,.47,1.07l8.16,8.16a1.44,1.44,0,0,0,1.66.33,1.59,1.59,0,0,0,.93-1.39V17.5a1.61,1.61,0,0,0-.92-1.39Zm-2.12,5v9l-4.52-4.52Z"/><path id="路径_1753" data-name="路径 1753" class="cls-2" d="M68.22,49.55a4.68,4.68,0,1,0,4.68-4.67A4.68,4.68,0,0,0,68.22,49.55Z"/><path id="路径_1754" data-name="路径 1754" class="cls-4" d="M87.61,66.21H97v9.35H87.61Z"/></g></g></g></svg>