<svg xmlns="http://www.w3.org/2000/svg" viewBox="0 0 84.78 90"><defs><style>.cls-1{fill:#f3d13d;}.cls-2{fill:#fff;}.cls-3{fill:#131313;}.cls-4{fill:#cb3683;}</style></defs><g id="图层_2" data-name="图层 2"><g id="图层_1-2" data-name="图层 1"><g id="组_660" data-name="组 660"><path id="路径_1479" data-name="路径 1479" class="cls-1" d="M8.29,26.42l36-21.83L81.14,26.42V67.17L44.25,86.9V51.53l-35-18.92Z"/><g id="组_652" data-name="组 652"><g id="组_651" data-name="组 651"><path id="路径_1480" data-name="路径 1480" class="cls-2" d="M9.92,32.61V66.94L44.25,86.08V51.52Z"/></g></g><g id="组_653" data-name="组 653"><path id="路径_1481" data-name="路径 1481" class="cls-3" d="M44.41,90a10.44,10.44,0,0,1-5.2-1.39L20.57,78a4,4,0,1,1,3.93-6.9h0L43.15,81.72h0a2.49,2.49,0,0,0,2.48,0L75.6,64.43a2.47,2.47,0,0,0,1.24-2.14V27.71a2.47,2.47,0,0,0-1.24-2.15L45.65,8.27a2.49,2.49,0,0,0-2.48,0L13.22,25.56A2.47,2.47,0,0,0,12,27.71v4.18a4,4,0,0,1-7.94,0V27.71a10.47,10.47,0,0,1,5.21-9l30-17.29a10.48,10.48,0,0,1,10.42,0L79.57,18.68a10.47,10.47,0,0,1,5.21,9V62.29a10.44,10.44,0,0,1-5.21,9L49.62,88.6A10.35,10.35,0,0,1,44.41,90Z"/></g><g id="组_654" data-name="组 654"><path id="路径_1482" data-name="路径 1482" class="cls-3" d="M44.41,54.86a10.5,10.5,0,0,1-5.19-1.38L20.94,43.19a4,4,0,0,1,3.89-6.92l18.3,10.3,0,0a2.49,2.49,0,0,0,2.48,0L75.6,29.3a2.1,2.1,0,0,0,1.24-1.92,4,4,0,0,1,7.94,0,10,10,0,0,1-5.21,8.79L49.62,53.46A10.38,10.38,0,0,1,44.41,54.86Z"/></g><g id="组_655" data-name="组 655"><path id="路径_1483" data-name="路径 1483" class="cls-3" d="M8,70.1a4,4,0,0,1-4-4V48.62A4,4,0,1,1,12,48.49V66.13A4,4,0,0,1,8,70.1Z"/></g><g id="组_656" data-name="组 656"><path id="路径_1484" data-name="路径 1484" class="cls-3" d="M44.25,72.91a4,4,0,0,1-1.82-.45L20.71,61.24a4,4,0,0,1,3.65-7.06l15.92,8.24V51.88a4,4,0,1,1,7.94-.13V68.94a4,4,0,0,1-4,4Z"/></g><g id="组_657" data-name="组 657"><path id="矩形_727" data-name="矩形 727" class="cls-4" d="M8.06,24.56h0a8,8,0,0,1,8,8.05h0a8.05,8.05,0,0,1-8,8.06h0A8.06,8.06,0,0,1,0,32.61H0A8.05,8.05,0,0,1,8.06,24.56Z"/></g></g></g></g></svg>