<svg xmlns="http://www.w3.org/2000/svg" viewBox="0 0 231.79 52.25"><defs><style>.cls-1{fill:#fff;}</style></defs><g id="图层_2" data-name="图层 2"><g id="图层_1-2" data-name="图层 1"><g id="组_642" data-name="组 642"><path id="路径_1455" data-name="路径 1455" class="cls-1" d="M19.93,19.71h-9l-.17,1.05h-3l1.74-11c-.23.24-.46.45-.69.67A16.61,16.61,0,0,0,7.28,7.61c.23-.2.44-.4.64-.61H7L6.6,9.76,8,9.43l-.08,2.8c-.58.15-1.2.33-1.81.48L5.4,17.32c-.23,1.47-.58,2.3-1.47,2.8a7.09,7.09,0,0,1-3.55.63A11,11,0,0,0,0,17.66c.78,0,1.64,0,1.93,0s.4-.11.45-.41l.6-3.8-2.26.57L.58,11c.82-.13,1.81-.32,2.89-.56L4,7H1.68L2.14,4.1H4.47L5.09.15h3l-.62,4H8.9L8.55,6.34A24,24,0,0,0,12.36.08l2.9.76A33.84,33.84,0,0,1,13.65,4H15.5A37.28,37.28,0,0,0,17.31.18l3.24.65C19.94,1.91,19.27,3,18.65,4H22l-.43,2.76H17.87l-.25,1.55h3.09L20.29,11H17.21L17,12.56H20l-.42,2.63H16.54l-.27,1.68h4.11Zm-8.55-2.84h2l.27-1.68h-2ZM14.3,11h-2l-.26,1.6h2ZM15,6.78H13l-.25,1.55h2Z"/><path id="路径_1456" data-name="路径 1456" class="cls-1" d="M31.51,8.89a27.6,27.6,0,0,1-2.2,2.63l-1.48,9.3h-3l1-6.35A19.44,19.44,0,0,1,24,15.65,14,14,0,0,0,22.36,13a17,17,0,0,0,5.45-4.08h-4l.44-2.78h5.68l.54-1H28.78L29,4H24.64l.44-2.76H29.4L29.57.13h3.08L32.49,1.2h4.45L37.11.13h3.08L40,1.2h4.52L44.11,4H39.58L39.4,5.13H36.31L36.5,4H32l-.07.5,1.92.5c-.2.39-.41.78-.62,1.15H43.81l-.44,2.78Zm10.83,7.58H37.52l-.23,1.44c-.21,1.32-.56,2-1.58,2.43a9.39,9.39,0,0,1-3.61.44,8.9,8.9,0,0,0-.51-2.7c.8.05,1.9.05,2.19.05s.42-.07.47-.33l.21-1.33H29.33l.41-2.62h5.13l.2-1.24h.5c.34-.2.65-.42,1-.66H31.52l.38-2.41h7.65l.63-.15,1.57,1.5A37.66,37.66,0,0,1,38,13.65l0,.2h4.82Z"/><path id="路径_1457" data-name="路径 1457" class="cls-1" d="M59,1.28c-.67,4.29-1.29,12.13,5.76,16.65a20.74,20.74,0,0,0-3,2.78,14.49,14.49,0,0,1-6.07-10.08,23.81,23.81,0,0,1-9.32,10.13,17.36,17.36,0,0,0-2.48-2.59c4.74-2.17,7.93-6.3,9.92-11.82l1.51.28c0-.74,0-1.46.06-2.13h-4.8l.51-3.22Z"/><path id="路径_1458" data-name="路径 1458" class="cls-1" d="M76.46,1.13q-1.18,2.09-2.57,4.05L71.42,20.72h-3l1.75-11a22.61,22.61,0,0,1-1.74,1.65,16.4,16.4,0,0,0-1.09-3.28A27.77,27.77,0,0,0,73.67.18ZM87,17.13l-.47,3H72.43l.47-3h5.52L79,13.45H74.64l.47-3h4.36L80,7.26H74.92l.47-3h5.39a32.19,32.19,0,0,0-2.71-1.91L80.51.09A24.11,24.11,0,0,1,85,3.2L83.91,4.26h4.8l-.47,3h-5l-.51,3.22h4.45l-.47,3H82.22l-.58,3.68Z"/><path id="路径_1459" data-name="路径 1459" class="cls-1" d="M97.88,6.09a35.16,35.16,0,0,1-2.4,2.78L93.59,20.78H90.53l1.35-8.54A22.15,22.15,0,0,1,90,13.65a19.65,19.65,0,0,0-.91-3.3A25.84,25.84,0,0,0,95.3,4.92Zm.31-4.72A30.84,30.84,0,0,1,91.35,7a17.66,17.66,0,0,0-1.12-2.7A19.47,19.47,0,0,0,95.38.15ZM109,15.26h-2.82l-.4,2.5c-.22,1.37-.57,2.11-1.58,2.54a8.66,8.66,0,0,1-3.5.46,9.52,9.52,0,0,0-.47-2.65l-1.86,1.17a15.26,15.26,0,0,0-1.94-3l1.75-1.06H95.39l.42-2.65h7.58l.13-.87h-7l.4-2.57h12.54l-.41,2.57h-2.34l-.14.87h2.82Zm.07-6.74H98L99.22.74h11.06ZM103,15.26H99.21A14.5,14.5,0,0,1,101,17.63l-.53.34c.67,0,1.47,0,1.71,0s.4-.09.44-.33Zm3.35-9.63h-4.83l-.11.72h4.82Zm.43-2.72h-4.83l-.11.7h4.83Z"/><path id="路径_1460" data-name="路径 1460" class="cls-1" d="M119.81,1c-.68,1.39-1.45,2.83-2.3,4.22L115,20.76h-3l1.61-10.17c-.37.41-.73.8-1.1,1.17a20.05,20.05,0,0,0-.92-3.48A28.71,28.71,0,0,0,117,.13Zm12.34,11.11a29.52,29.52,0,0,1-3.06,2.15,6.77,6.77,0,0,0,2.44,3.26A13.52,13.52,0,0,0,129.14,20c-2.55-2-3.37-5.63-3.51-10.06h-.37a13.25,13.25,0,0,1-1.32.89c3,2.94,2.14,7.52.32,9a3.77,3.77,0,0,1-2.59,1c-.44,0-1,0-1.45,0a6.65,6.65,0,0,0-.15-2.22,26.87,26.87,0,0,1-2.93,1.37,8.38,8.38,0,0,0-1.26-2.19A25.89,25.89,0,0,0,123,14.33a2.25,2.25,0,0,0-.14-.44,34,34,0,0,1-5,2.52,8.17,8.17,0,0,0-1-1.93,24.11,24.11,0,0,0,5.16-2.17l-.22-.24a30.51,30.51,0,0,1-3.22,1.37,13.76,13.76,0,0,0-1.35-2,25.16,25.16,0,0,0,4.13-1.5h-2.85l.64-4a6.12,6.12,0,0,0-1.28-1A16.77,16.77,0,0,0,122.62.14l2.84.54c-.17.24-.36.5-.55.74h2.85l.59-.18L130,2.59c-.49.63-1.06,1.33-1.66,2h4.22l-.85,5.34h-3.41c0,.68.11,1.33.21,2a24.8,24.8,0,0,0,1.89-1.65Zm-9.65,5.65a2.26,2.26,0,0,0,.48-.87c-.72.45-1.46.89-2.23,1.3.26,0,.5,0,.72,0A1.2,1.2,0,0,0,122.5,17.76Zm-1-9.91h2.18l.19-1.2h-2.18Zm1.54-4.2c-.29.3-.58.61-.89.91H125c.26-.26.55-.58.82-.91Zm6.11,3h-2.49l-.18,1.2H129Z"/><path id="路径_1461" data-name="路径 1461" class="cls-1" d="M140.62,17.06a23.46,23.46,0,0,1-5.9,3.5,17.77,17.77,0,0,0-2-2.15A16.85,16.85,0,0,0,137.88,16Zm10.67-.56a5.26,5.26,0,0,0-.66-.89l-5.83.15-.78,5h-3.13l.77-4.89c-3,.07-5.74.13-7.91.16l.26-2.46c1.28,0,2.76,0,4.37,0l.62-.3A32,32,0,0,0,136,11l2.31-1.71.92.52c.41-.28.86-.61,1.28-.94h-5.8l.37-2.34h8.06l.08-.52h-5.76l.35-2.2h5.76l.08-.52h-6.86l.35-2.24H144l.15-1h3.17l-.15,1h7.28l-.36,2.24h-7.28l-.08.52H153L152.6,6h-6.24l-.08.52h8.24l-.38,2.34h-6.67L149.32,10c-1.86,1.18-4,2.39-6,3.41l5.14-.08c-.42-.35-.82-.72-1.2-1l2.44-1.57a21.89,21.89,0,0,1,4.25,4Zm-6.75-7.61c-1.19.8-2.42,1.61-3.47,2.19.29.2.54.4.8.59,1.58-.91,3.12-1.89,4.37-2.78Zm3.48,7a30.74,30.74,0,0,1,4.37,2.78l-2.76,1.74a31.26,31.26,0,0,0-4.18-3Z"/><path id="路径_1462" data-name="路径 1462" class="cls-1" d="M166.53,6.48c-.18.8-.37,1.6-.61,2.41h8.26a12.63,12.63,0,0,1-.3,1.32c-1.28,5.78-2.13,8.26-3.18,9.26a4.4,4.4,0,0,1-2.79,1.18,37.25,37.25,0,0,1-3.81,0,6,6,0,0,0-.64-3.11c1.46.13,3,.13,3.65.13a1.73,1.73,0,0,0,1.13-.28c.59-.44,1.24-2.17,2-5.57H165A16.12,16.12,0,0,1,156.47,21a7.56,7.56,0,0,0-1.81-2.69c6.21-2.72,7.42-7.35,8.35-11.8h-6l.47-3h8.15L166.18,0h3.28l-.55,3.46h8.43l-.47,3Z"/><path id="路径_1463" data-name="路径 1463" class="cls-1" d="M199.18,8.26l-.34,2.19h-1.09l-.44,2.77H189l.33-2.13h2l.1-.64h-2.37c-.58,3.29-1.7,7.59-4,10.3A8.38,8.38,0,0,0,183.22,19a14.2,14.2,0,0,0,2.48-5.2l-2,2.42a19.08,19.08,0,0,0-.75-1.8l-1,6.3h-2.8l.73-4.66a13.84,13.84,0,0,1-1.8,2.44,15.57,15.57,0,0,0-.91-3.15,18.81,18.81,0,0,0,3.2-5h-2.09l.47-2.93h2.5l.14-.89-2.14.5A20.49,20.49,0,0,0,179.32,2l2.14-.48a20.45,20.45,0,0,1,.16,3.41l.76-4.8h2.8l-.74,4.7c.46-1.18.91-2.5,1.21-3.55l2.4.5-.16.33h4.37l.31-1.95h3.19l-.31,1.95H200l-.4,2.48h-4.45l-.15.91h3.55l-.45,2.78Zm-15.66,2.32c.65.81,1.86,2.42,2.24,3a36.23,36.23,0,0,0,.8-4l1.12-7c-.72,1.55-1.49,3.2-2.11,4.28l-1.4-.39L184,7.5h2.35l-.46,2.93h-2.35Zm5.4,3.39h8.52l-1.07,6.72h-2.91l.09-.59h-2.82l-.1.66h-2.78Zm2.93-5.71.1-.65H190l.34-2.13h1.91l.15-.92h-2.37l-.58,3.7Zm-.52,8.06-.23,1.44h2.83l.22-1.44Zm3.82-5.87h-.94l-.1.63h.94Zm-.49-2.84-.1.65h.94l.1-.65Z"/></g><g id="组_643" data-name="组 643"><path id="路径_1464" data-name="路径 1464" class="cls-1" d="M37.13,46.8l-.26,1.63H33.81l1.63-10.28h9.47L43.54,46.8ZM53.72,36.15H51.28L49.35,48.36c-.28,1.78-.84,2.7-2.07,3.2a13.87,13.87,0,0,1-5.2.61,11.23,11.23,0,0,0-.79-3.34c1.43.1,3.41.08,3.94.08s.74-.15.81-.61L48,36.16H33.86l.51-3.2H54.23Zm-15.7,5L37.6,43.8h3.28l.42-2.65Z"/><path id="路径_1465" data-name="路径 1465" class="cls-1" d="M68.76,49.17a11.83,11.83,0,0,0,1.19,0c.85,0,3.43,0,4.5,0a10.67,10.67,0,0,0-1.28,2.76H69.39c-2.72,0-4.8-.48-5.89-2.94a11.78,11.78,0,0,1-2.62,3.13,13.22,13.22,0,0,0-2-1.87c2-1.39,3.21-3.8,4-6.63l2.8.35c-.23.74-.48,1.48-.74,2.15a4.14,4.14,0,0,0,1,2l.79-5H61.79v.26c-.77.22-1.54.41-2.33.63l-.72,4.5c-.21,1.37-.53,2.15-1.35,2.63a6.13,6.13,0,0,1-3.26.61,9.86,9.86,0,0,0-.33-2.91c.7,0,1.41,0,1.67,0s.36-.09.41-.37l.59-3.72-1.79.46-.17-3c.71-.13,1.54-.3,2.44-.5l.54-3.37H55.34l.45-2.89h2.15l.63-4h2.87l-.63,4h2l-.46,2.89h-2l-.43,2.67,1.9-.45,0,1.78.28-1.74H75.25l-.4,2.52H69.7l-.24,1.54h3.93L73,47.17H69.07ZM74.33,40h-11l1.23-7.78h11Zm-2.56-2.91H66.66l-.11.72h5.1Zm.42-2.69H67.08l-.11.71h5.11Z"/><path id="路径_1466" data-name="路径 1466" class="cls-1" d="M84.31,48c-2.88.73-6,1.5-8.44,2.1l-.11-3c.9-.17,1.95-.39,3.1-.65l.74-4.67H77.4l.46-2.89h2.2l.52-3.33H78.06l.46-2.91h7.93L86,35.58H83.62l-.52,3.33H85l-.46,2.89H82.64L82,45.73c.79-.17,1.58-.37,2.35-.56Zm9,1.56c.48,0,.71-.65,1.2-3.35a5.68,5.68,0,0,0,2.23,1.13C96,50.75,95.39,51.84,93,51.84H91.61c-2,0-2.67-.59-2.34-2.67l.27-1.7a16.2,16.2,0,0,1-5.82,4.76A9.15,9.15,0,0,0,82.1,50,13.11,13.11,0,0,0,90,39.26l.48-3h2.91l-.49,3.08a19.53,19.53,0,0,1-1.4,4.85H93l-.73,4.65c-.09.56,0,.76.4.76Zm-5.17-5.52h-3L87,32.48h11L96.25,44.06H93.12l1.41-8.88h-5Z"/><path id="路径_1467" data-name="路径 1467" class="cls-1" d="M103.62,46.8l-.26,1.63H100.3l1.63-10.28h9.47L110,46.8Zm16.6-10.65h-2.44l-1.93,12.21c-.28,1.78-.84,2.7-2.07,3.2a13.87,13.87,0,0,1-5.2.61,11,11,0,0,0-.8-3.34c1.44.1,3.42.08,4,.08s.74-.15.81-.61l1.92-12.14h-14.1l.51-3.2h19.86Zm-15.7,5-.42,2.65h3.28l.42-2.65Z"/><path id="路径_1468" data-name="路径 1468" class="cls-1" d="M135.43,47.49a34.77,34.77,0,0,1,4.44,2.83l-2.75,1.76a27.73,27.73,0,0,0-4.34-3l2.45-1.53-3.12.09-.72,4.59h-3.13l.71-4.52-3.5.06L128,48.78a23,23,0,0,1-5.83,3.36,17.62,17.62,0,0,0-2-2.08,17.54,17.54,0,0,0,5.06-2.3l-4.14.06.3-2.45c1.2,0,2.58,0,4.08,0l.94-.42a29,29,0,0,0-3.26-2.35l2.48-1.65a11.22,11.22,0,0,1,1,.63c.53-.34,1-.73,1.55-1.1h-4.68l1.32-8.3h16.45L140,40.46h-8l.26.13c-1.24.82-2.54,1.6-3.68,2.24l.79.63a49.75,49.75,0,0,0,5-3l2.46,1.5c-1.94,1.15-4.2,2.34-6.33,3.34l4.57-.06c-.34-.3-.71-.57-1-.83l2.5-1.39a21.31,21.31,0,0,1,4.23,3.76l-2.7,1.54a9.4,9.4,0,0,0-.69-.87ZM126.9,38.1h3.57l.11-.71H127Zm.46-2.91h3.57l.11-.7h-3.57Zm10,2.2h-3.76l-.11.71h3.75Zm.46-2.89H134.1l-.11.7h3.76Z"/><path id="路径_1469" data-name="路径 1469" class="cls-1" d="M150.71,46.28a23.64,23.64,0,0,0-1.06-2.42l-1.31,8.33h-3l1.13-7.13a23.18,23.18,0,0,1-3,3.93,17.28,17.28,0,0,0-1-3.13,23.43,23.43,0,0,0,4.11-5.28h-2.87l.47-2.93h3.43l.33-2.09c-1,.13-2,.26-2.9.35a9.84,9.84,0,0,0-.43-2.46,43.25,43.25,0,0,0,8.17-1.82L154,34.24c-.94.3-1.93.54-3,.78l-.42,2.63h2.78L153,40.58h-2.78l0,.26a37.84,37.84,0,0,1,2.65,2.87Zm6.21-.39a21.8,21.8,0,0,1-4.26,6.28,16.91,16.91,0,0,0-2.38-1.83,14.42,14.42,0,0,0,3.62-5.17Zm5.9-2.27h-9.95l1.7-10.77h10Zm-1.92-7.78h-3.78l-.76,4.79h3.78Zm0,9.2a21.27,21.27,0,0,1,1.8,5.89l-3.19,1.2A23.08,23.08,0,0,0,158,46.06Z"/><path id="路径_1470" data-name="路径 1470" class="cls-1" d="M181.27,48.93c.61,0,.8-.35,1.24-2.48a7.5,7.5,0,0,0,2.7,1.22c-.84,3.26-1.81,4.15-4.07,4.15h-2.43c-2.72,0-3.4-.87-3-3.65l.59-3.74H174.6c-1.09,3.46-2.79,6.22-8.56,7.82a7.32,7.32,0,0,0-1.37-2.73c4.73-1.09,5.82-2.87,6.56-5.09h-3.56l1.39-8.78H172a17.89,17.89,0,0,0-1-3l3-1.15a14.27,14.27,0,0,1,1.42,3.78l-1,.39h3.82A27.08,27.08,0,0,0,181,31.54l3.21,1c-.82,1.09-1.67,2.2-2.47,3.13h2.93l-1.39,8.78h-3.65l-.58,3.67c-.12.74,0,.83.65.83Zm-9.91-7.28h8.89l.51-3.22h-8.89Z"/><path id="路径_1471" data-name="路径 1471" class="cls-1" d="M200.61,40.45c.79,3.94,2.8,7.11,6.56,8.65a17,17,0,0,0-2.82,3c-3.55-1.76-5.48-4.65-6.54-8.5a18.85,18.85,0,0,1-9.17,8.5,8,8,0,0,0-2-2.7,15.65,15.65,0,0,0,9.05-8.95h-7.2l.52-3.28h7.72c.45-1.92.74-3.83,1-5.63h3.48c-.31,1.8-.63,3.71-1.11,5.63h8.34L208,40.45Z"/><path id="路径_1472" data-name="路径 1472" class="cls-1" d="M221.61,46.69c1.23,1.67,3.85,2.41,7.83,2.57a13.26,13.26,0,0,0-2.31,2.8c-4-.42-6.43-1.53-7.93-3.74-1.64,1.82-4.33,3.06-9.29,3.8a7,7,0,0,0-1.06-2.65c4.5-.55,6.65-1.42,7.87-2.79h-7.13L210,44h8.05c.1-.35.18-.7.29-1.09h3.3c-.1.37-.19.74-.29,1.09h8.3l-.43,2.73Zm10.18-12.58c-2.51,5.43-7.12,7.8-12.77,8.75a8.83,8.83,0,0,0-1.22-2.6l-.41,2.63h-3.07l.5-3.13c-1.27.76-2.55,1.47-3.7,2.1l-.82-2.75c1.26-.55,3.12-1.48,5-2.44l.82-5.13h3.05l-.6,3.85a15.25,15.25,0,0,0,4.92-3.93l2.81,1c-.23.28-.47.56-.74.84h3.94l.53-.06Zm-19.17,3a12.65,12.65,0,0,0-1.19-3.21L214,32.59a10.64,10.64,0,0,1,1.36,3.06Zm10.6-.78a15.55,15.55,0,0,1,1.58,1.94,9.86,9.86,0,0,0,2.73-2.29h-4.82a20.67,20.67,0,0,1-2.86,1.87,20.31,20.31,0,0,0-1.32-2.08l-.72,4.52a26.75,26.75,0,0,0,4.24-.85,17.19,17.19,0,0,0-1.28-1.76Z"/></g></g></g></svg>