<svg xmlns="http://www.w3.org/2000/svg" viewBox="0 0 199.63 199.26"><defs><style>.cls-1{fill:#fff;}.cls-2{fill:#46b536;}</style></defs><g id="图层_2" data-name="图层 2"><g id="图层_1-2" data-name="图层 1"><circle class="cls-1" cx="97.7" cy="99.63" r="97"/><path class="cls-2" d="M100,0C44.81,0,0,44.44,0,99.63s44.81,99.63,100,99.63A99.63,99.63,0,0,0,100,0ZM82.22,123c-5.18,0-9.63-1.11-14.81-2.22l-14.82,7.41,4.45-13c-10.74-7.41-17-17-17-28.89C40,65.93,59.26,50,82.59,50c21.11,0,39.26,12.59,43,30-1.49,0-2.6-.37-4.08-.37-20.37,0-36.29,15.18-36.29,33.7a24.89,24.89,0,0,0,1.48,8.89,9.43,9.43,0,0,1-4.45.74Zm63,15.19,3.33,10.74L137,142.22c-4.45,1.11-8.52,2.22-13,2.22-20.37,0-36.29-13.7-36.29-30.74s15.92-31.11,36.29-31.11c19.26,0,36.3,13.71,36.3,31.11,0,9.26-6.3,17.78-15.18,24.45Z"/><path class="cls-2" d="M62.22,73.7a5.93,5.93,0,1,0,5.93-5.92,5.85,5.85,0,0,0-5.93,5.92Zm45.93,31.11A4.82,4.82,0,1,0,113,100c-2.59-.37-4.81,1.85-4.81,4.81ZM92.22,73.7a5.93,5.93,0,1,0,5.93-5.92A5.85,5.85,0,0,0,92.22,73.7Zm39.63,31.12a4.82,4.82,0,1,0,4.82-4.82c-2.6-.37-4.82,1.85-4.82,4.82Z"/></g></g></svg>