<svg xmlns="http://www.w3.org/2000/svg" viewBox="0 0 24 24"><defs><style>.cls-1{fill:none;}.cls-2{fill:#fdd835;}.cls-3{fill:#0f0f0f;}</style></defs><g id="图层_2" data-name="图层 2"><g id="图层_1-2" data-name="图层 1"><g id="矩形_911" data-name="矩形 911"><rect id="矩形_908" data-name="矩形 908" class="cls-1" width="24" height="24"/><rect id="矩形_909" data-name="矩形 909" class="cls-1" x="0.5" y="0.5" width="23" height="23"/></g><g id="组_1152" data-name="组 1152"><circle id="椭圆_51" data-name="椭圆 51" class="cls-2" cx="14.5" cy="15.33" r="6.5"/><g id="组_666" data-name="组 666"><path id="路径_1491" data-name="路径 1491" class="cls-3" d="M12.41,6a4,4,0,0,1,2.67,7,6.38,6.38,0,0,1,3.62,7.06.8.8,0,1,1-1.57-.31,4.8,4.8,0,0,0-3.79-5.64,4.6,4.6,0,0,0-.91-.09h0A4.8,4.8,0,0,0,7.6,18.81a4.29,4.29,0,0,0,.1.94.81.81,0,0,1-1.58.31A6.43,6.43,0,0,1,9.74,13a4,4,0,0,1,2.67-7Zm0,6.4a2.4,2.4,0,0,0,0-4.8,2.4,2.4,0,0,0,0,4.8Z"/><path id="路径_1492" data-name="路径 1492" class="cls-3" d="M12.41,2A10.42,10.42,0,1,0,22.83,12.41h0A10.42,10.42,0,0,0,12.42,2h0Zm0,1.61A8.81,8.81,0,1,1,3.6,12.41,8.8,8.8,0,0,1,12.41,3.6Z"/></g></g></g></g></svg>