<svg xmlns="http://www.w3.org/2000/svg" viewBox="0 0 24 24"><defs><style>.cls-1{fill:none;}.cls-2{fill:#fdd835;}.cls-3{fill:#0f0f0f;}</style></defs><g id="图层_2" data-name="图层 2"><g id="图层_1-2" data-name="图层 1"><g id="矩形_909-2" data-name="矩形 909-2"><rect id="矩形_912" data-name="矩形 912" class="cls-1" width="24" height="24"/><rect id="矩形_913" data-name="矩形 913" class="cls-1" x="0.5" y="0.5" width="23" height="23"/></g><g id="组_1151" data-name="组 1151"><circle id="椭圆_240" data-name="椭圆 240" class="cls-2" cx="15.33" cy="15.36" r="6.2"/><g id="组_1026" data-name="组 1026"><g id="组_1024" data-name="组 1024"><path id="路径_1968" data-name="路径 1968" class="cls-3" d="M19.57,22.33H5.43A2.43,2.43,0,0,1,3,19.9V14a2.43,2.43,0,0,1,2.43-2.43h5.05A2.43,2.43,0,0,1,12.91,14v.92a2.43,2.43,0,0,1-2.43,2.43H7.13a.83.83,0,1,1,0-1.65h3.35a.78.78,0,0,0,.78-.78V14a.79.79,0,0,0-.78-.78H5.43a.78.78,0,0,0-.78.78V19.9a.78.78,0,0,0,.78.77H19.56a.78.78,0,0,0,.78-.77V9.17A.76.76,0,0,0,20,8.51L12.54,3.77a.79.79,0,0,0-.86,0L4.29,9a.83.83,0,0,1-1-1.3l0,0,0,0,7.38-5.17a2.43,2.43,0,0,1,2.7-.06l7.44,4.74A2.42,2.42,0,0,1,22,9.17V19.9A2.43,2.43,0,0,1,19.57,22.33Z"/></g><g id="组_1025" data-name="组 1025"><path id="路径_1969" data-name="路径 1969" class="cls-3" d="M16.22,22.33a.83.83,0,0,1-.83-.83h0V13.24a.83.83,0,0,1,1.65,0V21.5A.83.83,0,0,1,16.22,22.33Z"/></g></g></g></g></g></svg>