<svg xmlns="http://www.w3.org/2000/svg" viewBox="0 0 79.51 66.59"><defs><style>.cls-1{fill:#f7d235;}.cls-2{fill:#ffc71a;opacity:0.3;isolation:isolate;}.cls-3{fill:#f9d435;}.cls-4{fill:#141414;}</style></defs><g id="图层_2" data-name="图层 2"><g id="图层_1-2" data-name="图层 1"><g id="组_1150" data-name="组 1150"><g id="组_1088" data-name="组 1088"><path id="路径_1997" data-name="路径 1997" class="cls-1" d="M8.93,57.1H6.13V54.3a1.09,1.09,0,0,0-1.07-1.11H5a1.09,1.09,0,0,0-1.11,1.07V57.1H1.11A1.09,1.09,0,0,0,0,58.17v0a1.09,1.09,0,0,0,1.07,1.11H3.91v2.8A1.09,1.09,0,0,0,5,63.23H5a1.09,1.09,0,0,0,1.11-1.08V59.32h2.8A1.09,1.09,0,0,0,10,58.24v0A1.12,1.12,0,0,0,8.93,57.1Z"/><path id="路径_1998" data-name="路径 1998" class="cls-1" d="M10.09,4.83l3.68,3.68a.66.66,0,0,0,.94,0h0L18.4,4.83a.66.66,0,0,0,0-.94h0L14.72.2a.66.66,0,0,0-.94,0h0L10.09,3.88a.66.66,0,0,0,0,.94Zm1.44-.45,2.73-2.74L17,4.38,14.26,7.11ZM73,8.63a.92.92,0,0,0-1,.19l-4.67,4.67a1,1,0,0,0-.27.6.93.93,0,0,0,.27.61L72,19.37a.82.82,0,0,0,1,.19.93.93,0,0,0,.53-.8V9.42A.92.92,0,0,0,73,8.63Zm-1.22,2.88v5.16l-2.58-2.58Z"/><path id="路径_1999" data-name="路径 1999" class="cls-2" d="M72.71,59.79h6.8v6.8h-6.8Z"/></g><g id="组_1012" data-name="组 1012"><g id="组_1008" data-name="组 1008"><path id="路径_1957" data-name="路径 1957" class="cls-3" d="M44.12,44.7l-8-3.52c-2.2-1-4.6.82-4.6,3.45V52c0,2.63,2.4,4.43,4.6,3.45l8-3.53a3.08,3.08,0,0,1,2.49,0l8,3.53c2.2,1,4.6-.82,4.6-3.45V44.63c0-2.63-2.4-4.43-4.6-3.45l-8,3.52A3,3,0,0,1,44.12,44.7Z"/></g><g id="组_1009" data-name="组 1009"><path id="路径_1958" data-name="路径 1958" class="cls-4" d="M43.49,38.12A11.93,11.93,0,1,1,55.42,26.19h0A12,12,0,0,1,43.49,38.12Zm0-21.19a9.26,9.26,0,1,0,9.26,9.26A9.27,9.27,0,0,0,43.49,16.93Z"/></g><g id="组_1010" data-name="组 1010"><path id="路径_1959" data-name="路径 1959" class="cls-4" d="M63.06,57.69H23.92a1.33,1.33,0,0,1-1.34-1.33h0a20.91,20.91,0,0,1,41.82,0,1.34,1.34,0,0,1-1.34,1.33ZM25.3,55H61.68A18.24,18.24,0,0,0,25.3,55Z"/></g><g id="组_1011" data-name="组 1011"><path id="路径_1960" data-name="路径 1960" class="cls-4" d="M48.53,50.24a3,3,0,0,1-1.1-.21L43.6,48.5a.28.28,0,0,0-.22,0L39.55,50a3,3,0,0,1-4.07-2.75v-3.2a3,3,0,0,1,4.07-2.75l3.83,1.53a.28.28,0,0,0,.22,0l3.83-1.53a3,3,0,0,1,4.07,2.75v3.2a3,3,0,0,1-3,3ZM38.44,43.79a.3.3,0,0,0-.16.05.29.29,0,0,0-.13.24v3.2a.29.29,0,0,0,.3.29.18.18,0,0,0,.1,0L42.38,46a3,3,0,0,1,2.2,0l3.84,1.53a.29.29,0,0,0,.38-.17.3.3,0,0,0,0-.1V44.09a.3.3,0,0,0-.3-.3l-.1,0-3.84,1.53a2.89,2.89,0,0,1-2.2,0h0l-3.83-1.53-.11,0Z"/></g></g></g></g></g></svg>