<svg xmlns="http://www.w3.org/2000/svg" xmlns:xlink="http://www.w3.org/1999/xlink" viewBox="0 0 420.86 149.24"><defs><style>.cls-1{fill:none;}.cls-2{clip-path:url(#clip-path);}.cls-3{fill:#fdd835;}.cls-4,.cls-5,.cls-6,.cls-7,.cls-8{fill:#ff7600;}.cls-4,.cls-9{opacity:0.3;}.cls-4,.cls-5,.cls-6,.cls-7,.cls-8,.cls-9{isolation:isolate;}.cls-5{opacity:0.23;}.cls-6{opacity:0.17;}.cls-7{opacity:0.1;}.cls-8{opacity:0.03;}.cls-9{fill:#fff;}</style><clipPath id="clip-path" transform="translate(36.5 -0.41)"><path id="路径_1495" data-name="路径 1495" class="cls-1" d="M361,102.17s-99.27,6-180.5,6c-78.22,0-180.5-6-180.5-6V0H361Z"/></clipPath></defs><g id="图层_2" data-name="图层 2"><g id="图层_1-2" data-name="图层 1"><g class="cls-2"><g id="组_675" data-name="组 675"><path id="路径_1495-2" data-name="路径 1495" class="cls-3" d="M361,102.58s-99.27,6-180.5,6c-78.22,0-180.5-6-180.5-6V.41H361Z" transform="translate(36.5 -0.41)"/><circle id="椭圆_52" data-name="椭圆 52" class="cls-4" cx="61.5" cy="87.74" r="61.5"/><g id="组_991" data-name="组 991"><g id="组_978" data-name="组 978"><g id="组_977" data-name="组 977"><path id="路径_1934" data-name="路径 1934" class="cls-4" d="M11.13,58.56h4.59v4.58H11.13Z" transform="translate(36.5 -0.41)"/><rect id="矩形_859" data-name="矩形 859" class="cls-5" x="63.78" y="58.15" width="4.59" height="4.59"/><rect id="矩形_860" data-name="矩形 860" class="cls-6" x="79.92" y="58.15" width="4.59" height="4.59"/><rect id="矩形_861" data-name="矩形 861" class="cls-7" x="96.06" y="58.15" width="4.59" height="4.59"/><path id="路径_1935" data-name="路径 1935" class="cls-8" d="M75.71,58.56h4.58v4.58H75.71Z" transform="translate(36.5 -0.41)"/></g></g><g id="组_980" data-name="组 980"><g id="组_979" data-name="组 979"><path id="路径_1936" data-name="路径 1936" class="cls-4" d="M11.13,72.06h4.59v4.58H11.13Z" transform="translate(36.5 -0.41)"/><rect id="矩形_862" data-name="矩形 862" class="cls-5" x="63.78" y="71.65" width="4.59" height="4.59"/><rect id="矩形_863" data-name="矩形 863" class="cls-6" x="79.92" y="71.65" width="4.59" height="4.59"/><rect id="矩形_864" data-name="矩形 864" class="cls-7" x="96.06" y="71.65" width="4.59" height="4.59"/><path id="路径_1937" data-name="路径 1937" class="cls-8" d="M75.71,72.06h4.58v4.58H75.71Z" transform="translate(36.5 -0.41)"/></g></g><g id="组_982" data-name="组 982"><g id="组_981" data-name="组 981"><path id="路径_1938" data-name="路径 1938" class="cls-4" d="M11.13,85.56h4.59v4.58H11.13Z" transform="translate(36.5 -0.41)"/><rect id="矩形_865" data-name="矩形 865" class="cls-5" x="63.78" y="85.15" width="4.59" height="4.59"/><rect id="矩形_866" data-name="矩形 866" class="cls-6" x="79.92" y="85.15" width="4.59" height="4.59"/><rect id="矩形_867" data-name="矩形 867" class="cls-7" x="96.06" y="85.15" width="4.59" height="4.59"/><path id="路径_1939" data-name="路径 1939" class="cls-8" d="M75.71,85.56h4.58v4.58H75.71Z" transform="translate(36.5 -0.41)"/></g></g><g id="组_984" data-name="组 984"><g id="组_983" data-name="组 983"><path id="路径_1940" data-name="路径 1940" class="cls-4" d="M11.13,99.06h4.59v4.58H11.13Z" transform="translate(36.5 -0.41)"/><rect id="矩形_868" data-name="矩形 868" class="cls-5" x="63.78" y="98.65" width="4.59" height="4.59"/><rect id="矩形_869" data-name="矩形 869" class="cls-6" x="79.92" y="98.65" width="4.59" height="4.59"/><rect id="矩形_870" data-name="矩形 870" class="cls-7" x="96.06" y="98.65" width="4.59" height="4.59"/><path id="路径_1941" data-name="路径 1941" class="cls-8" d="M75.71,99.06h4.58v4.58H75.71Z" transform="translate(36.5 -0.41)"/></g></g><g id="组_986" data-name="组 986"><g id="组_985" data-name="组 985"><path id="路径_1942" data-name="路径 1942" class="cls-4" d="M11.13,112.56h4.59v4.58H11.13Z" transform="translate(36.5 -0.41)"/><rect id="矩形_871" data-name="矩形 871" class="cls-5" x="63.78" y="112.15" width="4.59" height="4.59"/><rect id="矩形_872" data-name="矩形 872" class="cls-6" x="79.92" y="112.15" width="4.59" height="4.59"/><rect id="矩形_873" data-name="矩形 873" class="cls-7" x="96.06" y="112.15" width="4.59" height="4.59"/><path id="路径_1943" data-name="路径 1943" class="cls-8" d="M75.71,112.56h4.58v4.58H75.71Z" transform="translate(36.5 -0.41)"/></g></g><g id="组_988" data-name="组 988"><g id="组_987" data-name="组 987"><path id="路径_1944" data-name="路径 1944" class="cls-4" d="M11.13,126.06h4.59v4.58H11.13Z" transform="translate(36.5 -0.41)"/><rect id="矩形_874" data-name="矩形 874" class="cls-5" x="63.78" y="125.65" width="4.59" height="4.59"/><rect id="矩形_875" data-name="矩形 875" class="cls-6" x="79.92" y="125.65" width="4.59" height="4.59"/><rect id="矩形_876" data-name="矩形 876" class="cls-7" x="96.06" y="125.65" width="4.59" height="4.59"/><path id="路径_1945" data-name="路径 1945" class="cls-8" d="M75.71,126.06h4.58v4.58H75.71Z" transform="translate(36.5 -0.41)"/></g></g><g id="组_990" data-name="组 990"><g id="组_989" data-name="组 989"><path id="路径_1946" data-name="路径 1946" class="cls-4" d="M11.13,139.56h4.59v4.58H11.13Z" transform="translate(36.5 -0.41)"/><rect id="矩形_877" data-name="矩形 877" class="cls-5" x="63.78" y="139.15" width="4.59" height="4.59"/><rect id="矩形_878" data-name="矩形 878" class="cls-6" x="79.92" y="139.15" width="4.59" height="4.59"/><rect id="矩形_879" data-name="矩形 879" class="cls-7" x="96.06" y="139.15" width="4.59" height="4.59"/><path id="路径_1947" data-name="路径 1947" class="cls-8" d="M75.71,139.56h4.58v4.58H75.71Z" transform="translate(36.5 -0.41)"/></g></g></g><circle id="椭圆_55" data-name="椭圆 55" class="cls-9" cx="387.36" cy="91.65" r="33.5"/></g></g></g></g></svg>