<svg xmlns="http://www.w3.org/2000/svg" viewBox="0 0 361 162"><defs><style>.cls-1{fill:#fdd835;}.cls-2,.cls-3,.cls-4,.cls-5,.cls-6{fill:#ff7600;}.cls-2,.cls-7{opacity:0.3;}.cls-2,.cls-3,.cls-4,.cls-5,.cls-6,.cls-7{isolation:isolate;}.cls-3{opacity:0.23;}.cls-4{opacity:0.17;}.cls-5{opacity:0.1;}.cls-6{opacity:0.03;}.cls-7{fill:#fff;}</style></defs><g id="图层_2" data-name="图层 2"><g id="图层_1-2" data-name="图层 1"><path id="路径_1495" data-name="路径 1495" class="cls-1" d="M361,153s-99.27,9-180.5,9C102.28,162,0,153,0,153V0H361Z"/><g id="组_991" data-name="组 991"><g id="组_978" data-name="组 978"><g id="组_977" data-name="组 977"><path id="路径_1934" data-name="路径 1934" class="cls-2" d="M11.13,31h4.59v4.58H11.13Z"/><rect id="矩形_859" data-name="矩形 859" class="cls-3" x="27.28" y="30.97" width="4.59" height="4.59"/><rect id="矩形_860" data-name="矩形 860" class="cls-4" x="43.42" y="30.97" width="4.59" height="4.59"/><rect id="矩形_861" data-name="矩形 861" class="cls-5" x="59.56" y="30.97" width="4.59" height="4.59"/><path id="路径_1935" data-name="路径 1935" class="cls-6" d="M75.71,31h4.58v4.58H75.71Z"/></g></g><g id="组_980" data-name="组 980"><g id="组_979" data-name="组 979"><path id="路径_1936" data-name="路径 1936" class="cls-2" d="M11.13,44.47h4.59v4.58H11.13Z"/><rect id="矩形_862" data-name="矩形 862" class="cls-3" x="27.28" y="44.47" width="4.59" height="4.59"/><rect id="矩形_863" data-name="矩形 863" class="cls-4" x="43.42" y="44.47" width="4.59" height="4.59"/><rect id="矩形_864" data-name="矩形 864" class="cls-5" x="59.56" y="44.47" width="4.59" height="4.59"/><path id="路径_1937" data-name="路径 1937" class="cls-6" d="M75.71,44.47h4.58v4.58H75.71Z"/></g></g><g id="组_982" data-name="组 982"><g id="组_981" data-name="组 981"><path id="路径_1938" data-name="路径 1938" class="cls-2" d="M11.13,58h4.59v4.58H11.13Z"/><rect id="矩形_865" data-name="矩形 865" class="cls-3" x="27.28" y="57.97" width="4.59" height="4.59"/><rect id="矩形_866" data-name="矩形 866" class="cls-4" x="43.42" y="57.97" width="4.59" height="4.59"/><rect id="矩形_867" data-name="矩形 867" class="cls-5" x="59.56" y="57.97" width="4.59" height="4.59"/><path id="路径_1939" data-name="路径 1939" class="cls-6" d="M75.71,58h4.58v4.58H75.71Z"/></g></g><g id="组_984" data-name="组 984"><g id="组_983" data-name="组 983"><path id="路径_1940" data-name="路径 1940" class="cls-2" d="M11.13,71.47h4.59v4.58H11.13Z"/><rect id="矩形_868" data-name="矩形 868" class="cls-3" x="27.28" y="71.47" width="4.59" height="4.59"/><rect id="矩形_869" data-name="矩形 869" class="cls-4" x="43.42" y="71.47" width="4.59" height="4.59"/><rect id="矩形_870" data-name="矩形 870" class="cls-5" x="59.56" y="71.47" width="4.59" height="4.59"/><path id="路径_1941" data-name="路径 1941" class="cls-6" d="M75.71,71.47h4.58v4.58H75.71Z"/></g></g><g id="组_986" data-name="组 986"><g id="组_985" data-name="组 985"><path id="路径_1942" data-name="路径 1942" class="cls-2" d="M11.13,85h4.59v4.58H11.13Z"/><rect id="矩形_871" data-name="矩形 871" class="cls-3" x="27.28" y="84.97" width="4.59" height="4.59"/><rect id="矩形_872" data-name="矩形 872" class="cls-4" x="43.42" y="84.97" width="4.59" height="4.59"/><rect id="矩形_873" data-name="矩形 873" class="cls-5" x="59.56" y="84.97" width="4.59" height="4.59"/><path id="路径_1943" data-name="路径 1943" class="cls-6" d="M75.71,85h4.58v4.58H75.71Z"/></g></g><g id="组_988" data-name="组 988"><g id="组_987" data-name="组 987"><path id="路径_1944" data-name="路径 1944" class="cls-2" d="M11.13,98.47h4.59v4.58H11.13Z"/><rect id="矩形_874" data-name="矩形 874" class="cls-3" x="27.28" y="98.47" width="4.59" height="4.59"/><rect id="矩形_875" data-name="矩形 875" class="cls-4" x="43.42" y="98.47" width="4.59" height="4.59"/><rect id="矩形_876" data-name="矩形 876" class="cls-5" x="59.56" y="98.47" width="4.59" height="4.59"/><path id="路径_1945" data-name="路径 1945" class="cls-6" d="M75.71,98.47h4.58v4.58H75.71Z"/></g></g><g id="组_990" data-name="组 990"><g id="组_989" data-name="组 989"><path id="路径_1946" data-name="路径 1946" class="cls-2" d="M11.13,112h4.59v4.58H11.13Z"/><rect id="矩形_877" data-name="矩形 877" class="cls-3" x="27.28" y="111.97" width="4.59" height="4.59"/><rect id="矩形_878" data-name="矩形 878" class="cls-4" x="43.42" y="111.97" width="4.59" height="4.59"/><rect id="矩形_879" data-name="矩形 879" class="cls-5" x="59.56" y="111.97" width="4.59" height="4.59"/><path id="路径_1947" data-name="路径 1947" class="cls-6" d="M75.71,112h4.58v4.58H75.71Z"/></g></g></g><path class="cls-2" d="M0,73.47A61.2,61.2,0,0,0,29.5,81,61.51,61.51,0,0,0,87.83,0H0Z"/><path class="cls-7" d="M361,38.42a33.5,33.5,0,1,0,0,62.16Z"/></g></g></svg>