<svg xmlns="http://www.w3.org/2000/svg" viewBox="0 0 33.13 33.13"><defs><style>.cls-1{fill:#f9d435;}.cls-2{fill:#141414;}.cls-3{fill:none;}</style></defs><g id="图层_2" data-name="图层 2"><g id="图层_1-2" data-name="图层 1"><g id="图层_2-2" data-name="图层 2"><g id="图层_1-2-2" data-name="图层 1-2"><g id="组_1008" data-name="组 1008"><path id="路径_1957" data-name="路径 1957" class="cls-1" d="M17.53,22.1,12.78,20a2,2,0,0,0-2.59,1.14v0a2.14,2.14,0,0,0-.13.87v4.36a2,2,0,0,0,1.86,2.14,2,2,0,0,0,.87-.14l4.71-2.09a1.79,1.79,0,0,1,1.47,0l4.71,2.09a2,2,0,0,0,2.59-1.14v0a2.14,2.14,0,0,0,.12-.87V22.1a2,2,0,0,0-1.78-2.2h0a2,2,0,0,0-.87.13L19,22.1A1.79,1.79,0,0,1,17.53,22.1Z"/></g><g id="组_1009" data-name="组 1009"><path id="路径_1958" data-name="路径 1958" class="cls-2" d="M16.56,17.83a7.06,7.06,0,1,1,7.06-7.06h0A7.06,7.06,0,0,1,16.56,17.83Zm0-12.54A5.48,5.48,0,1,0,22,10.77a5.49,5.49,0,0,0-5.48-5.48Z"/></g><g id="组_1010" data-name="组 1010"><path id="路径_1959" data-name="路径 1959" class="cls-2" d="M28.19,29.41H5a.79.79,0,0,1-.79-.79h0a12.37,12.37,0,0,1,24.74,0,.78.78,0,0,1-.78.79ZM5.8,27.83H27.33a10.79,10.79,0,0,0-21.53,0Z"/></g><g id="组_1011" data-name="组 1011"><path id="路径_1960" data-name="路径 1960" class="cls-2" d="M19.55,25a1.48,1.48,0,0,1-.65-.13L16.63,24a.15.15,0,0,0-.13,0l-2.27.9a1.75,1.75,0,0,1-2.27-1v0a1.75,1.75,0,0,1-.12-.65V21.35a1.77,1.77,0,0,1,1.76-1.75,2,2,0,0,1,.6.11l2.27.9a.15.15,0,0,0,.13,0l2.27-.9a1.77,1.77,0,0,1,2.28,1,1.67,1.67,0,0,1,.12.62v1.89A1.75,1.75,0,0,1,19.5,25h0Zm-6-3.82h-.1a.19.19,0,0,0-.08.15v1.89a.18.18,0,0,0,.17.17h.07l2.27-.91a1.72,1.72,0,0,1,1.3,0l2.27.91a.17.17,0,0,0,.22-.09h0a.06.06,0,0,0,0-.06V21.36a.17.17,0,0,0-.16-.18h-.07l-2.25.92a1.72,1.72,0,0,1-1.3,0h0l-2.27-.91Z"/></g></g></g><rect class="cls-3" width="33.13" height="33.13"/></g></g></svg>