<svg xmlns="http://www.w3.org/2000/svg" viewBox="0 0 33.13 33.13"><defs><style>.cls-1{fill:none;}.cls-2{fill:#f9d435;}.cls-3{fill:#141414;}</style></defs><g id="图层_2" data-name="图层 2"><g id="图层_1-2" data-name="图层 1"><rect class="cls-1" width="33.13" height="33.13"/><path id="路径_2043" data-name="路径 2043" class="cls-2" d="M10.07,10.87v5.77a7.4,7.4,0,0,0,14.8,0h0V10.87Z"/><path id="路径_2044" data-name="路径 2044" class="cls-3" d="M27.38,30.35H5.75a1.44,1.44,0,0,1-1.44-1.44V5.83A1.44,1.44,0,0,1,5.75,4.39H27.38a1.44,1.44,0,0,1,1.44,1.44V28.91A1.44,1.44,0,0,1,27.38,30.35ZM5.75,5.83V28.91H27.38V5.83Z"/><path id="路径_2045" data-name="路径 2045" class="cls-3" d="M11.68,10.82H9.92a.73.73,0,0,1,0-1.45h1.76a.73.73,0,0,1,0,1.45Zm11.53,0H21.45a.73.73,0,1,1,0-1.45h1.76a.73.73,0,0,1,0,1.45ZM16.56,21.65a6.5,6.5,0,0,1-6.49-6.49.72.72,0,1,1,1.44,0,5,5,0,0,0,10.1,0h0a.72.72,0,0,1,1.44,0,6.5,6.5,0,0,1-6.49,6.49Z"/><path id="路径_2046" data-name="路径 2046" class="cls-3" d="M10.8,15.87a.73.73,0,0,1-.73-.72V10.1a.73.73,0,0,1,1.45,0v5.05a.72.72,0,0,1-.72.72Zm11.53,0a.72.72,0,0,1-.72-.72V10.1a.72.72,0,0,1,1.44,0v5.05a.71.71,0,0,1-.72.72Z"/></g></g></svg>