<svg xmlns="http://www.w3.org/2000/svg" viewBox="0 0 33.13 33.13"><defs><style>.cls-1{fill:#f9d435;}.cls-2{fill:#141414;}.cls-3{fill:#fdd835;}.cls-4{fill:none;}</style></defs><g id="图层_2" data-name="图层 2"><g id="图层_1-2" data-name="图层 1"><g id="组_1020" data-name="组 1020"><g id="组_1019" data-name="组 1019"><g id="组_1016" data-name="组 1016"><g id="组_1015" data-name="组 1015"><path id="路径_1961" data-name="路径 1961" class="cls-1" d="M26.35,18.42a10.49,10.49,0,0,0-11.52,3.85c-4.19,5.4-7.41,6.18-7.41,6.18H23.88Z"/></g></g><g id="组_1017" data-name="组 1017"><path id="路径_1962" data-name="路径 1962" class="cls-2" d="M7.15,29.25H3.66a1.88,1.88,0,0,1-1.88-1.88V15.82a1.88,1.88,0,0,1,1.88-1.88H7.15A1.88,1.88,0,0,1,9,15.82V27.37A1.88,1.88,0,0,1,7.15,29.25ZM3.66,15.55a.27.27,0,0,0-.27.27V27.37a.27.27,0,0,0,.27.27H7.15a.27.27,0,0,0,.27-.27V15.82a.27.27,0,0,0-.27-.27Z"/></g><g id="组_1018" data-name="组 1018"><path id="路径_1963" data-name="路径 1963" class="cls-3" d="M28.29,7.12l2.43-1A.1.1,0,0,0,30.78,6,.09.09,0,0,0,30.72,6L28.29,5a1.15,1.15,0,0,1-.65-.65l-1-2.42a.1.1,0,0,0-.12-.08.11.11,0,0,0-.08.08l-1,2.42a1.13,1.13,0,0,1-.65.65L22.44,6a.1.1,0,0,0-.06.13.11.11,0,0,0,.06.07l2.43,1a1.17,1.17,0,0,1,.65.66l1,2.42a.1.1,0,0,0,.1.07.12.12,0,0,0,.1-.07l1-2.42a1.17,1.17,0,0,1,.65-.66Z"/><path id="路径_1964" data-name="路径 1964" class="cls-2" d="M26.58,10.88a.72.72,0,0,1-.66-.47L25,8a.56.56,0,0,0-.32-.32l-2.42-1a.71.71,0,0,1-.4-.93.75.75,0,0,1,.4-.4l2.42-1A.54.54,0,0,0,25,4.12l1-2.43a.71.71,0,0,1,.92-.4.73.73,0,0,1,.41.43l1,2.4a.54.54,0,0,0,.31.32L31,5.4a.69.69,0,0,1,.44.66.71.71,0,0,1-.45.66l-2.42,1a.57.57,0,0,0-.31.32l-1,2.43A.71.71,0,0,1,26.58,10.88ZM26.13,10a.08.08,0,0,0,0,0ZM27,10v0Zm-3.21-3.9,1.26.5a1.77,1.77,0,0,1,1,1l.5,1.26.5-1.26a1.77,1.77,0,0,1,1-1h0l1.26-.5-1.26-.5a1.75,1.75,0,0,1-1-1l-.5-1.26-.5,1.26a1.77,1.77,0,0,1-1,1Zm-1.16.46h0ZM30.5,5.6h0Zm-7.85,0h0Zm3.47-3.45s0,0,0,0Zm.93,0v0s0,0,0,0Z"/></g><g id="路径_1677" data-name="路径 1677"><path id="路径_1965" data-name="路径 1965" class="cls-2" d="M7.42,29.25h0l-3.75,0a1.87,1.87,0,0,1-1.94-1.74l0-11.8a1.83,1.83,0,0,1,1.84-1.8H8c.69,0,3.9-2.41,4-4.86,0-.1,0-.2,0-.29a3.69,3.69,0,0,1,2.95-3.57A3.82,3.82,0,0,1,19.5,7.91l.11.46a10.86,10.86,0,0,1,.18,2,10.57,10.57,0,0,1-.31,2.57l4.84,0a3.85,3.85,0,0,1,3.1,1.74A3.54,3.54,0,0,1,28,16.94v.26s0,.06,0,.08S26.71,24.56,25.64,27a.39.39,0,0,1-.06.11l-.17.28a3.55,3.55,0,0,1-1.28,1.3,3.92,3.92,0,0,1-1.79.56H12.8a.81.81,0,1,1,0-1.61h9.49a2.41,2.41,0,0,0,1-.33,2,2,0,0,0,.72-.73l.17-.28a64.76,64.76,0,0,0,2.18-9.25l0-.24a2,2,0,0,0-.32-1.25,2.2,2.2,0,0,0-1.79-1l-5.89,0a.8.8,0,0,1-.8-.81.86.86,0,0,1,.05-.27,8.84,8.84,0,0,0,.54-3.1A9,9,0,0,0,18,8.7l-.1-.41a2.2,2.2,0,0,0-2.64-1.54,2.08,2.08,0,0,0-1.69,2c0,.05,0,.11,0,.17a.2.2,0,0,1,0,.11C13.51,12.25,9.7,15.5,8,15.5H3.59a.22.22,0,0,0-.23.2l0,11.76c0,.08.15.18.3.17l3.78,0a.81.81,0,1,1,0,1.61Z"/></g></g></g><rect class="cls-4" width="33.13" height="33.13"/></g></g></svg>