<svg xmlns="http://www.w3.org/2000/svg" viewBox="0 0 33.13 33.13"><defs><style>.cls-1{fill:#f9d435;}.cls-2{fill:#141414;}.cls-3{fill:none;}</style></defs><g id="图层_2" data-name="图层 2"><g id="图层_1-2" data-name="图层 1"><g id="组_1173" data-name="组 1173"><circle id="椭圆_246" data-name="椭圆 246" class="cls-1" cx="18.82" cy="19.17" r="10.11"/><g id="组_1172" data-name="组 1172"><path id="路径_2048" data-name="路径 2048" class="cls-2" d="M24.49,13.05H22.82a7.7,7.7,0,0,0-15.4,0H5.75a9.5,9.5,0,0,1,9.37-9.54,9.38,9.38,0,0,1,9.37,9.41Z"/><path id="路径_2049" data-name="路径 2049" class="cls-2" d="M8.76,23.48H7.93a6,6,0,1,1,0-12h.83ZM7.09,13.1a4.35,4.35,0,0,0-3.52,4.35A4.48,4.48,0,0,0,7.09,21.8ZM22,23.48h-.83v-12H22a6,6,0,1,1,0,12.05Zm.84-10.38v8.54a4.34,4.34,0,0,0,3.51-4.35,4.44,4.44,0,0,0-3.51-4.19Z"/><path id="路径_2050" data-name="路径 2050" class="cls-2" d="M16.63,27.61V25.93c2.17,0,3.85-.5,4.85-1.5a3.34,3.34,0,0,0,1-2.35h1.67a5.44,5.44,0,0,1-1.5,3.52Q20.9,27.61,16.63,27.61Z"/><path id="路径_2051" data-name="路径 2051" class="cls-2" d="M15.46,29.61a2.52,2.52,0,1,1,2.33-2.68,1,1,0,0,1,0,.17A2.43,2.43,0,0,1,15.46,29.61Zm0-3.17a.86.86,0,1,0,.64,1,.58.58,0,0,0,0-.19A.75.75,0,0,0,15.46,26.44Z"/></g></g><rect class="cls-3" width="33.13" height="33.13"/></g></g></svg>