<svg xmlns="http://www.w3.org/2000/svg" viewBox="0 0 343 54.3"><defs><style>.cls-1{fill:none;}.cls-2{fill:#f7d235;}.cls-10,.cls-11,.cls-12,.cls-13,.cls-3,.cls-4,.cls-9{fill:#ff7600;}.cls-3{opacity:0.3;}.cls-10,.cls-11,.cls-12,.cls-13,.cls-15,.cls-16,.cls-3,.cls-9{isolation:isolate;}.cls-5{fill:#fff;}.cls-6{fill:#ffc71a;}.cls-16,.cls-7{fill:#141414;}.cls-8{fill:#d43586;}.cls-9{opacity:0.7;}.cls-10{opacity:0.62;}.cls-11{opacity:0.54;}.cls-12{opacity:0.46;}.cls-13{opacity:0.38;}.cls-14{fill:#f8d02f;}.cls-16{font-size:12px;font-family:YuGothicUI-Regular, Yu Gothic UI;letter-spacing:0.02em;}</style></defs><g id="图层_2" data-name="图层 2"><g id="图层_1-2" data-name="图层 1"><path class="cls-1" d="M342.91,49.3a6.52,6.52,0,0,0,.09-1V48a6.15,6.15,0,0,1-.19,1.49Z"/><path class="cls-1" d="M337,54h-4.27l-.17.3H337a6,6,0,0,0,4-1.5l.35-.63A6,6,0,0,1,337,54Z"/><polygon class="cls-1" points="308.13 54 307.97 54.3 315.52 54.3 315.69 54 308.13 54"/><polygon class="cls-1" points="295.83 54 295.67 54.3 303.23 54.3 303.39 54 295.83 54"/><path class="cls-1" d="M284.17,54l-.62.3h7.38l.16-.3Z"/><polygon class="cls-1" points="320.43 54 320.26 54.3 327.82 54.3 327.99 54 320.43 54"/><path class="cls-1" d="M7.84,54H6a6,6,0,0,1-6-5.87H0v.17a6,6,0,0,0,6,6H8.28Z"/><path class="cls-2" d="M305.75,46.06v2.09h-3.33V47.2L299,48.32,295.83,54h7.56l4.95-8.86Z"/><path class="cls-2" d="M337.93,44.82v3.33H336L332.73,54H337a6,6,0,0,0,4.31-1.83l1.5-2.68A6.15,6.15,0,0,0,343,48V35.61l-5.15,9.21Z"/><path class="cls-2" d="M290.34,51q-3,1.55-6.17,3h6.92l2.18-3.91Z"/><path class="cls-2" d="M6,54H7.84Q3.72,51.17,0,48.13A6,6,0,0,0,6,54Z"/><path class="cls-2" d="M313.26,44.82h3.21v3.33h-3.33V45l-5,9h7.56l8.44-15.12q-4.75,2.07-9.81,4Z"/><path class="cls-2" d="M327.2,44.82v3.33h-3.33v-.31L320.43,54H328l13.1-23.46Q336,33.35,330.49,36l-4.93,8.84Z"/><path class="cls-3" d="M278,54.3h.66l.11-.2Z"/><path class="cls-3" d="M283.54,54l-.17.3h.18l.62-.3Z"/><path class="cls-3" d="M7.84,54l.44.3H57.81L56.63,54Z"/><path class="cls-3" d="M0,48v.13H0S0,48,0,48Z"/><path class="cls-2" d="M7.84,54H56.63A298.21,298.21,0,0,1,15.11,40.36a16.6,16.6,0,0,1-2.54,0A16.44,16.44,0,0,1,7.7,39c-.26-.12-.53-.22-.79-.35l-.18-.09c-.25-.13-.48-.28-.72-.42a17.21,17.21,0,0,1-2.48-1.79A15.66,15.66,0,0,1,2.11,35q-.42-.47-.81-1L0,33.37V48s0,.09,0,.13Q3.72,51.18,7.84,54Z"/><path class="cls-3" d="M7.84,54H56.63A298.21,298.21,0,0,1,15.11,40.36a16.6,16.6,0,0,1-2.54,0A16.44,16.44,0,0,1,7.7,39c-.26-.12-.53-.22-.79-.35l-.18-.09c-.25-.13-.48-.28-.72-.42a17.21,17.21,0,0,1-2.48-1.79A15.66,15.66,0,0,1,2.11,35q-.42-.47-.81-1L0,33.37V48s0,.09,0,.13Q3.72,51.18,7.84,54Z"/><path class="cls-2" d="M284.29,52.65,283.54,54h.63q3.13-1.48,6.17-3Q287.36,51.83,284.29,52.65Z"/><path class="cls-3" d="M284.29,52.65,283.54,54h.63q3.13-1.48,6.17-3Q287.36,51.83,284.29,52.65Z"/><path class="cls-4" d="M299,48.32l3.42-1.12V44.82h3.33v1.24l2.59-.92L311.77,39h-.48q-5.16,3.3-10.68,6.44Z"/><path class="cls-4" d="M290.34,51l2.93-.88.51-.91C292.65,49.78,291.5,50.38,290.34,51Z"/><path class="cls-4" d="M341.09,30.54,343,27.11V13.58L330.49,36Q336,33.35,341.09,30.54Z"/><path class="cls-4" d="M316.54,39l-2.22,4q5.06-1.95,9.81-4l9-16.07c-1.66,1.44-3.37,2.87-5.13,4.27A12.49,12.49,0,0,1,316.54,39Z"/><path class="cls-4" d="M278.79,54h-7.56l-.16.3H278l.77-.2Z"/><path class="cls-4" d="M56.63,54l1.18.3H266.33l.17-.3Z"/><polygon class="cls-4" points="301.13 14 308.94 0 301.39 0 293.57 14 301.13 14"/><polygon class="cls-4" points="195.36 31.78 192.54 31.78 192.31 33.21 195.13 33.21 195.36 31.78"/><polygon class="cls-4" points="196.81 23.06 195.87 23.06 195.77 23.71 196.71 23.71 196.81 23.06"/><path class="cls-4" d="M187.77,25l1.12-7c-.72,1.54-1.48,3.2-2.11,4.28l-1.39-.39L185.22,23h2.34l-.46,2.93h-2.35l0,.15c.65.8,1.85,2.41,2.24,3A35.94,35.94,0,0,0,187.77,25Z"/><polygon class="cls-4" points="152.34 27.37 151.56 27.37 151.44 28.07 152.23 28.07 152.34 27.37"/><polygon class="cls-4" points="152.82 24.32 152.04 24.32 151.94 24.98 152.72 24.98 152.82 24.32"/><polygon class="cls-4" points="313.43 14 321.24 0 313.69 0 305.87 14 313.43 14"/><polygon class="cls-4" points="193.16 23.06 191.24 23.06 191.58 20.93 193.49 20.93 193.64 20.02 191.27 20.02 190.68 23.71 193.06 23.71 193.16 23.06"/><polygon class="cls-4" points="280.96 48.15 280.96 44.82 283.92 44.82 287.17 39 279.61 39 271.23 54 278.79 54 282.06 48.15 280.96 48.15"/><path class="cls-4" d="M323.9,17.26,333.54,0H326l-8,14.26A12.38,12.38,0,0,1,323.9,17.26Z"/><polygon class="cls-4" points="150.27 21.17 149.47 21.17 149.35 21.95 150.15 21.95 150.27 21.17"/><polygon class="cls-4" points="59.16 30.65 57.19 30.65 56.92 32.32 58.9 32.32 59.16 30.65"/><path class="cls-4" d="M290.34,51c1.16-.59,2.31-1.19,3.44-1.79l.58-1h-2.67V44.82H295V47l4.45-8h-7.56l-7.62,13.65Q287.35,51.83,290.34,51Z"/><path class="cls-4" d="M311.29,39h-7.08l-3.6,6.44Q306.13,42.31,311.29,39Z"/><path class="cls-4" d="M.1,32.25,0,32.08v1.29L1.3,34A16.31,16.31,0,0,1,.1,32.25Z"/><path class="cls-4" d="M328,26.5c0,.2,0,.39,0,.58,1.76-1.4,3.47-2.83,5.13-4.27l9.84-17.62A6,6,0,0,0,338.22.12L326.64,20.85A12.49,12.49,0,0,1,328,26.5Z"/><polygon class="cls-4" points="59.83 26.41 57.85 26.41 57.6 28.02 59.58 28.02 59.83 26.41"/><polygon class="cls-4" points="60.49 22.24 58.52 22.24 58.27 23.78 60.25 23.78 60.49 22.24"/><polygon class="cls-4" points="196.36 25.91 195.42 25.91 195.32 26.54 196.26 26.54 196.36 25.91"/><path class="cls-4" d="M61.21,11.25l-2.3,4.55,1.89.5a34.93,34.93,0,0,1-1.61,3.17H61a33.7,33.7,0,0,0,1.8-3.85l3.25.66c-.61,1.08-1.28,2.19-1.9,3.19H67.5l-.44,2.76H63.39l-.24,1.54h3.08l-.41,2.63H62.73L62.48,28h3.08l-.41,2.63H62.06l-.26,1.68h4.1l-.44,2.85h-9l-.16,1h-3l1.74-11c-.23.24-.46.46-.69.68-.08-.18-.17-.35-.25-.53l-.57,1.13,0,1.2-.66.17L51.21,31l-.28,1.73c-.23,1.48-.58,2.3-1.46,2.8a6.94,6.94,0,0,1-1.46.48,16.22,16.22,0,0,1-19.27,3.62l-.18-.09-.47-.28-2.17,1.25a3.31,3.31,0,0,1-1.68.45,3.27,3.27,0,0,1-1.67-.45l-2.36-1.34a15.66,15.66,0,0,1-1.9.63,15.48,15.48,0,0,1-2.35.45l-.85.07A298.21,298.21,0,0,0,56.63,54H266.5l8.37-15H260.5a12.5,12.5,0,0,1,0-25h28.33l7.82-14H62.56A16.48,16.48,0,0,1,61.21,11.25ZM87.88,31.93H83.06l-.23,1.43c-.21,1.33-.56,2-1.58,2.44a9.39,9.39,0,0,1-3.61.43,9.49,9.49,0,0,0-.51-2.69c.8,0,1.91,0,2.19,0s.42-.06.46-.32L80,31.93H74.86l.42-2.63h5.13l.2-1.24h.5c.33-.19.65-.41,1-.65h-5L77.44,25h7.65l.63-.15,1.57,1.5a39.43,39.43,0,0,1-3.79,2.76l0,.2H88.3Zm50.85-.15A10.71,10.71,0,0,1,134.85,36a7.5,7.5,0,0,0-1.3-1.67c3.34-1.87,4.24-5.5,4.64-8l.93-5.89h2.24l-.94,5.91a17.15,17.15,0,0,1-1.57,5.24l1.76-1.07A15.21,15.21,0,0,1,141.93,33l-2.06,1.32A13.43,13.43,0,0,0,138.73,31.78Zm58.85,4.37h-2.91l.09-.59h-2.82l-.1.65h-2.78l1.07-6.78h8.52ZM179.92,23h2.5l.14-.89-2.15.5a20,20,0,0,0,.12-5.13l2.14-.47a20.45,20.45,0,0,1,.16,3.41l.76-4.8h2.8l-.75,4.69c.47-1.17.92-2.5,1.22-3.54l2.4.5-.16.33h4.36l.31-2H197l-.31,2h4.54L200.81,20h-4.46l-.14.92h3.54l-.44,2.78h1.08l-.34,2.2H199l-.44,2.76h-8.28l.34-2.13h2l.1-.63h-2.37c-.58,3.28-1.7,7.58-4,10.3a8.43,8.43,0,0,0-1.95-1.72,14.32,14.32,0,0,0,2.48-5.19l-2,2.41c-.18-.5-.45-1.15-.76-1.8l-1,6.3h-2.8l.74-4.65a13.77,13.77,0,0,1-1.8,2.43,16,16,0,0,0-.91-3.15,18.76,18.76,0,0,0,3.2-4.95h-2.09Zm-21.23-4h8.15l.54-3.45h3.28l-.54,3.45h8.43l-.48,3H167.73c-.17.8-.36,1.61-.6,2.42h8.26s-.17.91-.3,1.32c-1.28,5.78-2.13,8.26-3.18,9.26a4.42,4.42,0,0,1-2.8,1.17,34.56,34.56,0,0,1-3.81,0,5.87,5.87,0,0,0-.63-3.11c1.45.13,3,.13,3.65.13a1.73,1.73,0,0,0,1.13-.28c.59-.44,1.23-2.18,2-5.57h-5.32a16.15,16.15,0,0,1-8.48,9.11,7.87,7.87,0,0,0-1.81-2.7c6.21-2.71,7.42-7.34,8.34-11.8h-6Zm-12.28-2.26,2.28-1a18.68,18.68,0,0,1,1.19,2.76l-.7.33H151a23,23,0,0,0,2-3.22l2.53,1c-.68.74-1.32,1.52-1.91,2.22h2.84L156,21.17h-3.47l-.13.78h2.91l-.48,3h.72l-.38,2.39h-.71L154,30.43h-2.13a10,10,0,0,0,2.46,3.24,12,12,0,0,0-2.11,2,10,10,0,0,1-1.59-2.33l-.45,2.87H147.9l.91-5.76H148l-.91,5.74h-2.26l.45-2.83a14.31,14.31,0,0,1-2.5,2.48,9.07,9.07,0,0,0-1.52-2.06,14.57,14.57,0,0,0,3.63-3.33h-1.24l.38-2.37h2.08l.11-.7h-2.89l.38-2.39h2.89l.1-.65h-2l.38-2.37h2l.12-.78h-2.56l.38-2.41h2.22C147,18,146.72,17.34,146.41,16.65Zm-9.32,0h7.59L142.55,30h-2.26L142,19.2h-3.16l-1.73,11H135Zm-11-1.07a23.79,23.79,0,0,1,4.53,3.11l-1.12,1.06h4.8l-.48,3h-5l-.51,3.22h4.45l-.47,3h-4.45l-.58,3.67h5.37l-.47,3H118l.47-3H124l.58-3.67h-4.37l.48-3H125l.51-3.21h-5.06l.48-3h5.38a30.29,30.29,0,0,0-2.72-1.92Zm-6.83.09,2.78,1a43.74,43.74,0,0,1-2.57,4L117,36.17h-3l1.74-11A22.61,22.61,0,0,1,114,26.8a16.4,16.4,0,0,0-1.09-3.28A27.84,27.84,0,0,0,119.21,15.63ZM96.1,20l.51-3.22h7.91c-.68,4.28-1.29,12.13,5.75,16.65a20.63,20.63,0,0,0-3,2.78,14.52,14.52,0,0,1-6.08-10.09A23.85,23.85,0,0,1,91.9,36.21a17.8,17.8,0,0,0-2.48-2.58c4.73-2.18,7.93-6.3,9.91-11.83l1.52.29c0-.74,0-1.46.05-2.13ZM69.33,24.34l.44-2.78h5.67l.55-1H74.31l.19-1.17H70.18l.43-2.76h4.33l.17-1.06h3.08L78,16.65h4.46l.17-1.06h3.08l-.17,1.06h4.52l-.44,2.76H85.12l-.18,1.17H81.85L82,19.41H77.58l-.07.5,1.92.5c-.2.39-.41.78-.62,1.15H89.35l-.44,2.78H77A25,25,0,0,1,74.84,27l-1.47,9.31h-3l1-6.35a17.61,17.61,0,0,1-1.9,1.17,14.2,14.2,0,0,0-1.6-2.67,17.07,17.07,0,0,0,5.45-4.09Z"/><polygon class="cls-4" points="149.77 24.32 148.97 24.32 148.87 24.98 149.67 24.98 149.77 24.32"/><polygon class="cls-4" points="149.29 27.36 148.49 27.36 148.38 28.06 149.19 28.06 149.29 27.36"/><path class="cls-4" d="M6,0A6,6,0,0,0,0,6v9.66L7.92,0Z"/><path class="cls-2" d="M40.86,5.91a16.89,16.89,0,0,1-1.48,4.36l-1.31,2.59a1.24,1.24,0,0,1-.35.69L35.48,18l.09.05a3.38,3.38,0,0,1,1.67,2.71s0,.05,0,.08h0v2.46a1.16,1.16,0,0,1,.37-.07,1.23,1.23,0,0,1,0,2.45,1.17,1.17,0,0,1-.37-.08v6.49A3.36,3.36,0,0,1,35.57,35l0,0a1.2,1.2,0,0,1,1.11,1.21,1.21,1.21,0,1,1-2.42,0,1.33,1.33,0,0,1,.12-.53L28.09,39.3l.47.28.18.09A16.22,16.22,0,0,0,48,36.05a7,7,0,0,1-2.1.15,10.78,10.78,0,0,0-.38-3.09c.78,0,1.65,0,1.93,0s.41-.11.46-.41l.6-3.8-1.15.28a1.21,1.21,0,1,1-1.74,1.09,1.21,1.21,0,0,1,.61-1.05l-.13-2.82c.82-.13,1.81-.33,2.89-.57l.55-3.43H47.22l.46-2.89H50l.63-4h3l-.28,1.77a1.2,1.2,0,0,1,1,1.18,1.22,1.22,0,0,1-.57,1h.65l-.36,2.24a23.79,23.79,0,0,0,3.82-6.26l1,.26,2.3-4.55A16.48,16.48,0,0,0,62.56,0H60a1.19,1.19,0,0,1-1,.65,1.19,1.19,0,0,1-1-.65H53.47a1.2,1.2,0,0,1-1,.65A1.19,1.19,0,0,1,51.37,0H46.92a1.2,1.2,0,0,1-1.05.65,1.2,1.2,0,0,1-1-.65h-3.9c.07.41.13.82.17,1.24A16.68,16.68,0,0,1,40.86,5.91Zm17.62-.85a1.23,1.23,0,1,1-1.21,1.23A1.22,1.22,0,0,1,58.48,5.06Zm-1.94,6.38a1.23,1.23,0,1,1-1.21,1.22A1.22,1.22,0,0,1,56.54,11.44Zm-13.1,0a1.23,1.23,0,1,1-1.21,1.22A1.22,1.22,0,0,1,43.44,11.44Zm-4.61,7.11a1.22,1.22,0,1,1,2.43,0,1.22,1.22,0,1,1-2.43,0Zm.25,11.77a1.21,1.21,0,1,1,1.21,1.22A1.22,1.22,0,0,1,39.08,30.32ZM42,37.43a1.23,1.23,0,1,1,1.21-1.22A1.22,1.22,0,0,1,42,37.43Zm2.18-11.77a1.23,1.23,0,1,1,1.21-1.23A1.22,1.22,0,0,1,44.17,25.66Zm7.76-20.6a1.23,1.23,0,1,1-1.21,1.23A1.23,1.23,0,0,1,51.93,5.06ZM50,11.44a1.23,1.23,0,1,1-1.21,1.22A1.22,1.22,0,0,1,50,11.44Zm-2.18,7.11a1.22,1.22,0,1,1-2.43,0,1.22,1.22,0,1,1,2.43,0ZM45.38,5.06a1.23,1.23,0,1,1-1.21,1.23A1.23,1.23,0,0,1,45.38,5.06Z"/><path class="cls-2" d="M53.46,22.45h-.89l-.44,2.76,1.42-.32,0,1.6.57-1.13a18.32,18.32,0,0,0-1.26-2.3A7.34,7.34,0,0,0,53.46,22.45Z"/><path class="cls-2" d="M51.21,31l1.61-3.18c-.39.1-.77.21-1.16.3Z"/><path class="cls-5" d="M45.87.65A1.2,1.2,0,0,0,46.92,0h-2.1A1.2,1.2,0,0,0,45.87.65Z"/><path class="cls-5" d="M52.42.65a1.2,1.2,0,0,0,1-.65h-2.1A1.19,1.19,0,0,0,52.42.65Z"/><path class="cls-5" d="M59,.65A1.19,1.19,0,0,0,60,0H57.92A1.19,1.19,0,0,0,59,.65Z"/><path class="cls-5" d="M34.23,36.21a1.21,1.21,0,1,0,2.42,0A1.2,1.2,0,0,0,35.54,35l-1.19.68A1.33,1.33,0,0,0,34.23,36.21Z"/><path class="cls-5" d="M42,35a1.23,1.23,0,1,0,1.21,1.23A1.23,1.23,0,0,0,42,35Z"/><path class="cls-5" d="M41.5,30.32a1.21,1.21,0,1,0-1.21,1.22A1.22,1.22,0,0,0,41.5,30.32Z"/><path class="cls-5" d="M46.24,29.27a1.21,1.21,0,1,0,1.81,1.05,1.22,1.22,0,0,0-.68-1.09l-1.12.28Z"/><path class="cls-5" d="M37.62,25.66a1.23,1.23,0,0,0,0-2.45,1.16,1.16,0,0,0-.37.07v2.3A1.17,1.17,0,0,0,37.62,25.66Z"/><path class="cls-5" d="M44.17,23.21a1.23,1.23,0,1,0,1.21,1.22A1.22,1.22,0,0,0,44.17,23.21Z"/><path class="cls-5" d="M40.05,19.77a1.23,1.23,0,0,0,0-2.45,1.23,1.23,0,0,0,0,2.45Z"/><path class="cls-5" d="M45.38,18.55a1.22,1.22,0,1,0,1.22-1.23A1.22,1.22,0,0,0,45.38,18.55Z"/><path class="cls-5" d="M53.79,19.56a1.22,1.22,0,0,0,.57-1,1.2,1.2,0,0,0-1-1.18L53,19.56Z"/><path class="cls-5" d="M38.07,12.86l-.35.69A1.24,1.24,0,0,0,38.07,12.86Z"/><path class="cls-5" d="M43.44,13.89a1.23,1.23,0,1,0-1.21-1.23A1.23,1.23,0,0,0,43.44,13.89Z"/><path class="cls-5" d="M50,13.89a1.23,1.23,0,1,0-1.21-1.23A1.22,1.22,0,0,0,50,13.89Z"/><path class="cls-5" d="M56.54,13.89a1.23,1.23,0,1,0-1.21-1.23A1.22,1.22,0,0,0,56.54,13.89Z"/><ellipse class="cls-5" cx="45.38" cy="6.29" rx="1.21" ry="1.23"/><ellipse class="cls-5" cx="51.93" cy="6.29" rx="1.21" ry="1.23"/><ellipse class="cls-5" cx="58.48" cy="6.29" rx="1.21" ry="1.23"/><path class="cls-2" d="M1.3,34q.39.49.81,1l.22-.44Z"/><path class="cls-2" d="M12.57,40.31a16.6,16.6,0,0,0,2.54,0L13,39.47Z"/><path class="cls-2" d="M4,35.38l-.5,1A17.21,17.21,0,0,0,6,38.18l.76-1.5C5.84,36.25,4.94,35.81,4,35.38Z"/><path class="cls-2" d="M8.49,37.47,7.7,39a16.22,16.22,0,0,0,2.91,1l.64-1.29Q9.86,38.1,8.49,37.47Z"/><path class="cls-2" d="M18.31,39.84a15.66,15.66,0,0,0,1.9-.63L19,38.51Z"/><path class="cls-2" d="M13.66,33.86a1.28,1.28,0,0,1-1.15.73h0a1.28,1.28,0,0,1-1.28-1.28h0V32L8.49,37.47q1.37.63,2.76,1.23l2.43-4.83Z"/><path class="cls-2" d="M17.33,37.57l-.77-.44a1.29,1.29,0,0,1-.48-1.75l.1-.11-.84-.47L13,39.47l2.12.89.85-.07Z"/><path class="cls-2" d="M11.23,27.78v-.11a1.25,1.25,0,0,1,.59-1.05L12.64,25h-.06a1.86,1.86,0,0,1-1.86-1.86h0a1.89,1.89,0,0,1,.51-1.28v-.8L4,35.38c.91.43,1.81.87,2.74,1.3Z"/><path class="cls-2" d="M12.91,18l4.54-2.62L25.19,0H21.8L12.67,18.18Z"/><path class="cls-2" d="M1.3,34l1,.52L19.68,0H16.3L.1,32.25A16.31,16.31,0,0,0,1.3,34Z"/><polygon class="cls-2" points="10.79 0 0 21.48 0 28.22 14.18 0 10.79 0"/><polygon class="cls-2" points="7.92 0 0 15.66 0 17.26 8.67 0 7.92 0"/><path class="cls-2" d="M22.56,12.45A3.34,3.34,0,0,1,24.18,12L30.25,0H27.31L20.44,13.67Z"/><path class="cls-2" d="M38.11,12.66a1.42,1.42,0,0,1,0,.2l1.31-2.59a16.89,16.89,0,0,0,1.48-4.36l-3,6A1.17,1.17,0,0,1,38.11,12.66Z"/><path class="cls-2" d="M36.86,13.88,35,17.66l.52.31,2.24-4.42a1.2,1.2,0,0,1-.83.34Z"/><path class="cls-2" d="M24.64,12.05,30.69,0h-.44L24.18,12A3.73,3.73,0,0,1,24.64,12.05Z"/><path class="cls-2" d="M39.32.65a1.19,1.19,0,0,1-1-.6L30.69,15.2l2.62,1.52,4.77-9.5a1.2,1.2,0,0,1-.46-.93,1.22,1.22,0,0,1,1.21-1.23,1.33,1.33,0,0,1,.3.06l2-3.88c0-.42-.1-.83-.17-1.24h-.55A1.2,1.2,0,0,1,39.32.65Z"/><path class="cls-2" d="M32.77.65a1,1,0,0,1-.25-.06l-6.1,12.15L29,14.25l.4-.79a1.21,1.21,0,0,1-.31-.8,1.22,1.22,0,0,1,1.21-1.22l.11,0,2-4a.8.8,0,0,1-.15,0,1.23,1.23,0,0,1,0-2.45,1.19,1.19,0,0,1,1,.65L36.2,0H33.82A1.2,1.2,0,0,1,32.77.65Z"/><path class="cls-2" d="M32.77.65a1.2,1.2,0,0,0,1-.65h-1l-.3.59A1,1,0,0,0,32.77.65Z"/><path class="cls-2" d="M39.32.65a1.2,1.2,0,0,0,1-.65h-2l0,.05A1.19,1.19,0,0,0,39.32.65Z"/><path class="cls-2" d="M30.34,11.44a1.22,1.22,0,0,0-1.21,1.22,1.21,1.21,0,0,0,.31.8l1-2Z"/><path class="cls-2" d="M37.84,11.93l-1,2h0a1.2,1.2,0,0,0,.83-.34l.35-.69a1.42,1.42,0,0,0,0-.2A1.17,1.17,0,0,0,37.84,11.93Z"/><path class="cls-2" d="M32.29,5.06a1.23,1.23,0,0,0,0,2.45.8.8,0,0,0,.15,0l.89-1.77A1.19,1.19,0,0,0,32.29,5.06Z"/><path class="cls-2" d="M38.83,5.06a1.22,1.22,0,0,0-1.21,1.23,1.2,1.2,0,0,0,.46.93l1.05-2.1A1.33,1.33,0,0,0,38.83,5.06Z"/><polygon class="cls-6" points="8.67 0 0 17.26 0 21.48 10.79 0 8.67 0"/><path class="cls-6" d="M16.3,0H14.18L0,28.22v3.86l.1.17Z"/><path class="cls-6" d="M2.33,34.55,2.11,35a15.66,15.66,0,0,0,1.42,1.4l.5-1Z"/><path class="cls-6" d="M4,35.38l7.2-14.33v-.12a3.41,3.41,0,0,1,1.44-2.75L21.8,0H19.68L2.33,34.55Z"/><path class="cls-6" d="M6.77,36.68,6,38.18c.24.14.47.29.72.42l.18.09c.26.13.53.23.79.35l.79-1.57Z"/><path class="cls-6" d="M13.13,26.57V24.9a2,2,0,0,1-.49.09l-.82,1.63a1.27,1.27,0,0,1,.69-.23A1.21,1.21,0,0,1,13.13,26.57Z"/><polygon class="cls-6" points="20.44 13.67 27.31 0 25.19 0 17.45 15.4 20.44 13.67"/><path class="cls-6" d="M11.23,27.78l-4.46,8.9,1.72.79L11.23,32Z"/><path class="cls-6" d="M11.25,38.7,10.61,40a16.33,16.33,0,0,0,2,.32l.42-.84C12.4,39.22,11.83,39,11.25,38.7Z"/><path class="cls-6" d="M11.25,38.7c.58.26,1.15.52,1.74.77l2.35-4.67-1.66-.93Z"/><path class="cls-6" d="M25.92,12.45l.5.29L32.52.59a1.18,1.18,0,0,1-.8-.59h-1L24.64,12.05A3.47,3.47,0,0,1,25.92,12.45Z"/><path class="cls-6" d="M32.52.59l.3-.59h-1.1A1.18,1.18,0,0,0,32.52.59Z"/><path class="cls-6" d="M17.33,37.57,16,40.29a15.48,15.48,0,0,0,2.35-.45L19,38.51Z"/><path class="cls-6" d="M33.5,6.29a1.2,1.2,0,0,1-1.06,1.19l-2,4a1.2,1.2,0,0,1,1.11,1.2,1.23,1.23,0,0,1-1.22,1.23,1.18,1.18,0,0,1-.9-.43l-.4.79,1.65.95L38.3.05l0,0H36.2L33.33,5.71A1.13,1.13,0,0,1,33.5,6.29Z"/><path class="cls-6" d="M38.32,0h0l0,.05Z"/><path class="cls-6" d="M30.34,13.89a1.23,1.23,0,0,0,1.22-1.23,1.2,1.2,0,0,0-1.11-1.2l-1,2A1.18,1.18,0,0,0,30.34,13.89Z"/><path class="cls-6" d="M33.5,6.29a1.13,1.13,0,0,0-.17-.58l-.89,1.77A1.2,1.2,0,0,0,33.5,6.29Z"/><path class="cls-6" d="M36.86,13.88a1.22,1.22,0,0,1,0-2.44,1.2,1.2,0,0,1,1,.49l3-6a16.68,16.68,0,0,0,.23-4.67l-2,3.88a1.21,1.21,0,0,1-.3,2.39,1.13,1.13,0,0,1-.75-.29l-4.77,9.5,1.65.94Z"/><path class="cls-6" d="M36.89,11.44a1.22,1.22,0,0,0,0,2.44l1-2A1.2,1.2,0,0,0,36.89,11.44Z"/><path class="cls-6" d="M40.05,6.29a1.22,1.22,0,0,0-.92-1.17l-1.05,2.1a1.13,1.13,0,0,0,.75.29A1.22,1.22,0,0,0,40.05,6.29Z"/><polygon class="cls-6" points="266.5 54 266.33 54.3 271.07 54.3 271.23 54 266.5 54"/><polygon class="cls-6" points="279.61 39 274.87 39 266.5 54 271.23 54 279.61 39"/><polygon class="cls-6" points="293.57 14 301.39 0 296.65 0 288.83 14 293.57 14"/><path class="cls-6" d="M279.15,54l-.41.1-.11.2h4.74l.17-.3Z"/><path class="cls-6" d="M279.15,54h4.39l.75-1.35C282.59,53.11,280.87,53.56,279.15,54Z"/><path class="cls-6" d="M278.74,54.1l.41-.1h-.36Z"/><polygon class="cls-6" points="305.87 14 313.69 0 308.94 0 301.13 14 305.87 14"/><path class="cls-6" d="M291.91,39h-4.74l-3.25,5.82h.37v3.33h-2.23L278.79,54h.36c1.72-.44,3.44-.89,5.14-1.35Z"/><polygon class="cls-6" points="291.09 54 290.93 54.3 295.67 54.3 295.83 54 291.09 54"/><path class="cls-6" d="M293.27,50.09,291.09,54h4.74L299,48.32C297.12,48.93,295.2,49.51,293.27,50.09Z"/><path class="cls-6" d="M293.78,49.18l-.51.91c1.93-.58,3.85-1.16,5.73-1.77l1.61-2.88Q297.27,47.35,293.78,49.18Z"/><path class="cls-6" d="M315.5,14a12.31,12.31,0,0,1,2.52.26L326,0h-4.74l-7.81,14Z"/><path class="cls-6" d="M295,48.15h-.66l-.58,1q3.48-1.83,6.83-3.74l3.6-6.44h-4.74L295,47Z"/><polygon class="cls-6" points="303.39 54 303.23 54.3 307.97 54.3 308.13 54 303.39 54"/><path class="cls-6" d="M313.14,44.82h.12l1.06-1.91c-2,.76-4,1.5-6,2.23L303.39,54h4.74l5-9Z"/><path class="cls-6" d="M311.77,39l-3.43,6.14c2-.73,4-1.47,6-2.23l2.22-4c-.35,0-.69,0-1,0Z"/><path class="cls-6" d="M326.64,20.85,338.22.12A6.16,6.16,0,0,0,337,0h-3.46L323.9,17.26A12.51,12.51,0,0,1,326.64,20.85Z"/><polygon class="cls-6" points="315.69 54 315.52 54.3 320.26 54.3 320.43 54 315.69 54"/><path class="cls-6" d="M320.43,54l3.44-6.16v-3h1.69L330.49,36c-2.07,1-4.19,2-6.36,2.9L315.69,54Z"/><path class="cls-6" d="M333.1,22.81l-9,16.07c2.17-1,4.29-1.91,6.36-2.9L343,13.58v-.11Q338.4,18.23,333.1,22.81Z"/><path class="cls-6" d="M343,13.47V6a5.52,5.52,0,0,0-.06-.81L333.1,22.81Q338.4,18.24,343,13.47Z"/><polygon class="cls-6" points="327.99 54 327.82 54.3 332.56 54.3 332.73 54 327.99 54"/><path class="cls-6" d="M328,54h4.74L336,48.15H334.6V44.82h3.25L343,35.61V29.47l-1.91,1.07Z"/><path class="cls-6" d="M343,29.47V27.11l-1.91,3.43Z"/><path class="cls-6" d="M341.31,52.17l-.35.63a6,6,0,0,0,2-3.5l-.1.19A6.14,6.14,0,0,1,341.31,52.17Z"/><path class="cls-6" d="M341.31,52.17a6.14,6.14,0,0,0,1.5-2.68Z"/><path class="cls-2" d="M24.55,36.64l-.36.27v1.52a.79.79,0,0,0,.45-.1l1.09-.62C25.32,37.37,24.92,37,24.55,36.64Z"/><path class="cls-2" d="M28.69,31.42A16.4,16.4,0,0,1,26.27,35a16,16,0,0,1-1.72,1.68c.37.37.77.73,1.18,1.07l2-1.17a1.28,1.28,0,0,1-.06-.33A1.22,1.22,0,0,1,28.89,35a1.19,1.19,0,0,1,.88.39l4.52-2.61a.79.79,0,0,0,.4-.69V31a1.17,1.17,0,0,1-.95.5,1.23,1.23,0,0,1,0-2.45,1.19,1.19,0,0,1,.95.5V24.16l-3.3,1.91Z"/><path class="cls-2" d="M34.3,21.44a.68.68,0,0,0,.39-.56.82.82,0,0,0-.36-.62L33.5,21.9Z"/><path class="cls-2" d="M28.89,35a1.22,1.22,0,0,0-1.21,1.23,1.28,1.28,0,0,0,.06.33l2-1.17A1.19,1.19,0,0,0,28.89,35Z"/><path class="cls-2" d="M33.74,29.09a1.23,1.23,0,0,0,0,2.45,1.17,1.17,0,0,0,.95-.5V29.59A1.19,1.19,0,0,0,33.74,29.09Z"/><path class="cls-2" d="M14.11,22.06l1.25-2.5-1.17.68a.78.78,0,0,0-.4.69v.79A1.72,1.72,0,0,1,14.11,22.06Z"/><path class="cls-2" d="M16.19,24.19h0a1.27,1.27,0,0,1,1.74-.49l.68.38L20.14,21a16.69,16.69,0,0,1,1.32-3.63l1-1.89-4.07,2.34-3,5.92Z"/><polygon class="cls-2" points="29.57 24.17 32.16 19 29.54 17.49 24.8 26.92 29.57 24.17"/><path class="cls-2" d="M26.27,35a16.4,16.4,0,0,0,2.42-3.54l2.7-5.35-.93.54Z"/><path class="cls-2" d="M20.14,21l3-5.93-.7.41-1,1.89A16.69,16.69,0,0,0,20.14,21Z"/><path class="cls-2" d="M26.17,30.94a1.22,1.22,0,0,1-.19-.62,1.2,1.2,0,0,1,1.1-1.2l.39-.79-1.55.9a3.68,3.68,0,0,1-.45.21v2.89Z"/><path class="cls-2" d="M33.5,21.9l.83-1.64s0,0,0,0L33.81,20l-1.26,2.5Z"/><path class="cls-2" d="M22.9,26.48l.67-1.33a1.19,1.19,0,0,1-.26-.72,1.22,1.22,0,0,1,1.21-1.22h0l1.82-3.61A1.22,1.22,0,0,1,27,17.32a1.14,1.14,0,0,1,.49.11l.45-.89L25.27,15l-5,10Z"/><path class="cls-2" d="M26,30.32a1.22,1.22,0,0,0,.19.62l.91-1.82A1.2,1.2,0,0,0,26,30.32Z"/><path class="cls-2" d="M24.52,23.21a1.22,1.22,0,0,0-1.21,1.22,1.19,1.19,0,0,0,.26.72l1-1.94Z"/><path class="cls-2" d="M27,17.32a1.22,1.22,0,0,0-.59,2.28l1.08-2.17A1.14,1.14,0,0,0,27,17.32Z"/><path class="cls-2" d="M14.45,23.13h0s0,.06,0,.1l.94.52,3-5.92-3,1.73-1.25,2.5A1.87,1.87,0,0,1,14.45,23.13Z"/><path class="cls-2" d="M20.14,21l-1.53,3.06,1.07.6A16.9,16.9,0,0,1,20.14,21Z"/><path class="cls-2" d="M19.68,24.67l.58.33,5-10-.63-.37a.81.81,0,0,0-.8,0l-.72.42-3,5.93A16.9,16.9,0,0,0,19.68,24.67Z"/><path class="cls-2" d="M28.16,18.55A1.21,1.21,0,0,1,27,19.77a1.16,1.16,0,0,1-.59-.17l-1.82,3.61a1.23,1.23,0,0,1,0,2.45,1.17,1.17,0,0,1-.95-.51l-.67,1.33.93.53h0a.81.81,0,0,0,.8,0l.15-.09,4.74-9.43-1.65-.95-.45.89A1.22,1.22,0,0,1,28.16,18.55Z"/><path class="cls-2" d="M24.52,25.66a1.23,1.23,0,0,0,0-2.45l-1,1.94A1.17,1.17,0,0,0,24.52,25.66Z"/><path class="cls-2" d="M28.16,18.55a1.22,1.22,0,0,0-.72-1.12L26.36,19.6a1.16,1.16,0,0,0,.59.17A1.21,1.21,0,0,0,28.16,18.55Z"/><path class="cls-2" d="M24.19,36.91l.36-.27c-.13-.13-.24-.26-.36-.39Z"/><path class="cls-2" d="M30,23.94a1.21,1.21,0,0,1,1.1-.73l.12,0,1.36-.78L33.81,20l-.32-.18a1.19,1.19,0,0,1-1-.57l-.34-.2-2.59,5.17Z"/><path class="cls-2" d="M27.47,28.33l-.39.79a.45.45,0,0,1,.11,0,1.23,1.23,0,0,1,0,2.45,1.19,1.19,0,0,1-1-.6l-.7,1.39v1.88a1.28,1.28,0,0,1-1.28,1.28h0v.76c.12.13.23.26.36.39A16,16,0,0,0,26.27,35l4.19-8.35Z"/><path class="cls-2" d="M27.19,31.54a1.23,1.23,0,0,0,0-2.45.45.45,0,0,0-.11,0l-.91,1.82A1.19,1.19,0,0,0,27.19,31.54Z"/><path class="cls-2" d="M31.07,23.21a1.21,1.21,0,0,0-1.1.73l1.22-.71Z"/><path class="cls-2" d="M33.49,19.77l-1-.57A1.19,1.19,0,0,0,33.49,19.77Z"/><path class="cls-5" d="M22.93,37.81l.91.52h0a.74.74,0,0,0,.35.1V36.91Q23.58,37.39,22.93,37.81Z"/><path class="cls-5" d="M16.16,24.27l-.82-.44-1.66,3.31a1.32,1.32,0,0,1,.11.53v5.64a1.27,1.27,0,0,1-.13.55h0l3.78-7.52-.78-.43A1.27,1.27,0,0,1,16.16,24.27Z"/><path class="cls-5" d="M20.65,31l.11-.21a13.71,13.71,0,0,1-.51-1.57c-.13-.47-.23-.94-.32-1.42l-.82-.46L18,29.56Z"/><path class="cls-5" d="M23.74,35.76c-.16-.19-.33-.39-.48-.59L21.19,34.1l-1.06,2.12,2.63,1.5Z"/><path class="cls-5" d="M17.83,34.9l.65.38,1-2.05-2.69-1.38L15.34,34.8l.84.47A1.28,1.28,0,0,1,17.83,34.9Z"/><path class="cls-5" d="M21.43,29.4l.32-.63-1.82-1c.09.48.19.95.32,1.42a1.29,1.29,0,0,1,.39-.08A1.21,1.21,0,0,1,21.43,29.4Z"/><path class="cls-5" d="M23.6,35.35l-.34-.18c.15.2.32.4.48.59l.16-.3A1.54,1.54,0,0,1,23.6,35.35Z"/><polygon class="cls-5" points="22.91 32.11 22.91 30.68 22.34 31.82 22.91 32.11"/><path class="cls-5" d="M20.64,29.09a1.29,1.29,0,0,0-.39.08,13.71,13.71,0,0,0,.51,1.57l.67-1.34A1.21,1.21,0,0,0,20.64,29.09Z"/><path class="cls-5" d="M13.68,27.14l1.66-3.31-.91-.5a1.84,1.84,0,0,1-1.3,1.57v1.67A1.26,1.26,0,0,1,13.68,27.14Z"/><path class="cls-5" d="M16.6,31.73a1.28,1.28,0,1,1,1.16-2.28h0l.19.1,1.14-2.27-1.65-.94-3.78,7.52,1.66.93,1.48-2.95Z"/><path class="cls-5" d="M20.65,31l.23.11a3,3,0,0,1-.12-.32Z"/><polygon class="cls-5" points="21.19 34.1 19.51 33.23 18.48 35.28 20.13 36.22 21.19 34.1"/><path class="cls-5" d="M22.57,29.23l-.82-.46-.32.63a1.19,1.19,0,0,1-.09,1.9l1,.52.57-1.14V29.4A3.59,3.59,0,0,1,22.57,29.23Z"/><path class="cls-5" d="M21.86,30.32a1.22,1.22,0,0,0-.43-.92l-.67,1.34a3,3,0,0,0,.12.32l.46.24A1.22,1.22,0,0,0,21.86,30.32Z"/><path class="cls-5" d="M24.19,36.25l-.45-.49-1,2,.17.09q.64-.42,1.26-.9Z"/><path class="cls-5" d="M23.9,35.46l-.16.3.45.49v-.76A1.36,1.36,0,0,1,23.9,35.46Z"/><polygon class="cls-5" points="24.19 35.49 24.19 35.49 24.19 35.49 24.19 35.49"/><path class="cls-5" d="M15.38,23.75l0,.08.82.44a.26.26,0,0,1,0-.08Z"/><path class="cls-5" d="M14.44,23.23s0,.07,0,.1l.91.5,0-.08Z"/><path class="cls-7" d="M24.19,40v-.26l-2.32-1.3a16.66,16.66,0,0,1-1.66.77l2.36,1.34a3.27,3.27,0,0,0,1.67.45,3.31,3.31,0,0,0,1.68-.45l2.17-1.25c-.42-.23-.82-.48-1.21-.74Z"/><path class="cls-7" d="M35.07,19.92a1.24,1.24,0,0,1,.9-.38,1.27,1.27,0,0,1,1.27,1.19A3.38,3.38,0,0,0,35.57,18L35.48,18l-.85,1.69Z"/><path class="cls-7" d="M36.08,23.31V33.64L29.79,37a1.18,1.18,0,0,1-.73.4l-2.18,1.16c.39.26.79.51,1.21.74l6.26-3.62a1.2,1.2,0,0,1,1.09-.7l.1,0,0,0a3.36,3.36,0,0,0,1.68-2.91V25.58a1.21,1.21,0,0,1,0-2.3V20.91A3.22,3.22,0,0,1,36.08,23.31Z"/><path class="cls-7" d="M29.79,37l-.73.4A1.18,1.18,0,0,0,29.79,37Z"/><path class="cls-7" d="M34.35,35.68,35.54,35l-.1,0A1.2,1.2,0,0,0,34.35,35.68Z"/><path class="cls-7" d="M36.41,24.43a1.21,1.21,0,0,0,.84,1.15v-2.3A1.22,1.22,0,0,0,36.41,24.43Z"/><path class="cls-7" d="M16.18,35.27l-.1.11a1.29,1.29,0,0,0,.48,1.75l.77.44.65-1.3Z"/><path class="cls-7" d="M23.1,14.14,24.18,12a3.34,3.34,0,0,0-1.62.44l-2.12,1.22-1.5,3Z"/><path class="cls-7" d="M19.64,37.2,19,38.51l1.23.7a16.66,16.66,0,0,0,1.66-.77Z"/><path class="cls-7" d="M12.58,21.27h.14l-.12-.77,3.29-2,1.56-3.12L12.91,18l-.24.16-1.44,2.87v.8A1.85,1.85,0,0,1,12.58,21.27Z"/><path class="cls-7" d="M32.33,18.3a1.23,1.23,0,0,1,.59-.81l.39-.77L30.69,15.2l-.83,1.64Z"/><path class="cls-7" d="M34.65,18.26a1,1,0,0,1,.06.29,1.24,1.24,0,0,1-.42.91l.34.2L35.48,18,35,17.66Z"/><path class="cls-7" d="M23.81,13.71l.83-1.66a3.73,3.73,0,0,0-.46,0L23.1,14.14Z"/><polygon class="cls-7" points="28.23 15.87 29.04 14.25 26.42 12.74 25.62 14.33 28.23 15.87"/><path class="cls-7" d="M34.29,19.46a1.24,1.24,0,0,0,.42-.91,1,1,0,0,0-.06-.29l-.54,1.09Z"/><path class="cls-7" d="M32.92,17.49a1.23,1.23,0,0,0-.59.81l.14.08Z"/><path class="cls-7" d="M11.23,20.93v.12l1.44-2.87A3.41,3.41,0,0,0,11.23,20.93Z"/><polygon class="cls-7" points="18.94 16.66 20.44 13.67 17.45 15.4 15.89 18.52 18.94 16.66"/><path class="cls-7" d="M24.19,13.48l1.43.85.8-1.59-.5-.29a3.47,3.47,0,0,0-1.28-.4l-.83,1.66Z"/><polygon class="cls-7" points="19.64 37.2 17.98 36.27 17.33 37.57 18.98 38.51 19.64 37.2"/><polygon class="cls-7" points="29.86 16.84 30.69 15.2 29.04 14.25 28.23 15.87 29.86 16.84"/><path class="cls-7" d="M33.5,17.32a1.19,1.19,0,0,1,1.15.94l.31-.6-1.65-.94-.39.77A1.19,1.19,0,0,1,33.5,17.32Z"/><path class="cls-7" d="M34.11,19.35l.54-1.09a1.15,1.15,0,0,0-1.73-.77l-.45.89Z"/><path class="cls-7" d="M24.64,38.33a.79.79,0,0,1-.45.1V40l2.69-1.44c-.39-.27-.78-.55-1.15-.85Z"/><path class="cls-7" d="M34.69,20.88s0,0,0-.06a1.23,1.23,0,0,1,.37-.9l-.44-.26-.3.6A.82.82,0,0,1,34.69,20.88Z"/><path class="cls-7" d="M34.69,24.16v5.43a1.18,1.18,0,0,1,.26.73,1.13,1.13,0,0,1-.26.72v1a.79.79,0,0,1-.4.69l-4.52,2.61a1.24,1.24,0,0,1,.33.84,1.18,1.18,0,0,1-.31.79l6.29-3.36V23.31a3.45,3.45,0,0,1-.5.35Z"/><path class="cls-7" d="M27.74,36.54l-2,1.17c.37.3.76.58,1.15.85l2.18-1.16c-.06,0-.11,0-.17,0A1.21,1.21,0,0,1,27.74,36.54Z"/><path class="cls-7" d="M29.77,35.37l-2,1.17a1.21,1.21,0,0,0,1.15.89c.06,0,.11,0,.17,0l.73-.4a1.18,1.18,0,0,0,.31-.79A1.24,1.24,0,0,0,29.77,35.37Z"/><path class="cls-7" d="M35,30.32a1.18,1.18,0,0,0-.26-.73V31A1.13,1.13,0,0,0,35,30.32Z"/><polygon class="cls-7" points="22.42 15.49 23.1 14.14 18.94 16.66 18.35 17.83 22.42 15.49"/><path class="cls-7" d="M13.79,20.93a.78.78,0,0,1,.4-.69l1.17-.68.53-1-3.29,2,.12.77a1.84,1.84,0,0,1,1.07.44Z"/><path class="cls-7" d="M33.81,20l.48.29s0,0,0,0l.3-.6-.34-.2a1.15,1.15,0,0,1-.35.22Z"/><path class="cls-7" d="M32.16,19l.15-.3c0-.05,0-.1,0-.15a1.87,1.87,0,0,1,0-.25l-2.47-1.46-.32.65Z"/><polygon class="cls-7" points="27.89 16.54 28.23 15.87 25.62 14.33 25.27 15.03 27.89 16.54"/><polygon class="cls-7" points="23.12 15.08 23.81 13.71 23.1 14.14 22.42 15.49 23.12 15.08"/><path class="cls-7" d="M33.94,19.68a1.15,1.15,0,0,0,.35-.22l-.18-.11Z"/><path class="cls-7" d="M32.31,18.7l.16-.32-.14-.08a1.87,1.87,0,0,0,0,.25C32.29,18.6,32.31,18.65,32.31,18.7Z"/><polygon class="cls-7" points="18.35 17.83 18.94 16.66 15.89 18.52 15.36 19.56 18.35 17.83"/><path class="cls-7" d="M23.84,14.66a.81.81,0,0,1,.8,0l.63.37.35-.7-1.43-.85-.38.23-.69,1.37Z"/><polygon class="cls-7" points="29.54 17.49 29.86 16.84 28.23 15.87 27.89 16.54 29.54 17.49"/><path class="cls-7" d="M33.49,19.77l.32.18.13-.27a1.08,1.08,0,0,1-.44.09Z"/><path class="cls-7" d="M32.31,18.7l-.15.3.34.2A1.27,1.27,0,0,1,32.31,18.7Z"/><path class="cls-7" d="M33.49,19.77h0a1.08,1.08,0,0,0,.44-.09l.17-.33-1.64-1-.16.32a1.27,1.27,0,0,0,.19.5Z"/><path class="cls-7" d="M24.19,38.43a.74.74,0,0,1-.35-.1h0l-.91-.52-.32.2c-.24.15-.49.3-.74.43l2.32,1.3Z"/><path class="cls-7" d="M22.76,37.72l-2.63-1.5-.49,1,2.23,1.24c.25-.13.5-.28.74-.43Z"/><path class="cls-7" d="M18,36.27l.5-1-.65-.38a1.28,1.28,0,0,0-1.65.37Z"/><polygon class="cls-7" points="18.48 35.28 17.98 36.27 19.64 37.2 20.13 36.22 18.48 35.28"/><path class="cls-7" d="M22.61,38l.32-.2-.17-.09Z"/><path class="cls-7" d="M37.25,20.82h0s0,0,0-.08,0,.12,0,.18Z"/><path class="cls-7" d="M34.3,21.44l-.8.46-1.23,2.44s0,.06,0,.09a1.24,1.24,0,0,1-.59,1l-.31.61,3.3-1.91V20.88A.68.68,0,0,1,34.3,21.44Z"/><path class="cls-7" d="M32.29,24.43s0-.06,0-.09l-.57,1.12A1.24,1.24,0,0,0,32.29,24.43Z"/><path class="cls-7" d="M19.69,26.12l0,0v-.08Z"/><path class="cls-7" d="M18.61,24.07l-.68-.38a1.27,1.27,0,0,0-1.74.49h0l1.84,1Z"/><path class="cls-7" d="M32.27,24.34,33.5,21.9l-1,.55L32,23.62A1.27,1.27,0,0,1,32.27,24.34Z"/><path class="cls-7" d="M31,25.64l-.49,1,.93-.54.31-.61a1.15,1.15,0,0,1-.63.2Z"/><path class="cls-7" d="M19.73,26.14l2.61,1.44.56-1.1L20.26,25l-.53,1.06Z"/><path class="cls-7" d="M25.47,28.7h0v.73a3.68,3.68,0,0,0,.45-.21l1.55-.9,2.1-4.16L24.8,26.92l-.29.57A1.27,1.27,0,0,1,25.47,28.7Z"/><path class="cls-7" d="M31,25.64l.12,0a1.15,1.15,0,0,0,.63-.2l.57-1.12a1.27,1.27,0,0,0-.3-.72Z"/><path class="cls-7" d="M19.69,26.12l0-.06c0-.46-.05-.92-.05-1.39l-1.07-.6L18,25.21Z"/><path class="cls-7" d="M19.73,26.06,20.26,25l-.58-.33C19.68,25.14,19.69,25.6,19.73,26.06Z"/><path class="cls-7" d="M23.14,28a1.24,1.24,0,0,1,1-.59,1.75,1.75,0,0,1,.33.06l.29-.57-.15.09a.81.81,0,0,1-.8,0h0l-.93-.53-.56,1.1Z"/><path class="cls-7" d="M32,23.62l.58-1.17-1.36.78A1.2,1.2,0,0,1,32,23.62Z"/><path class="cls-7" d="M30.46,26.61l.49-1a1.22,1.22,0,0,1-1.09-1.21,1.17,1.17,0,0,1,.11-.49l-.4.23-2.1,4.16Z"/><path class="cls-7" d="M31,25.64l1-2a1.2,1.2,0,0,0-.78-.39L30,23.94a1.17,1.17,0,0,0-.11.49A1.22,1.22,0,0,0,31,25.64Z"/><path class="cls-7" d="M19.74,26.2l-.07,0-.56,1.13.82.46C19.84,27.24,19.78,26.72,19.74,26.2Z"/><path class="cls-7" d="M16.16,24.27a1.27,1.27,0,0,0,.52,1.65l.78.43L18,25.26Z"/><path class="cls-7" d="M22.34,27.6l-2.6-1.4c0,.52.1,1,.19,1.55l1.82,1Z"/><polygon class="cls-7" points="18 25.26 17.45 26.36 19.11 27.29 19.67 26.16 18 25.26"/><path class="cls-7" d="M22.91,29.4v-.69a1.25,1.25,0,0,1,.22-.68l-.79-.43-.59,1.17.82.46A3.59,3.59,0,0,0,22.91,29.4Z"/><path class="cls-7" d="M16.19,24.19a.26.26,0,0,0,0,.08l1.84,1,0-.05Z"/><path class="cls-7" d="M19.69,26.12l0,0,.07,0v-.06Z"/><path class="cls-7" d="M22.34,27.58l-2.61-1.44v.06l2.6,1.4Z"/><polygon class="cls-7" points="18.03 25.21 18 25.26 19.67 26.16 19.69 26.12 18.03 25.21"/><polygon class="cls-7" points="23.14 28.02 22.34 27.58 22.34 27.6 23.13 28.03 23.14 28.02"/><path class="cls-7" d="M36,19.54a1.24,1.24,0,0,0-.9.38l1,.59v2.8a3.22,3.22,0,0,0,1.17-2.4c0-.06,0-.12,0-.18A1.27,1.27,0,0,0,36,19.54Z"/><path class="cls-7" d="M34.7,20.82s0,0,0,.06v3.28l.89-.5a3.45,3.45,0,0,0,.5-.35v-2.8l-1-.59A1.23,1.23,0,0,0,34.7,20.82Z"/><path class="cls-7" d="M11.23,27.67v.11l.59-1.16A1.25,1.25,0,0,0,11.23,27.67Z"/><path class="cls-7" d="M13.13,28.23,11.23,32v1.3h0a1.28,1.28,0,0,0,1.28,1.28h0a1.28,1.28,0,0,0,1.15-.73l-.53-.29Z"/><path class="cls-7" d="M13.13,28.23V26.57a1.21,1.21,0,0,0-.62-.18,1.27,1.27,0,0,0-.69.23l-.59,1.16V32Z"/><path class="cls-7" d="M13.79,27.67a1.32,1.32,0,0,0-.11-.53l-.55,1.09v5.34l.53.29a1.27,1.27,0,0,0,.13-.55Z"/><path class="cls-7" d="M13.13,26.57v1.66l.55-1.09A1.26,1.26,0,0,0,13.13,26.57Z"/><path class="cls-7" d="M25.47,29.44a3.45,3.45,0,0,1-1.23.24h0v5.2l1.28-2.54Z"/><path class="cls-7" d="M25.47,34.21V32.33l-1.28,2.54v.62A1.28,1.28,0,0,0,25.47,34.21Z"/><path class="cls-7" d="M21.77,33l-.58,1.14,2.07,1.07A16.15,16.15,0,0,1,21.77,33Z"/><polygon class="cls-7" points="20.65 30.95 17.97 29.56 16.82 31.84 19.51 33.23 20.65 30.95"/><path class="cls-7" d="M23.6,35.35a1.54,1.54,0,0,0,.3.11l.29-.59v-5.2a3,3,0,0,1-.73-.09l-.55,1.1v1.43l-.57-.29L21.77,33a16.15,16.15,0,0,0,1.49,2.21Z"/><path class="cls-7" d="M17.78,29.46h0a1.28,1.28,0,1,0-1.16,2.28l.22.12L18,29.56Z"/><path class="cls-7" d="M21.77,33c-.27-.49-.52-1-.74-1.49-.06-.14-.1-.27-.15-.41L20.65,31l-1.14,2.28,1.68.87Z"/><path class="cls-7" d="M22.91,30.68l.55-1.1a3.54,3.54,0,0,1-.55-.18Z"/><path class="cls-7" d="M21.34,31.3a1.34,1.34,0,0,1-.31.17c.22.5.47,1,.74,1.49l.57-1.14Z"/><path class="cls-7" d="M20.88,31.06c.05.14.09.27.15.41a1.34,1.34,0,0,0,.31-.17Z"/><path class="cls-7" d="M24.19,35.49h0v-.62l-.29.59a1.36,1.36,0,0,0,.29,0Z"/><path class="cls-7" d="M25.47,29.44v-.73h0a1.27,1.27,0,0,0-1-1.21l-.5,1,.18.1v1.07h0A3.45,3.45,0,0,0,25.47,29.44Z"/><path class="cls-7" d="M24.51,27.49a1.75,1.75,0,0,0-.33-.06,1.24,1.24,0,0,0-1,.59l.87.48Z"/><path class="cls-7" d="M24,28.5l-.55,1.08a3,3,0,0,0,.73.09V28.6Z"/><path class="cls-7" d="M23.13,28a1.25,1.25,0,0,0-.22.68v.69a3.54,3.54,0,0,0,.55.18L24,28.5Z"/><polygon class="cls-7" points="24.19 28.6 24.01 28.5 24.01 28.5 24.19 28.6"/><polygon class="cls-7" points="24.01 28.5 24.01 28.5 23.14 28.02 23.13 28.03 24.01 28.5"/><path class="cls-8" d="M13.13,23.37a1.21,1.21,0,0,1-.62.18,1.28,1.28,0,0,1-1.28-1.28v-.42a1.89,1.89,0,0,0-.51,1.28h0A1.86,1.86,0,0,0,12.58,25h.06l.49-1Z"/><path class="cls-8" d="M13.13,24l-.49,1a2,2,0,0,0,.49-.09Z"/><path class="cls-8" d="M14.11,22.06a1.72,1.72,0,0,0-.32-.34v.55a1.33,1.33,0,0,1-.12.53l.05,0Z"/><path class="cls-8" d="M14.45,23.13h0a1.87,1.87,0,0,0-.34-1.07l-.39.77.72.4S14.45,23.16,14.45,23.13Z"/><path class="cls-8" d="M13.61,22.89a1.23,1.23,0,0,1-.48.48V24l.54-1.08Z"/><path class="cls-8" d="M14.43,23.33l-.76-.4L13.13,24v.89A1.84,1.84,0,0,0,14.43,23.33Z"/><path class="cls-8" d="M13.67,22.93l.05-.1-.05,0a.7.7,0,0,1-.06.09Z"/><path class="cls-8" d="M13.72,22.83l-.05.1.76.4s0-.07,0-.1Z"/><path class="cls-8" d="M12.51,23.55a1.21,1.21,0,0,0,.62-.18v-.74l-.23-.12-.18-1.23h-.14a1.85,1.85,0,0,0-1.35.58v.42A1.28,1.28,0,0,0,12.51,23.55Z"/><path class="cls-8" d="M13.13,22.63v-.12l.54.29a1.33,1.33,0,0,0,.12-.53v-.55a1.84,1.84,0,0,0-1.07-.44l.18,1.23Z"/><path class="cls-8" d="M13.61,22.89l-.48-.26v.74A1.23,1.23,0,0,0,13.61,22.89Z"/><path class="cls-8" d="M13.67,22.8l-.54-.29v.12l.48.26A.7.7,0,0,0,13.67,22.8Z"/><polygon class="cls-4" points="280.96 48.15 282.06 48.15 283.92 44.82 280.96 44.82 280.96 48.15"/><polygon class="cls-9" points="280.96 48.15 282.06 48.15 283.92 44.82 280.96 44.82 280.96 48.15"/><polygon class="cls-6" points="284.29 48.15 284.29 44.82 283.92 44.82 282.06 48.15 284.29 48.15"/><polygon class="cls-9" points="284.29 48.15 284.29 44.82 283.92 44.82 282.06 48.15 284.29 48.15"/><polygon class="cls-4" points="295.02 44.82 291.69 44.82 291.69 48.15 294.36 48.15 295.02 46.97 295.02 44.82"/><polygon class="cls-10" points="295.02 44.82 291.69 44.82 291.69 48.15 294.36 48.15 295.02 46.97 295.02 44.82"/><polygon class="cls-6" points="295.02 46.97 294.36 48.15 295.02 48.15 295.02 46.97"/><polygon class="cls-10" points="295.02 46.97 294.36 48.15 295.02 48.15 295.02 46.97"/><path class="cls-2" d="M302.42,48.15h3.33V46.06l-3.33,1.14Z"/><path class="cls-11" d="M302.42,48.15h3.33V46.06l-3.33,1.14Z"/><path class="cls-4" d="M302.42,44.82V47.2l3.33-1.14V44.82Z"/><path class="cls-11" d="M302.42,44.82V47.2l3.33-1.14V44.82Z"/><polygon class="cls-2" points="313.14 48.15 316.48 48.15 316.48 44.82 313.26 44.82 313.14 45.03 313.14 48.15"/><polygon class="cls-12" points="313.14 48.15 316.48 48.15 316.48 44.82 313.26 44.82 313.14 45.03 313.14 48.15"/><polygon class="cls-6" points="313.14 45.03 313.26 44.82 313.14 44.82 313.14 45.03"/><polygon class="cls-12" points="313.14 45.03 313.26 44.82 313.14 44.82 313.14 45.03"/><polygon class="cls-2" points="327.2 48.15 327.2 44.82 325.56 44.82 323.87 47.84 323.87 48.15 327.2 48.15"/><polygon class="cls-13" points="327.2 48.15 327.2 44.82 325.56 44.82 323.87 47.84 323.87 48.15 327.2 48.15"/><polygon class="cls-6" points="323.87 44.82 323.87 47.84 325.56 44.82 323.87 44.82"/><polygon class="cls-13" points="323.87 44.82 323.87 47.84 325.56 44.82 323.87 44.82"/><polygon class="cls-2" points="337.93 44.82 337.86 44.82 335.99 48.15 337.93 48.15 337.93 44.82"/><polygon class="cls-3" points="337.93 44.82 337.86 44.82 335.99 48.15 337.93 48.15 337.93 44.82"/><polygon class="cls-6" points="334.6 44.82 334.6 48.15 335.99 48.15 337.86 44.82 334.6 44.82"/><polygon class="cls-3" points="334.6 44.82 334.6 48.15 335.99 48.15 337.86 44.82 334.6 44.82"/><path class="cls-5" d="M53.48,27.69l0-1.2-.69,1.37Z"/><path class="cls-5" d="M54.33,25.89c.23-.22.46-.44.69-.68l-1.74,11h3l.16-1h9l.44-2.85H61.8l.26-1.68h3.09L65.56,28H62.48l.25-1.61h3.09l.41-2.63H63.15l.24-1.54h3.67l.44-2.76H64.18c.62-1,1.29-2.11,1.9-3.19l-3.25-.66A33.7,33.7,0,0,1,61,19.47H59.19A34.93,34.93,0,0,0,60.8,16.3l-1.89-.5-4.83,9.56C54.16,25.54,54.25,25.71,54.33,25.89Zm4.19-3.65h2l-.24,1.54h-2Zm-.67,4.17h2L59.58,28h-2Zm-.67,4.24h2l-.26,1.67h-2Z"/><path class="cls-5" d="M50.93,32.77,51.21,31l-.69,1.36A16.29,16.29,0,0,1,48,36.05a6.94,6.94,0,0,0,1.46-.48C50.35,35.07,50.7,34.25,50.93,32.77Z"/><path class="cls-5" d="M51.21,31l.45-2.88c.39-.09.77-.2,1.16-.3l.69-1.37,0-1.6-1.42.32.44-2.76h.89a7.34,7.34,0,0,1-.64.61,18.32,18.32,0,0,1,1.26,2.3l4.83-9.56-1-.26a23.79,23.79,0,0,1-3.82,6.26l.36-2.24h-.65a1.2,1.2,0,0,1-.65.21,1.23,1.23,0,0,1,0-2.45,1,1,0,0,1,.23.05l.28-1.77h-3l-.63,4H47.68l-.46,2.89h2.33L49,25.88c-1.08.24-2.07.44-2.89.57l.13,2.82a1.24,1.24,0,0,1,.6-.18,1.19,1.19,0,0,1,.53.14L48.52,29l-.6,3.8c-.05.3-.18.41-.46.41s-1.15,0-1.93,0a10.78,10.78,0,0,1,.38,3.09,7,7,0,0,0,2.1-.15,16.29,16.29,0,0,0,2.51-3.65Zm-1.7-6.61a1.21,1.21,0,1,1,1.21,1.23A1.22,1.22,0,0,1,49.51,24.43Z"/><path class="cls-5" d="M46.24,29.27v.24l1.12-.28a1.19,1.19,0,0,0-.53-.14A1.24,1.24,0,0,0,46.24,29.27Z"/><path class="cls-5" d="M51.93,24.43a1.21,1.21,0,1,0-1.21,1.23A1.22,1.22,0,0,0,51.93,24.43Z"/><path class="cls-5" d="M51.93,18.55a1.21,1.21,0,0,0,1.21,1.22,1.2,1.2,0,0,0,.65-.21H53l.35-2.19a1,1,0,0,0-.23-.05A1.22,1.22,0,0,0,51.93,18.55Z"/><path class="cls-5" d="M67.9,28.43a14.2,14.2,0,0,1,1.6,2.67,17.61,17.61,0,0,0,1.9-1.17l-1,6.35h3L74.84,27A25,25,0,0,0,77,24.35H88.91l.44-2.78H78.81c.21-.37.42-.76.62-1.15l-1.92-.5.07-.5H82l-.19,1.17h3.09l.18-1.17h4.52l.44-2.76H85.56l.17-1.06H82.65l-.17,1.06H78l.17-1.06H75.11l-.17,1.06H70.61l-.43,2.76H74.5l-.19,1.17H76l-.55,1H69.77l-.44,2.78h4A17.07,17.07,0,0,1,67.9,28.43Z"/><path class="cls-5" d="M83.5,29.11a39.43,39.43,0,0,0,3.79-2.76l-1.57-1.5-.63.15H77.44l-.38,2.41h5c-.34.24-.66.46-1,.65h-.5l-.2,1.24H75.28l-.42,2.63H80l-.21,1.33c0,.26-.16.32-.46.32s-1.39,0-2.19,0a9.49,9.49,0,0,1,.51,2.69,9.39,9.39,0,0,0,3.61-.43c1-.41,1.37-1.11,1.58-2.44l.23-1.43h4.82l.42-2.62H83.47Z"/><path class="cls-5" d="M99.33,21.8c-2,5.53-5.18,9.65-9.91,11.83a17.8,17.8,0,0,1,2.48,2.58,23.85,23.85,0,0,0,9.31-10.13,14.52,14.52,0,0,0,6.08,10.09,20.63,20.63,0,0,1,3-2.78c-7-4.52-6.43-12.37-5.75-16.65H96.61L96.1,20h4.8c0,.67-.07,1.39-.05,2.13Z"/><path class="cls-5" d="M120.94,19.72l-.48,3h5.06L125,25.93h-4.36l-.48,3h4.37L124,32.58h-5.52l-.47,3h14.1l.47-3h-5.37l.58-3.67h4.45l.47-3h-4.45l.51-3.22h5l.48-3h-4.8l1.12-1.06A23.79,23.79,0,0,0,126,15.54L123.6,17.8a30.29,30.29,0,0,1,2.72,1.92Z"/><path class="cls-5" d="M115.7,25.15l-1.74,11h3l2.46-15.54a43.74,43.74,0,0,0,2.57-4l-2.78-1a27.84,27.84,0,0,1-6.34,7.89A16.4,16.4,0,0,1,114,26.8,22.61,22.61,0,0,0,115.7,25.15Z"/><path class="cls-5" d="M140.61,30.47l-1.76,1.07a17.15,17.15,0,0,0,1.57-5.24l.94-5.91h-2.24l-.93,5.89c-.4,2.52-1.3,6.15-4.64,8a7.5,7.5,0,0,1,1.3,1.67,10.71,10.71,0,0,0,3.88-4.19,13.43,13.43,0,0,1,1.14,2.54L141.93,33A15.21,15.21,0,0,0,140.61,30.47Z"/><polygon class="cls-5" points="138.85 19.2 142.01 19.2 140.29 30.02 142.55 30.02 144.68 16.61 137.09 16.61 134.95 30.15 137.12 30.15 138.85 19.2"/><path class="cls-5" d="M144.65,21.17h2.56l-.12.78h-2l-.38,2.37h2l-.1.65h-2.89l-.38,2.39h2.89l-.11.7H144l-.38,2.37h1.24a14.57,14.57,0,0,1-3.63,3.33,9.07,9.07,0,0,1,1.52,2.06,14.31,14.31,0,0,0,2.5-2.48l-.45,2.83h2.26l.91-5.74h.8l-.91,5.76h2.26l.45-2.87a10,10,0,0,0,1.59,2.33,12,12,0,0,1,2.11-2,10,10,0,0,1-2.46-3.24H154l.49-3.07h.71l.38-2.39h-.72l.48-3h-2.91l.13-.78H156l.38-2.41h-2.84c.59-.7,1.23-1.48,1.91-2.22l-2.53-1a23,23,0,0,1-2,3.22h-1.8l.7-.33a18.68,18.68,0,0,0-1.19-2.76l-2.28,1c.31.69.59,1.39.84,2.11H145ZM152,24.32h.78l-.1.66h-.78Zm-.48,3.05h.78l-.11.7h-.79Zm-2.09-6.2h.8l-.12.79h-.8Zm-.5,3.15h.8l-.1.66h-.8Zm-.48,3h.81l-.11.7h-.81Z"/><path class="cls-5" d="M155.87,33.73a7.87,7.87,0,0,1,1.81,2.7,16.15,16.15,0,0,0,8.48-9.11h5.32c-.8,3.39-1.44,5.13-2,5.57a1.73,1.73,0,0,1-1.13.28c-.67,0-2.2,0-3.65-.13a5.87,5.87,0,0,1,.63,3.11,34.56,34.56,0,0,0,3.81,0,4.42,4.42,0,0,0,2.8-1.17c1.05-1,1.9-3.48,3.18-9.26.13-.41.3-1.32.3-1.32h-8.26c.24-.81.43-1.62.6-2.42h10.34l.48-3h-8.43l.54-3.45h-3.28l-.54,3.45h-8.15l-.48,3h6C163.29,26.39,162.08,31,155.87,33.73Z"/><path class="cls-5" d="M178.34,30.84a16,16,0,0,1,.91,3.15,13.77,13.77,0,0,0,1.8-2.43l-.74,4.65h2.8l1-6.3c.31.65.58,1.3.76,1.8l2-2.41a14.32,14.32,0,0,1-2.48,5.19,8.43,8.43,0,0,1,1.95,1.72c2.25-2.72,3.37-7,4-10.3h2.37l-.1.63h-2l-.34,2.13h8.28l.44-2.76h1.09l.34-2.2h-1.08l.44-2.78h-3.54l.14-.92h4.46l.39-2.47h-4.54l.31-2h-3.2l-.31,2H189.1l.16-.33-2.4-.5c-.3,1-.75,2.37-1.22,3.54l.75-4.69h-2.8l-.76,4.8a20.45,20.45,0,0,0-.16-3.41l-2.14.47a20,20,0,0,1-.12,5.13l2.15-.5-.14.89h-2.5l-.47,2.94h2.09A18.76,18.76,0,0,1,178.34,30.84Zm17.53-7.78h.94l-.1.65h-.94Zm-.45,2.85h.94l-.1.63h-.94ZM191.27,20h2.37l-.15.91h-1.91l-.34,2.13h1.92l-.1.65h-2.38Zm-6.52,5.87h2.35l.46-2.93h-2.34l.17-1.07,1.39.39c.63-1.08,1.39-2.74,2.11-4.28l-1.12,7a35.94,35.94,0,0,1-.8,4c-.39-.57-1.59-2.18-2.24-3Z"/><path class="cls-5" d="M189.06,36.21h2.78l.1-.65h2.82l-.09.59h2.91l1.07-6.72h-8.52Zm3.48-4.43h2.82l-.22,1.43h-2.83Z"/><path class="cls-14" d="M316.54,39A12.49,12.49,0,0,0,328,27.08c-2.65,2.12-5.43,4.2-8.29,6.25Z"/><path class="cls-14" d="M312,38.53l-.74.47h.48Z"/><polygon class="cls-14" points="287.17 39 301.13 14 293.57 14 279.61 39 287.17 39"/><path class="cls-14" d="M311.29,39l.74-.47,5.66-10.14L314.92,31a.55.55,0,0,1-.77,0,.54.54,0,0,1,0-.77l4.27-3.95-4.27-3.94h0a.54.54,0,0,1,0-.77.55.55,0,0,1,.77,0l4.38,4.05,4.6-8.25a12.38,12.38,0,0,0-5.88-3L304.21,39Z"/><polygon class="cls-14" points="299.47 39 313.43 14 305.87 14 291.91 39 299.47 39"/><path class="cls-14" d="M260.5,14a12.5,12.5,0,0,0,0,25h14.37l14-25Z"/><path class="cls-14" d="M328,27.08c0-.19,0-.38,0-.58a12.49,12.49,0,0,0-1.36-5.65l-7,12.48C322.54,31.28,325.32,29.2,328,27.08Z"/><polygon class="cls-14" points="293.57 14 288.83 14 274.87 39 279.61 39 293.57 14"/><polygon class="cls-14" points="291.91 39 305.87 14 301.13 14 287.17 39 291.91 39"/><path class="cls-14" d="M304.21,39,318,14.26A12.31,12.31,0,0,0,315.5,14h-2.07l-14,25Z"/><path class="cls-14" d="M315.5,39c.35,0,.69,0,1,0l3.14-5.62c-2.48,1.76-5,3.5-7.65,5.2l-.26.47Z"/><path class="cls-14" d="M319.62,25.8l0,0a.55.55,0,0,1,0,.77l-1.93,1.78L312,38.53c2.63-1.7,5.17-3.44,7.65-5.2l7-12.48a12.51,12.51,0,0,0-2.74-3.59l-4.6,8.25Z"/><path class="cls-7" d="M314.92,21.46a.55.55,0,0,0-.77,0,.54.54,0,0,0,0,.77h0l4.27,3.94-4.27,3.95a.54.54,0,0,0,0,.77.55.55,0,0,0,.77,0l2.77-2.56,1.61-2.88Z"/><path class="cls-7" d="M319.66,25.84l0,0-.32-.29-1.61,2.88,1.93-1.78A.55.55,0,0,0,319.66,25.84Z"/><g id="立即推荐" class="cls-15"><text class="cls-16" transform="translate(261.13 31.09)">立即推荐</text></g></g></g></svg>