<svg xmlns="http://www.w3.org/2000/svg" viewBox="0 0 343 101"><defs><style>.cls-1{fill:#f2d03d;}.cls-2,.cls-5,.cls-6{fill:#fff;}.cls-2{opacity:0.5;}.cls-10,.cls-11,.cls-12,.cls-13,.cls-14,.cls-2,.cls-3,.cls-5{isolation:isolate;}.cls-10,.cls-11,.cls-12,.cls-13,.cls-14,.cls-3,.cls-4{fill:#ee741b;}.cls-3{opacity:0.3;}.cls-5{opacity:0.6;}.cls-7{fill:#f5c526;}.cls-8{fill:#131313;}.cls-9{fill:#ca3682;}.cls-10{opacity:0.7;}.cls-11{opacity:0.62;}.cls-12{opacity:0.54;}.cls-13{opacity:0.46;}.cls-14{opacity:0.38;}</style></defs><g id="图层_2" data-name="图层 2"><g id="图层_1-2" data-name="图层 1"><path class="cls-1" d="M331.36,100.62H17.11V101H13.78v-.35H10.65a10.4,10.4,0,0,1-2-.2,12.19,12.19,0,0,0,3.74.58H330.63a12.19,12.19,0,0,0,3.74-.58,10.4,10.4,0,0,1-2,.2Z"/><path class="cls-2" d="M338.35,98.28l-.41.74A10.62,10.62,0,0,0,343,90l-.11.19A12.33,12.33,0,0,1,338.35,98.28Z"/><path class="cls-1" d="M339.71,85.73q-7.15,5.56-15,10.57l-2.42,4.32h9.06Z"/><path class="cls-2" d="M339.71,85.73q-7.15,5.56-15,10.57l-2.42,4.32h9.06Z"/><path class="cls-1" d="M342.89,90.18l-4.54,8.1A12.33,12.33,0,0,0,342.89,90.18Z"/><path class="cls-2" d="M342.89,90.18l-4.54,8.1A12.33,12.33,0,0,0,342.89,90.18Z"/><path class="cls-1" d="M16.55,64.47C7.94,52,2.24,38.68,0,24.81V67.9a28.94,28.94,0,0,1,14-3.54C14.86,64.36,15.71,64.4,16.55,64.47Z"/><path class="cls-3" d="M16.55,64.47C7.94,52,2.24,38.68,0,24.81V67.9a28.94,28.94,0,0,1,14-3.54C14.86,64.36,15.71,64.4,16.55,64.47Z"/><path class="cls-1" d="M40.89,91a22.69,22.69,0,0,1-3.22,9.64H53.32Q46.77,96,40.89,91Z"/><path class="cls-3" d="M40.89,91a22.69,22.69,0,0,1-3.22,9.64H53.32Q46.77,96,40.89,91Z"/><path class="cls-1" d="M41,88.83c0,.73,0,1.45-.11,2.15q5.86,5,12.43,9.64H72C38.41,81.06,12.9,53.67,0,22v2.84C2.24,38.68,7.94,52,16.55,64.47,30.26,65.64,41,76.1,41,88.83ZM13.78,54.73h3.33v3.33H13.78Z"/><path class="cls-2" d="M41,88.83c0,.73,0,1.45-.11,2.15q5.86,5,12.43,9.64H72C38.41,81.06,12.9,53.67,0,22v2.84C2.24,38.68,7.94,52,16.55,64.47,30.26,65.64,41,76.1,41,88.83ZM13.78,54.73h3.33v3.33H13.78Z"/><path class="cls-3" d="M41,88.83c0,.73,0,1.45-.11,2.15q5.86,5,12.43,9.64H72C38.41,81.06,12.9,53.67,0,22v2.84C2.24,38.68,7.94,52,16.55,64.47,30.26,65.64,41,76.1,41,88.83ZM13.78,54.73h3.33v3.33H13.78Z"/><path class="cls-4" d="M304.78,93.31a5.45,5.45,0,0,1-2.73-.73l-3.6-2-5.66,10.09h9.07L306,93.15A5.31,5.31,0,0,1,304.78,93.31Z"/><path class="cls-4" d="M339.71,85.73,343,79.85V63.67L324.72,96.3Q332.55,91.31,339.71,85.73Z"/><path class="cls-4" d="M326,78.74a5.5,5.5,0,0,1-2.74,4.75l-9,5.22-6.68,11.91h9.07l26-46.37a9,9,0,0,1-2.09.24,9.44,9.44,0,0,1-5.93-2.1L326,67.68Z"/><polygon class="cls-4" points="184.74 35.5 180.4 35.5 180.3 36.12 184.64 36.12 184.74 35.5"/><polygon class="cls-4" points="101.54 42.73 99.76 42.73 99.53 44.18 101.31 44.18 101.54 42.73"/><path class="cls-4" d="M179.06,49.05c.6,0,1.32,0,1.54,0s.36-.08.4-.29l.34-2.17H178a12.73,12.73,0,0,1,1.57,2.13Z"/><polygon class="cls-4" points="90.02 62.55 94.62 62.55 94.72 61.9 90.12 61.9 90.02 62.55"/><path class="cls-4" d="M283.56,80.63V71.56a2.08,2.08,0,0,1,2.08-2.09,2,2,0,0,1,1,.27V67.05a3.25,3.25,0,0,1-.89.14A3,3,0,0,1,283,65.43l-19.72,35.19h9.07Z"/><path class="cls-4" d="M294.14,88.07,292.24,87a2.09,2.09,0,0,1-.83-2.83,1.3,1.3,0,0,1,.15-.23l-3.17-1.77L278,100.62h9.06Z"/><polygon class="cls-4" points="184.35 37.94 180.01 37.94 179.91 38.59 184.25 38.59 184.35 37.94"/><polygon class="cls-4" points="102.13 38.98 100.35 38.98 100.13 40.37 101.91 40.37 102.13 38.98"/><path class="cls-4" d="M319.21,53.48l4.05,2.34a5.45,5.45,0,0,1,2.27,2.55l5.92-10.56a9.69,9.69,0,0,1-.45-2.92,9.58,9.58,0,0,1,7.32-9.34L343,27.2V11Z"/><path class="cls-4" d="M308.06,47l6.85,4L341,4.44A10.61,10.61,0,0,0,334.31.19Z"/><polygon class="cls-4" points="200.17 38.86 198.21 38.86 198.04 39.94 200 39.94 200.17 38.86"/><polygon class="cls-4" points="204.92 38.86 202.69 38.86 202.52 39.94 204.75 39.94 204.92 38.86"/><polygon class="cls-4" points="174.55 63.23 171.15 63.23 170.47 67.53 173.87 67.53 174.55 63.23"/><path class="cls-4" d="M72,100.62H242.86L299.24,0H94.63a21.2,21.2,0,0,1-1,2.31l-14.13,28a21.48,21.48,0,0,1-28.8,9.62l-.24-.13a22.34,22.34,0,0,1-5.31-3.88,21.69,21.69,0,0,1-8.24,4.23,21.11,21.11,0,0,1-7.59.62A21.82,21.82,0,0,1,22.88,39c-.35-.15-.7-.28-1-.45l-.24-.12c-.33-.18-.64-.38-1-.56a21.36,21.36,0,0,1-3.29-2.37,21.78,21.78,0,0,1-1.88-1.84,22.18,22.18,0,0,1-2.65-3.63,23.18,23.18,0,0,1-1.39-2.83,22.1,22.1,0,0,1-1.3-11.89A22,22,0,0,1,12.2,9.11L16.8,0H10A10,10,0,0,0,0,10V22C12.9,53.67,38.41,81.06,72,100.62Zm26-27.23c.8-.16,1.75-.36,2.79-.59l.67-4.21h-2l.41-2.6h2l.47-3H100l.41-2.62h7.14L107.14,63H105l-.48,3h1.72l-.41,2.6h-1.72l-.56,3.54c.71-.15,1.42-.33,2.11-.51l0,2.57c-2.59.66-5.4,1.35-7.59,1.9Zm15.5,4.24h-1.24c-1.78,0-2.4-.53-2.1-2.41l.25-1.52A14.8,14.8,0,0,1,105.1,78a8,8,0,0,0-1.46-2,11.85,11.85,0,0,0,7.09-9.67l.43-2.72h2.62l-.44,2.78a18.31,18.31,0,0,1-1.26,4.36h1.33l-.67,4.19c-.08.51,0,.68.37.68h.64c.43,0,.64-.58,1.08-3a5.25,5.25,0,0,0,2,1C116.14,76.65,115.6,77.63,113.43,77.63Zm2.94-7h-2.81l1.26-8h-4.45l-1.27,8h-2.68l1.65-10.43h10Zm1.2-19.06a8.36,8.36,0,0,0-.46-2.42c.72,0,1.72,0,2,0s.38-.06.42-.3l.19-1.19h-4.62l.38-2.37h4.61l.18-1.11h.45c.3-.18.58-.37.89-.59h-4.53l.34-2.17h6.88l.57-.14,1.41,1.35a34.44,34.44,0,0,1-3.4,2.49l0,.17h4.34l-.38,2.37h-4.34l-.2,1.29c-.19,1.19-.5,1.82-1.42,2.19A8.52,8.52,0,0,1,117.57,51.57Zm5.2,23H120l1.47-9.25H130l-1.23,7.78H123ZM134,74.5c-.26,1.6-.76,2.43-1.87,2.88a12.56,12.56,0,0,1-4.68.54,9.81,9.81,0,0,0-.72-3c1.3.1,3.08.08,3.55.08s.67-.14.73-.55l1.74-10.93h-12.7l.46-2.88h17.87l-.46,2.88h-2.19Zm18.88-5.77c-1.74,1-3.77,2.11-5.7,3l4.12-.06c-.31-.27-.64-.5-.94-.74l2.25-1.25a19.1,19.1,0,0,1,3.8,3.38L154,74.46a5.9,5.9,0,0,0-.62-.78l-1.75,0a30.35,30.35,0,0,1,4,2.54l-2.48,1.58a25.4,25.4,0,0,0-3.91-2.74l2.22-1.36-2.81.08L148,77.94h-2.81l.64-4.07-3.16.06,2.28.94a20.51,20.51,0,0,1-5.25,3A15,15,0,0,0,137.91,76,16,16,0,0,0,142.47,74l-3.73.06L139,71.8c1.08,0,2.33,0,3.68,0,.27-.12.55-.23.84-.37a24.46,24.46,0,0,0-2.93-2.11l2.23-1.49a9.18,9.18,0,0,1,.95.57c.48-.31.94-.66,1.39-1H141l1.18-7.47H157l-1.18,7.47h-5.09Zm10.35,9.21h-2.7l1-6.41a20.41,20.41,0,0,1-2.67,3.54,14.7,14.7,0,0,0-.9-2.82,21.3,21.3,0,0,0,3.7-4.75h-2.58l.42-2.64h3.09l.3-1.88c-.9.12-1.78.23-2.61.31a9.23,9.23,0,0,0-.39-2.21,39.53,39.53,0,0,0,7.36-1.64l1.1,2.35c-.85.27-1.74.49-2.68.7l-.37,2.36h2.5l-.42,2.64h-2.5l0,.24a32.44,32.44,0,0,1,2.39,2.58l-1.88,2.31a19.82,19.82,0,0,0-.95-2.17Zm3.9,0A14.89,14.89,0,0,0,165,76.28a12.92,12.92,0,0,0,3.27-4.66l2.71.65A19.26,19.26,0,0,1,167.14,77.92Zm6.19,0a20.54,20.54,0,0,0-1.41-5.45l2.65-.92a19.62,19.62,0,0,1,1.63,5.3Zm19.44-.27h-2.19c-2.44,0-3.06-.78-2.67-3.29l.53-3.36h-1.56c-1,3.11-2.51,5.59-7.71,7a6.48,6.48,0,0,0-1.23-2.46c4.26-1,5.24-2.59,5.91-4.58h-3.21l1.25-7.9h2.64a15.55,15.55,0,0,0-.92-2.72l2.71-1a13.44,13.44,0,0,1,1.28,3.4l-.88.36h3.45a26.25,26.25,0,0,0,2.48-3.7l2.89.88c-.74,1-1.51,2-2.23,2.81H196L194.7,71h-3.28l-.53,3.3c-.1.67,0,.75.59.75h1.41c.54,0,.71-.31,1.11-2.23a6.83,6.83,0,0,0,2.43,1.09C195.67,76.81,194.8,77.61,192.77,77.61Zm-18.25-31,.38-2.39h6.82l.12-.78h-6.3l.37-2.31h11.28l-.36,2.31h-2.11l-.13.78h2.54l-.37,2.39h-2.55l-.35,2.24c-.2,1.24-.52,1.91-1.42,2.29a7.51,7.51,0,0,1-3.15.41,8.76,8.76,0,0,0-.43-2.38l-1.67,1a13.29,13.29,0,0,0-1.75-2.66l1.58-1Zm42.41,20.77h-6.64c.71,3.54,2.53,6.4,5.9,7.78a15.83,15.83,0,0,0-2.54,2.7c-3.19-1.58-4.93-4.18-5.89-7.64a16.93,16.93,0,0,1-8.25,7.64,7,7,0,0,0-1.77-2.42,14.09,14.09,0,0,0,8.14-8.06h-6.47l.47-2.95h6.94c.41-1.72.66-3.44.94-5.07h3.13c-.28,1.62-.57,3.35-1,5.07h7.51Zm19.31,7.92a12.19,12.19,0,0,0-2.08,2.52c-3.62-.37-5.79-1.36-7.14-3.36-1.47,1.64-3.9,2.76-8.36,3.42a6.24,6.24,0,0,0-.95-2.38c4-.49,6-1.27,7.08-2.5h-6.41l.39-2.47H226c.09-.31.16-.62.25-1h3c-.09.34-.17.67-.26,1h7.47L236.07,73h-6.88C230.3,74.5,232.66,75.16,236.24,75.3Zm-9.38-5.75a8.15,8.15,0,0,0-1.1-2.35l-.37,2.37h-2.76l.45-2.82c-1.15.69-2.3,1.33-3.34,1.9L219,66.17c1.14-.49,2.81-1.33,4.52-2.19l.73-4.62H227l-.55,3.47a13.78,13.78,0,0,0,4.44-3.55l2.53.93c-.22.25-.43.5-.67.76h3.55l.48-.06,1.58.76C236.1,66.56,232,68.69,226.86,69.55Zm-3.53-18.33a27.45,27.45,0,0,0-3.76-2.66l2.32-1.41a28.6,28.6,0,0,1,3.92,2.5Zm.2,11.84-2.43,1.27a12,12,0,0,0-1.07-2.9l2.27-1.13A9.64,9.64,0,0,1,223.53,63.06ZM265.4,51.49h-2.62l.08-.52h-2.54l-.09.58h-2.5l1-6.1h7.67ZM249.5,39.62h2.25l.12-.8-1.92.45a18.73,18.73,0,0,0,.1-4.61l1.93-.43a19.61,19.61,0,0,1,.14,3.07L252.8,33h2.52l-.67,4.23c.43-1.06.83-2.25,1.1-3.19l2.15.45-.14.29h3.93L262,33h2.87l-.27,1.76h4.08L268.3,37h-4l-.13.83h3.19l-.4,2.5h1l-.31,2h-1l-.4,2.49H258.8l.3-1.92h1.82l.09-.57h-2.13c-.53,3-1.53,6.83-3.56,9.27A7.57,7.57,0,0,0,253.57,50a12.71,12.71,0,0,0,2.22-4.68L254,47.5c-.16-.45-.4-1-.68-1.62l-.9,5.67h-2.52l.66-4.18a12.78,12.78,0,0,1-1.62,2.19,14.18,14.18,0,0,0-.82-2.84A16.79,16.79,0,0,0,251,42.26h-1.88ZM230,38.7l.43-2.72h7.33l.49-3.11h3L240.69,36h7.59l-.43,2.72h-9.31c-.15.72-.33,1.45-.54,2.17h7.43s-.15.82-.26,1.19c-1.16,5.2-1.92,7.44-2.87,8.34a4,4,0,0,1-2.51,1.05,30.2,30.2,0,0,1-3.43,0,5.43,5.43,0,0,0-.57-2.8c1.31.12,2.68.12,3.28.12a1.6,1.6,0,0,0,1-.26c.53-.39,1.11-1.95,1.83-5h-4.79a14.55,14.55,0,0,1-7.63,8.19,7.13,7.13,0,0,0-1.63-2.42c5.58-2.45,6.67-6.61,7.51-10.62ZM209.28,45c1.16,0,2.49,0,3.94,0,.17-.07.36-.17.55-.27a30.5,30.5,0,0,0-2.72-1.94l2.08-1.54.83.47c.37-.26.77-.55,1.14-.84h-5.22l.34-2.12h7.25l.08-.47h-5.18l.31-2h5.18l.07-.47h-6.17l.31-2h6.18l.14-.86h2.85l-.13.86h6.55l-.32,2h-6.55l-.07.47h5.61l-.31,2H220.4l-.07.47h7.41l-.34,2.12h-6l1.66,1c-1.67,1-3.58,2.15-5.41,3.07l4.63-.08c-.38-.31-.74-.65-1.09-.92l2.2-1.41a19.92,19.92,0,0,1,3.83,3.62l-2.39,1.56a6,6,0,0,0-.6-.8l-5.25.14-.7,4.46h-2.81l.7-4.4c-2.69.05-5.16.11-7.12.13Zm3.49,2.19,2.46,1a21.59,21.59,0,0,1-5.31,3.15,15.79,15.79,0,0,0-1.8-1.94A15.42,15.42,0,0,0,212.77,47.23ZM199,33l2.57.49-.5.67h2.56l.53-.16,1.45,1.21c-.44.57-.95,1.19-1.49,1.78h3.79l-.76,4.81H204.1c0,.61.1,1.2.19,1.76a21.7,21.7,0,0,0,1.7-1.48l1.61,1.7a25.12,25.12,0,0,1-2.75,1.93,6,6,0,0,0,2.2,2.94,11.84,11.84,0,0,0-2.15,2.21c-2.3-1.82-3-5.07-3.16-9.06h-.33a13,13,0,0,1-1.19.8c2.69,2.64,1.92,6.77.28,8.1a3.36,3.36,0,0,1-2.33.9c-.39,0-.86,0-1.3,0a6.06,6.06,0,0,0-.13-2,26.31,26.31,0,0,1-2.64,1.23,7.67,7.67,0,0,0-1.14-2,22.81,22.81,0,0,0,6.37-3.05,2,2,0,0,0-.13-.39,29.7,29.7,0,0,1-4.55,2.27,7.66,7.66,0,0,0-.93-1.74A21.8,21.8,0,0,0,198.37,44a2.09,2.09,0,0,1-.2-.22A26.1,26.1,0,0,1,195.28,45a14.09,14.09,0,0,0-1.22-1.82,22.57,22.57,0,0,0,3.71-1.35h-2.56l.58-3.63a4.94,4.94,0,0,0-1.16-.88A15.12,15.12,0,0,0,199,33Zm-5,0,2.49.78a40.41,40.41,0,0,1-2.06,3.8l-2.22,14h-2.7L191,42.4q-.5.56-1,1.05a18.63,18.63,0,0,0-.83-3.12A25.78,25.78,0,0,0,194,33Zm-6.07.55-1.11,7h-10l1.11-7ZM174.52,33l2.52,1.1a27.76,27.76,0,0,1-6.16,5.06,15.42,15.42,0,0,0-1-2.42A17.67,17.67,0,0,0,174.52,33Zm-.07,4.28,2.31,1.06a28.46,28.46,0,0,1-2.16,2.5l-1.7,10.72h-2.75l1.22-7.69c-.57.47-1.12.9-1.67,1.27a18.17,18.17,0,0,0-.82-3A23.41,23.41,0,0,0,174.45,37.29Zm3.36,23.24-1.53,9.7h-9l1.54-9.7ZM161.13,33a21.4,21.4,0,0,1,4.08,2.8l-1,1h4.33l-.43,2.7h-4.54l-.46,2.9h4L166.67,45h-4l-.53,3.3H167l-.42,2.7h-12.7l.43-2.7h5l.52-3.3h-3.93l.43-2.68h3.93l.46-2.9H156.1l.43-2.7h4.85c-.79-.61-1.61-1.19-2.45-1.72ZM155,33l2.5.86a40.72,40.72,0,0,1-2.32,3.64l-2.21,14h-2.7l1.57-9.91c-.5.52-1,1-1.56,1.48a16.2,16.2,0,0,0-1-2.95A25.13,25.13,0,0,0,155,33Zm-20.8,3.89.46-2.9h7.12c-.61,3.85-1.17,10.91,5.17,15a18.64,18.64,0,0,0-2.68,2.5,13,13,0,0,1-5.47-9.08,21.46,21.46,0,0,1-8.38,9.12,16.46,16.46,0,0,0-2.24-2.33c4.26-1.95,7.14-5.67,8.92-10.64l1.37.25c0-.66,0-1.31.05-1.91Zm-24.1,4,.4-2.5h5.1l.49-.88h-1.51l.17-1.06h-3.89l.39-2.48h3.89l.16-1h2.77l-.15,1h4l.15-1h2.78l-.15,1h4.06l-.39,2.48H124.3l-.17,1.06h-2.77l.16-1.06h-4l-.07.45,1.73.45c-.17.36-.37.7-.56,1h9.49l-.4,2.5H117a22.6,22.6,0,0,1-2,2.37l-1.33,8.37H111L112,45.9A16.9,16.9,0,0,1,110.23,47a12.9,12.9,0,0,0-1.43-2.4,15.53,15.53,0,0,0,4.9-3.68ZM89.32,45.53l-.13-2.76c.74-.12,1.63-.3,2.6-.51l.49-3.09H90.19l.41-2.6h2.1L93.26,33H96l-.56,3.56h1.27l-.32,2A21.55,21.55,0,0,0,99.81,33l2.61.68c-.44,1-.92,1.93-1.45,2.86h1.66A32,32,0,0,0,104.25,33l2.92.59c-.55,1-1.15,2-1.71,2.87h3l-.4,2.48h-3.3l-.22,1.39h2.78l-.38,2.37h-2.77l-.23,1.45h2.78l-.38,2.36h-2.78l-.23,1.51H107l-.42,2.56h-8.1l-.15.94H95.64l1.57-9.9c-.21.22-.42.41-.63.61a15.82,15.82,0,0,0-1.35-2.54c.2-.18.39-.36.57-.55H95l-.39,2.48,1.28-.29-.07,2.52c-.53.14-1.08.3-1.63.43l-.66,4.15c-.21,1.33-.52,2.07-1.32,2.52a6.3,6.3,0,0,1-3.2.57,10,10,0,0,0-.34-2.78c.7,0,1.48,0,1.73,0s.37-.1.41-.37L91.35,45ZM87.85,60h9.89l-1.1,7h-9.9ZM81,68.57l.48-3H79.56l.41-2.6H81.9l.56-3.56h2.59l-.57,3.56h1.84l-.41,2.6H84.07L83.69,68l1.71-.41,0,1.6.25-1.57H97.48l-.36,2.27H92.48l-.22,1.39H95.8l-.35,2.19H91.91l-.28,1.8a7.66,7.66,0,0,0,1.07,0c.76,0,3.09,0,4,0a9.55,9.55,0,0,0-1.15,2.49H92.2c-2.45,0-4.31-.43-5.3-2.64a10.8,10.8,0,0,1-2.36,2.81,12,12,0,0,0-1.8-1.68,10.4,10.4,0,0,0,3.57-6l2.51.32c-.2.66-.43,1.33-.66,1.93a3.67,3.67,0,0,0,.94,1.82l.71-4.46H85.37v.24l-2.1.57-.64,4c-.2,1.24-.48,1.94-1.22,2.37a5.53,5.53,0,0,1-2.94.55A8.58,8.58,0,0,0,78.18,75c.63,0,1.27,0,1.5,0s.33-.08.37-.34l.53-3.34L79,71.74,78.81,69C79.46,68.9,80.21,68.75,81,68.57ZM60.68,60.63H78.55l-.45,2.88H75.91l-1.75,11c-.25,1.6-.75,2.43-1.86,2.88a12.56,12.56,0,0,1-4.68.54,10.42,10.42,0,0,0-.72-3c1.3.1,3.08.08,3.55.08s.67-.14.73-.55l1.73-10.93H60.22Zm1,4.68h8.52l-1.23,7.78H63.16l-.23,1.47H60.17ZM13.78,44h3.33v3.33H13.78Z"/><path class="cls-4" d="M256.58,41.5l1-6.34c-.65,1.39-1.34,2.88-1.9,3.86l-1.25-.36-.16,1h2.12L256,42.26h-2.11l0,.14c.59.72,1.67,2.17,2,2.68C256.16,43.9,256.4,42.7,256.58,41.5Z"/><polygon class="cls-4" points="261.42 39.72 259.7 39.72 260 37.8 261.72 37.8 261.85 36.98 259.72 36.98 259.19 40.31 261.32 40.31 261.42 39.72"/><polygon class="cls-4" points="264.3 42.28 263.46 42.28 263.37 42.85 264.21 42.85 264.3 42.28"/><path class="cls-4" d="M220.28,40.88h-1.52c-1.08.73-2.19,1.45-3.13,2a8.19,8.19,0,0,1,.71.53C217.77,42.56,219.16,41.68,220.28,40.88Z"/><path class="cls-4" d="M198,49.26a1.05,1.05,0,0,0,.93-.41h0a1.93,1.93,0,0,0,.43-.78c-.65.41-1.32.8-2,1.17C197.58,49.26,197.8,49.26,198,49.26Z"/><path class="cls-4" d="M201.91,36.16h-2.49c-.26.27-.52.55-.79.82h2.54C201.4,36.75,201.66,36.45,201.91,36.16Z"/><polygon class="cls-4" points="89.64 64.97 94.24 64.97 94.34 64.33 89.74 64.33 89.64 64.97"/><path class="cls-4" d="M302,46.73a4.94,4.94,0,0,1,.7-.33l26-46.4h-9.06L289.4,54Z"/><path class="cls-4" d="M227.6,65a17.51,17.51,0,0,0-1.19-1.88l-.64,4.07a22.68,22.68,0,0,0,3.82-.77,14.9,14.9,0,0,0-1.16-1.58l2.21-1.21a14,14,0,0,1,1.42,1.74,8.83,8.83,0,0,0,2.46-2.05h-4.34A19.66,19.66,0,0,1,227.6,65Z"/><polygon class="cls-4" points="263.41 47.56 260.86 47.56 260.66 48.85 263.2 48.85 263.41 47.56"/><polygon class="cls-4" points="100.93 46.55 99.15 46.55 98.92 48.05 100.7 48.05 100.93 46.55"/><polygon class="cls-4" points="264.7 39.72 263.86 39.72 263.77 40.31 264.61 40.31 264.7 39.72"/><polygon class="cls-4" points="66.92 68.01 63.97 68.01 63.59 70.39 66.54 70.39 66.92 68.01"/><polygon class="cls-4" points="192.43 65.56 184.43 65.56 183.97 68.46 191.97 68.46 192.43 65.56"/><polygon class="cls-4" points="144.37 62.65 147.58 62.65 147.68 62.02 144.47 62.02 144.37 62.65"/><path class="cls-4" d="M148.83,67.5c-1.12.74-2.29,1.45-3.31,2l.71.57a43.93,43.93,0,0,0,4.45-2.7h-2.09Z"/><polygon class="cls-4" points="143.96 65.27 147.16 65.27 147.26 64.62 144.06 64.62 143.96 65.27"/><polygon class="cls-4" points="149.92 65.27 153.3 65.27 153.41 64.62 150.02 64.62 149.92 65.27"/><polygon class="cls-4" points="150.33 62.65 153.72 62.65 153.82 62.02 150.43 62.02 150.33 62.65"/><polygon class="cls-4" points="257.61 100.62 313.99 0 304.92 0 248.54 100.62 257.61 100.62"/><polygon class="cls-4" points="123.43 70.39 126.38 70.39 126.76 68.01 123.81 68.01 123.43 70.39"/><path class="cls-5" d="M7.51,100A12.45,12.45,0,0,1,1.75,95c-.32-.3-.63-.61-.94-.92a10.61,10.61,0,0,0,7,6.18Z"/><path class="cls-1" d="M7.51,100c-2-1.65-3.92-3.33-5.76-5.06A12.45,12.45,0,0,0,7.51,100Z"/><path class="cls-5" d="M7.51,100c-2-1.65-3.92-3.33-5.76-5.06A12.45,12.45,0,0,0,7.51,100Z"/><path class="cls-3" d="M0,88.63V90A10.54,10.54,0,0,0,.81,94c.31.31.62.62.94.92A12.27,12.27,0,0,1,0,88.63Z"/><path class="cls-5" d="M0,88.63V90A10.54,10.54,0,0,0,.81,94c.31.31.62.62.94.92A12.27,12.27,0,0,1,0,88.63Z"/><path class="cls-3" d="M7.77,100.21a8.29,8.29,0,0,0,.86.21c-.38-.12-.76-.26-1.12-.41Z"/><path class="cls-5" d="M7.77,100.21a8.29,8.29,0,0,0,.86.21c-.38-.12-.76-.26-1.12-.41Z"/><path class="cls-1" d="M7.51,100c.36.15.74.29,1.12.41a10.4,10.4,0,0,0,2,.2h3.13v-3h3.33v3H37.67A22.69,22.69,0,0,0,40.89,91,139.08,139.08,0,0,1,16.55,64.47c-.84-.07-1.69-.11-2.55-.11A28.94,28.94,0,0,0,0,67.9V88.63A12.27,12.27,0,0,0,1.75,95C3.59,96.68,5.52,98.36,7.51,100Zm6.27-34.55h3.33v3.33H13.78Zm0,10.72h3.33v3.34H13.78Zm0,10.73h3.33v3.33H13.78Z"/><path class="cls-3" d="M7.51,100c.36.15.74.29,1.12.41a10.4,10.4,0,0,0,2,.2h3.13v-3h3.33v3H37.67A22.69,22.69,0,0,0,40.89,91,139.08,139.08,0,0,1,16.55,64.47c-.84-.07-1.69-.11-2.55-.11A28.94,28.94,0,0,0,0,67.9V88.63A12.27,12.27,0,0,0,1.75,95C3.59,96.68,5.52,98.36,7.51,100Zm6.27-34.55h3.33v3.33H13.78Zm0,10.72h3.33v3.34H13.78Zm0,10.73h3.33v3.33H13.78Z"/><path class="cls-5" d="M7.51,100c.36.15.74.29,1.12.41a10.4,10.4,0,0,0,2,.2h3.13v-3h3.33v3H37.67A22.69,22.69,0,0,0,40.89,91,139.08,139.08,0,0,1,16.55,64.47c-.84-.07-1.69-.11-2.55-.11A28.94,28.94,0,0,0,0,67.9V88.63A12.27,12.27,0,0,0,1.75,95C3.59,96.68,5.52,98.36,7.51,100Zm6.27-34.55h3.33v3.33H13.78Zm0,10.72h3.33v3.34H13.78Zm0,10.73h3.33v3.33H13.78Z"/><path class="cls-1" d="M16.55,64.47A139.08,139.08,0,0,0,40.89,91c.07-.7.11-1.42.11-2.15C41,76.1,30.26,65.64,16.55,64.47Z"/><path class="cls-2" d="M16.55,64.47A139.08,139.08,0,0,0,40.89,91c.07-.7.11-1.42.11-2.15C41,76.1,30.26,65.64,16.55,64.47Z"/><path class="cls-3" d="M16.55,64.47A139.08,139.08,0,0,0,40.89,91c.07-.7.11-1.42.11-2.15C41,76.1,30.26,65.64,16.55,64.47Z"/><path class="cls-5" d="M16.55,64.47A139.08,139.08,0,0,0,40.89,91c.07-.7.11-1.42.11-2.15C41,76.1,30.26,65.64,16.55,64.47Z"/><path class="cls-4" d="M331,44.89a9.69,9.69,0,0,0,.45,2.92l6.87-12.26A9.58,9.58,0,0,0,331,44.89Z"/><path class="cls-5" d="M331,44.89a9.69,9.69,0,0,0,.45,2.92l6.87-12.26A9.58,9.58,0,0,0,331,44.89Z"/><path class="cls-4" d="M340.5,54.49a9,9,0,0,0,2.09-.24l.41-.73V37.34l-8.43,15A9.44,9.44,0,0,0,340.5,54.49Z"/><path class="cls-5" d="M340.5,54.49a9,9,0,0,0,2.09-.24l.41-.73V37.34l-8.43,15A9.44,9.44,0,0,0,340.5,54.49Z"/><ellipse class="cls-6" cx="50.9" cy="35.3" rx="1.6" ry="1.62"/><ellipse class="cls-6" cx="59.56" cy="35.3" rx="1.6" ry="1.62"/><ellipse class="cls-6" cx="68.22" cy="35.3" rx="1.6" ry="1.62"/><path class="cls-6" d="M58.92,27.52a1.61,1.61,0,1,0-1.61,1.62A1.61,1.61,0,0,0,58.92,27.52Z"/><path class="cls-6" d="M66,25.9a1.62,1.62,0,1,0,1.61,1.62A1.61,1.61,0,0,0,66,25.9Z"/><path class="cls-6" d="M74.63,25.9a1.62,1.62,0,1,0,1.6,1.62A1.6,1.6,0,0,0,74.63,25.9Z"/><path class="cls-6" d="M54.6,21.12a1.6,1.6,0,0,0,.79-1.38.77.77,0,0,0,0-.15Z"/><ellipse class="cls-6" cx="62.44" cy="19.74" rx="1.6" ry="1.62"/><ellipse class="cls-6" cx="71.1" cy="19.74" rx="1.6" ry="1.62"/><ellipse class="cls-6" cx="79.76" cy="19.74" rx="1.6" ry="1.62"/><ellipse class="cls-6" cx="65.65" cy="11.95" rx="1.6" ry="1.62"/><ellipse class="cls-6" cx="74.31" cy="11.95" rx="1.6" ry="1.62"/><ellipse class="cls-6" cx="82.97" cy="11.95" rx="1.6" ry="1.62"/><path class="cls-6" d="M62.57,5.35a1.59,1.59,0,0,0,.49-1Z"/><path class="cls-6" d="M70.14,5.79a1.62,1.62,0,1,0-1.6-1.62A1.6,1.6,0,0,0,70.14,5.79Z"/><path class="cls-6" d="M78.8,5.79a1.62,1.62,0,1,0-1.6-1.62A1.61,1.61,0,0,0,78.8,5.79Z"/><path class="cls-6" d="M87.46,5.79a1.62,1.62,0,1,0-1.61-1.62A1.61,1.61,0,0,0,87.46,5.79Z"/><path class="cls-1" d="M10.14,15.35,17.85,0H16.8L12.2,9.11A22,22,0,0,0,10.14,15.35Z"/><path class="cls-1" d="M11.44,27.24,25.13,0H20.65L10,21.29A21.73,21.73,0,0,0,11.44,27.24Z"/><path class="cls-1" d="M36.91,40.11a21.63,21.63,0,0,0,5.69-2.42L61.53,0H57.06Z"/><path class="cls-1" d="M29.32,40.73a21.73,21.73,0,0,0,4.49,0L54.25,0H49.78Z"/><path class="cls-1" d="M15.48,33.7,32.41,0H27.93L12.83,30.07A22.18,22.18,0,0,0,15.48,33.7Z"/><path class="cls-1" d="M20.65,37.91,39.69,0H35.21L17.36,35.54A21.36,21.36,0,0,0,20.65,37.91Z"/><path class="cls-1" d="M26.72,40.3,47,0H42.49L22.88,39A21,21,0,0,0,26.72,40.3Z"/><path class="cls-1" d="M47.42,33.67a21.51,21.51,0,0,1-2.27,2.21,22.34,22.34,0,0,0,5.31,3.88l.24.13a21.48,21.48,0,0,0,28.8-9.62l14.13-28a21.2,21.2,0,0,0,1-2.31H64.34Zm3.48,3.25a1.62,1.62,0,1,1,1.6-1.62A1.61,1.61,0,0,1,50.9,36.92Zm3.7-15.8.77-1.53a.77.77,0,0,1,0,.15A1.6,1.6,0,0,1,54.6,21.12Zm1.11,6.4a1.61,1.61,0,1,1,1.6,1.62A1.61,1.61,0,0,1,55.71,27.52Zm3.85,9.4a1.62,1.62,0,1,1,1.6-1.62A1.61,1.61,0,0,1,59.56,36.92Zm2.88-15.56a1.63,1.63,0,1,1,1.61-1.62A1.62,1.62,0,0,1,62.44,21.36Zm.13-16,.49-1A1.59,1.59,0,0,1,62.57,5.35Zm24.89-2.8a1.62,1.62,0,1,1-1.61,1.62A1.62,1.62,0,0,1,87.46,2.55ZM83,10.33A1.62,1.62,0,1,1,81.36,12,1.62,1.62,0,0,1,83,10.33Zm-1.61,9.41a1.6,1.6,0,1,1-1.6-1.63A1.61,1.61,0,0,1,81.36,19.74ZM78.8,2.55a1.62,1.62,0,1,1-1.6,1.62A1.62,1.62,0,0,1,78.8,2.55ZM74.63,29.14a1.62,1.62,0,1,1,1.6-1.62A1.61,1.61,0,0,1,74.63,29.14Zm-.32-18.81A1.62,1.62,0,1,1,72.71,12,1.62,1.62,0,0,1,74.31,10.33Zm-1.6,9.41a1.61,1.61,0,1,1-1.61-1.63A1.62,1.62,0,0,1,72.71,19.74ZM70.14,2.55a1.62,1.62,0,1,1-1.6,1.62A1.61,1.61,0,0,1,70.14,2.55ZM69.82,35.3a1.61,1.61,0,1,1-1.6-1.62A1.61,1.61,0,0,1,69.82,35.3ZM66,29.14a1.62,1.62,0,1,1,1.61-1.62A1.62,1.62,0,0,1,66,29.14ZM67.25,12a1.6,1.6,0,1,1-1.6-1.62A1.6,1.6,0,0,1,67.25,12Z"/><path class="cls-7" d="M10,21.29,20.65,0h-2.8L10.14,15.35A21.54,21.54,0,0,0,10,21.29Z"/><path class="cls-7" d="M12.83,30.07,27.93,0h-2.8L11.44,27.24A23.18,23.18,0,0,0,12.83,30.07Z"/><path class="cls-7" d="M17.36,35.54,35.21,0h-2.8L15.48,33.7A21.78,21.78,0,0,0,17.36,35.54Z"/><path class="cls-7" d="M21.6,38.47l.24.12c.34.17.69.3,1,.45L42.49,0h-2.8l-19,37.91C21,38.09,21.27,38.29,21.6,38.47Z"/><path class="cls-7" d="M26.72,40.3a21,21,0,0,0,2.6.43L49.78,0H47Z"/><path class="cls-7" d="M33.81,40.7a21.73,21.73,0,0,0,3.1-.59L57.06,0H54.25Z"/><path class="cls-7" d="M42.6,37.69a20.36,20.36,0,0,0,4.82-4L64.34,0H61.53Z"/><polygon class="cls-7" points="248.54 100.62 304.92 0 299.24 0 242.86 100.62 248.54 100.62"/><path class="cls-7" d="M263.29,100.62,283,65.43a3,3,0,0,1,.55-3.36v-1.5a5.48,5.48,0,0,1,2.74-4.75L289.4,54,319.67,0H314L257.61,100.62Z"/><path class="cls-7" d="M307.52,46.73l.54.31L334.31.19a10.51,10.51,0,0,0-2-.19h-3.62l-26,46.4A5.51,5.51,0,0,1,307.52,46.73Z"/><path class="cls-7" d="M287.52,81.67a2.08,2.08,0,0,1-1.87,1.18h0a2.08,2.08,0,0,1-2.08-2.08h0v-.13l-11.2,20H278l10.35-18.46Z"/><polygon class="cls-7" points="298.45 90.53 294.14 88.07 287.11 100.62 292.79 100.62 298.45 90.53"/><path class="cls-7" d="M314.91,51l4.3,2.48L343,11v-.36a10.59,10.59,0,0,0-2-6.21Z"/><path class="cls-7" d="M307.52,92.58a5.54,5.54,0,0,1-1.48.57l-4.18,7.47h5.68l6.68-11.91Z"/><path class="cls-7" d="M331.45,47.81l-5.92,10.56A5.41,5.41,0,0,1,326,60.2c0,.07,0,.13,0,.19s0,0,0,0,0,.08,0,.12v7.12l8.57-15.29,8.43-15V27.2l-4.68,8.35Z"/><polygon class="cls-7" points="316.61 100.62 322.3 100.62 324.72 96.3 343 63.67 343 53.52 342.59 54.25 316.61 100.62"/><path class="cls-7" d="M331.36,100.62h1a10.7,10.7,0,0,0,5.59-1.6l.41-.74,4.54-8.1L343,90V79.85l-3.29,5.88Z"/><path class="cls-6" d="M90.4,48.81c-.25,0-1,0-1.73,0A10,10,0,0,1,89,51.55a6.3,6.3,0,0,0,3.2-.57c.8-.45,1.11-1.19,1.32-2.52l.66-4.15c.55-.13,1.1-.29,1.63-.43l.07-2.52-1.28.29L95,39.17h.8c-.18.19-.37.37-.57.55a15.82,15.82,0,0,1,1.35,2.54c.21-.2.42-.39.63-.61l-1.57,9.9h2.72l.15-.94h8.1l.42-2.56h-3.7l.23-1.51h2.78l.38-2.36h-2.78l.23-1.45h2.77l.38-2.37h-2.78l.22-1.39h3.3l.4-2.48h-3c.56-.9,1.16-1.9,1.71-2.87L104.25,33a32,32,0,0,1-1.62,3.46H101c.53-.93,1-1.88,1.45-2.86L99.81,33a21.55,21.55,0,0,1-3.44,5.63l.32-2H95.42L96,33H93.26l-.56,3.56H90.6l-.41,2.6h2.09l-.49,3.09c-1,.21-1.86.39-2.6.51l.13,2.76,2-.51-.54,3.42C90.77,48.71,90.66,48.81,90.4,48.81ZM100.35,39h1.78l-.22,1.38h-1.78Zm-.59,3.75h1.78l-.23,1.45H99.53Zm-.61,3.82h1.78l-.23,1.5H98.92Z"/><path class="cls-6" d="M122.24,49l.2-1.29h4.34l.38-2.37h-4.34l0-.17a34.44,34.44,0,0,0,3.4-2.49l-1.41-1.35-.57.14h-6.88l-.34,2.17h4.53c-.31.22-.59.41-.89.59h-.45l-.18,1.11h-4.61l-.38,2.37h4.62l-.19,1.19c0,.24-.15.3-.42.3s-1.25,0-2,0a8.36,8.36,0,0,1,.46,2.42,8.52,8.52,0,0,0,3.25-.39C121.74,50.81,122.05,50.18,122.24,49Z"/><path class="cls-6" d="M108.8,44.56a12.9,12.9,0,0,1,1.43,2.4A16.9,16.9,0,0,0,112,45.9L111,51.61h2.68l1.33-8.37a22.6,22.6,0,0,0,2-2.37H127.7l.4-2.5h-9.49c.19-.34.39-.68.56-1l-1.73-.45.07-.45h4l-.16,1.06h2.77l.17-1.06h4.06l.39-2.48h-4.06l.15-1h-2.78l-.15,1h-4l.15-1h-2.77l-.16,1h-3.89l-.39,2.48h3.89l-.17,1.06h1.51l-.49.88h-5.1l-.4,2.5h3.62A15.53,15.53,0,0,1,108.8,44.56Z"/><path class="cls-6" d="M137.08,38.58c-1.78,5-4.66,8.69-8.92,10.64a16.46,16.46,0,0,1,2.24,2.33,21.46,21.46,0,0,0,8.38-9.12,13,13,0,0,0,5.47,9.08,18.64,18.64,0,0,1,2.68-2.5c-6.34-4.07-5.78-11.13-5.17-15h-7.12l-.46,2.9h4.32c0,.6-.06,1.25-.05,1.91Z"/><path class="cls-6" d="M151.82,41.6l-1.57,9.91H153l2.21-14a40.72,40.72,0,0,0,2.32-3.64L155,33a25.13,25.13,0,0,1-5.7,7.1,16.2,16.2,0,0,1,1,2.95C150.8,42.62,151.32,42.12,151.82,41.6Z"/><path class="cls-6" d="M156.53,36.71l-.43,2.7h4.56l-.46,2.9h-3.93L155.84,45h3.93l-.52,3.3h-5l-.43,2.7h12.7l.42-2.7h-4.83l.53-3.3h4l.43-2.68h-4l.46-2.9h4.54l.43-2.7h-4.33l1-1a21.4,21.4,0,0,0-4.08-2.8l-2.2,2c.84.53,1.66,1.11,2.45,1.72Z"/><path class="cls-6" d="M186.82,40.54l1.11-7H178l-1.11,7Zm-6.42-5h4.34l-.1.62H180.3ZM180,37.94h4.34l-.1.65h-4.34Z"/><path class="cls-6" d="M177.19,50.22l1.67-1a8.76,8.76,0,0,1,.43,2.38,7.51,7.51,0,0,0,3.15-.41c.9-.38,1.22-1,1.42-2.29l.35-2.24h2.55l.37-2.39h-2.54l.13-.78h2.11l.36-2.31H175.91l-.37,2.31h6.3l-.12.78H174.9l-.38,2.39H177l-1.58,1A13.29,13.29,0,0,1,177.19,50.22Zm4.15-3.61L181,48.78c0,.21-.13.27-.4.29s-.94,0-1.54,0l.47-.31A12.73,12.73,0,0,0,178,46.61Z"/><path class="cls-6" d="M171.37,43.88l-1.22,7.69h2.75l1.7-10.72a28.46,28.46,0,0,0,2.16-2.5l-2.31-1.06a23.41,23.41,0,0,1-5.57,4.89,18.17,18.17,0,0,1,.82,3C170.25,44.78,170.8,44.35,171.37,43.88Z"/><path class="cls-6" d="M177,34.11,174.52,33a17.67,17.67,0,0,1-4.64,3.74,15.42,15.42,0,0,1,1,2.42A27.76,27.76,0,0,0,177,34.11Z"/><path class="cls-6" d="M191,42.4l-1.45,9.15h2.7l2.22-14a40.41,40.41,0,0,0,2.06-3.8L194,33a25.78,25.78,0,0,1-4.86,7.34,18.63,18.63,0,0,1,.83,3.12Q190.47,43,191,42.4Z"/><path class="cls-6" d="M195.79,38.16l-.58,3.63h2.56a22.57,22.57,0,0,1-3.71,1.35A14.09,14.09,0,0,1,195.28,45a26.1,26.1,0,0,0,2.89-1.23,2.09,2.09,0,0,0,.2.22,21.8,21.8,0,0,1-4.65,1.95,7.66,7.66,0,0,1,.93,1.74,29.7,29.7,0,0,0,4.55-2.27,2,2,0,0,1,.13.39A22.81,22.81,0,0,1,193,48.81a7.67,7.67,0,0,1,1.14,2,26.31,26.31,0,0,0,2.64-1.23,6.06,6.06,0,0,1,.13,2c.44,0,.91,0,1.3,0a3.36,3.36,0,0,0,2.33-.9c1.64-1.33,2.41-5.46-.28-8.1a13,13,0,0,0,1.19-.8h.33c.13,4,.86,7.24,3.16,9.06a11.84,11.84,0,0,1,2.15-2.21,6,6,0,0,1-2.2-2.94,25.12,25.12,0,0,0,2.75-1.93L206,42.07a21.7,21.7,0,0,1-1.7,1.48c-.09-.56-.15-1.15-.19-1.76h3.08l.76-4.81h-3.79c.54-.59,1-1.21,1.49-1.78L204.19,34l-.53.16H201.1l.5-.67L199,33a15.12,15.12,0,0,1-4.4,4.29A4.94,4.94,0,0,1,195.79,38.16Zm3.13,10.69h0a1.05,1.05,0,0,1-.93.41c-.19,0-.41,0-.64,0,.68-.37,1.35-.76,2-1.17A1.93,1.93,0,0,1,198.92,48.85Zm3.77-10h2.23l-.17,1.08h-2.23Zm-3.27-2.7h2.49c-.25.29-.51.59-.74.82h-2.54C198.9,36.71,199.16,36.43,199.42,36.16Zm-1.21,2.7h2L200,39.93h-2Z"/><path class="cls-6" d="M215.47,51.52h2.81l.7-4.46,5.25-.14a6,6,0,0,1,.6.8l2.39-1.56a19.92,19.92,0,0,0-3.83-3.62L221.19,44c.35.27.71.61,1.09.92l-4.63.08c1.83-.92,3.74-2,5.41-3.07l-1.66-1h6l.34-2.12h-7.41l.07-.47H226l.31-2h-5.61l.07-.47h6.55l.32-2h-6.55l.13-.86h-2.85l-.14.86h-6.18l-.31,2h6.17l-.07.47h-5.18l-.31,2h5.18l-.08.47h-7.25l-.34,2.12h5.22c-.37.29-.77.58-1.14.84l-.83-.47-2.08,1.54a30.5,30.5,0,0,1,2.72,1.94c-.19.1-.38.2-.55.27-1.45,0-2.78,0-3.94,0l-.23,2.21c2,0,4.43-.08,7.12-.13Zm.16-8.67c.94-.53,2.05-1.25,3.13-2h1.52c-1.12.8-2.51,1.68-3.94,2.5A8.19,8.19,0,0,0,215.63,42.85Z"/><path class="cls-6" d="M221.89,47.15l-2.32,1.41a27.45,27.45,0,0,1,3.76,2.66l2.48-1.57A28.6,28.6,0,0,0,221.89,47.15Z"/><path class="cls-6" d="M209.92,51.38a21.59,21.59,0,0,0,5.31-3.15l-2.46-1a15.42,15.42,0,0,1-4.65,2.21A15.79,15.79,0,0,1,209.92,51.38Z"/><path class="cls-6" d="M227.87,49.32a7.13,7.13,0,0,1,1.63,2.42,14.55,14.55,0,0,0,7.63-8.19h4.79c-.72,3.05-1.3,4.61-1.83,5a1.6,1.6,0,0,1-1,.26c-.6,0-2,0-3.28-.12a5.43,5.43,0,0,1,.57,2.8,30.2,30.2,0,0,0,3.43,0,4,4,0,0,0,2.51-1.05c.95-.9,1.71-3.14,2.87-8.34.11-.37.26-1.19.26-1.19H238c.21-.72.39-1.45.54-2.17h9.31l.43-2.72h-7.59l.49-3.11h-3L237.74,36h-7.33L230,38.7h5.4C234.54,42.71,233.45,46.87,227.87,49.32Z"/><path class="cls-6" d="M257.73,51.55h2.5l.09-.58h2.54l-.08.52h2.62l1-6h-7.67Zm3.13-4h2.55l-.21,1.29h-2.54Z"/><path class="cls-6" d="M248.08,46.72a14.18,14.18,0,0,1,.82,2.84,12.78,12.78,0,0,0,1.62-2.19l-.66,4.18h2.52l.9-5.67c.28.59.52,1.17.68,1.62l1.83-2.17A12.71,12.71,0,0,1,253.57,50a7.57,7.57,0,0,1,1.75,1.54c2-2.44,3-6.31,3.56-9.27H261l-.09.57H259.1l-.3,1.92h7.45l.4-2.49h1l.31-2h-1l.4-2.5h-3.19l.13-.83h4l.35-2.23h-4.08l.27-1.76H262l-.28,1.76h-3.93l.14-.29L255.75,34c-.27.94-.67,2.13-1.1,3.19l.67-4.23H252.8l-.68,4.33a19.61,19.61,0,0,0-.14-3.07l-1.93.43a18.73,18.73,0,0,1-.1,4.61l1.92-.45-.12.8H249.5l-.42,2.64H251A16.79,16.79,0,0,1,248.08,46.72Zm15.78-7h.84l-.09.59h-.84Zm-.4,2.56h.84l-.09.57h-.84ZM259.72,37h2.13l-.13.82H260l-.3,1.92h1.72l-.09.59h-2.14Zm-5.86,5.28H256l.42-2.64h-2.12l.16-1,1.25.36c.56-1,1.25-2.47,1.9-3.86l-1,6.34c-.18,1.2-.42,2.4-.72,3.58-.35-.51-1.43-2-2-2.68Z"/><path class="cls-1" d="M304.69,89.12a1.28,1.28,0,0,0,.74-.16l15.74-9.09a1.28,1.28,0,0,0,.65-1.13V65.84L307.51,74.1a4.89,4.89,0,0,1-.73.35v7.79a2.09,2.09,0,0,1-2.08,2.09h0Z"/><path class="cls-1" d="M291.64,65.86a2.08,2.08,0,0,1,2.84-.79l9.63,5.41h0a1.31,1.31,0,0,0,1.3,0l15.74-9.09a1.09,1.09,0,0,0,.64-.93,1.26,1.26,0,0,0-.64-1l-15.74-9.09a1.31,1.31,0,0,0-1.3,0l-15.75,9.09a1.3,1.3,0,0,0-.65,1.13v1.29a3,3,0,0,1,1.07,2.29c0,.06,0,.11,0,.17l2.85,1.57A0,0,0,0,0,291.64,65.86Z"/><path class="cls-6" d="M287.73,71.56v9.2a2.1,2.1,0,0,1-.21.91l.87.49,3.17,1.77a2.08,2.08,0,0,1,2.67-.61l.08,0,9.81,5.6h0a1.25,1.25,0,0,0,.56.16V84.33h0a2,2,0,0,1-.95-.24l-11.42-5.9a2.09,2.09,0,1,1,1.92-3.71l8.37,4.33V74.38a5.77,5.77,0,0,1-.56-.27l-9.61-5.41a2.08,2.08,0,0,1-.81-2.81l-2.85-1.57a3,3,0,0,1-2.13,2.73v2.69A2.08,2.08,0,0,1,287.73,71.56Z"/><path class="cls-8" d="M285.76,61.12a3,3,0,0,1,2,.74V60.57a1.3,1.3,0,0,1,.65-1.13l15.75-9.09a1.31,1.31,0,0,1,1.3,0l15.74,9.09a1.26,1.26,0,0,1,.64,1,1.09,1.09,0,0,1-.64.93l-15.74,9.09a1.31,1.31,0,0,1-1.3,0h0l-9.63-5.41a2.08,2.08,0,0,0-2.84.79,0,0,0,0,1,0,0,2.08,2.08,0,0,0,.81,2.81l9.61,5.41a5.77,5.77,0,0,0,.56.27v4.43l-8.37-4.33a2.09,2.09,0,1,0-1.92,3.71l11.42,5.9a2,2,0,0,0,.95.24h0a2.09,2.09,0,0,0,2.08-2.09V74.45a4.89,4.89,0,0,0,.73-.35l14.31-8.26v12.9a1.28,1.28,0,0,1-.65,1.13L305.43,89a1.28,1.28,0,0,1-.74.16,1.25,1.25,0,0,1-.56-.16h0l-9.81-5.6-.08,0a2.08,2.08,0,0,0-2.67.61,1.3,1.3,0,0,0-.15.23,2.09,2.09,0,0,0,.83,2.83l1.9,1.08,4.31,2.46,3.6,2a5.45,5.45,0,0,0,2.73.73,5.31,5.31,0,0,0,1.26-.16,5.54,5.54,0,0,0,1.48-.57l6.7-3.87,9-5.22A5.5,5.5,0,0,0,326,78.74V60.56s0-.08,0-.12,0,0,0,0,0-.12,0-.19a5.52,5.52,0,0,0-2.72-4.38l-4.05-2.34L314.91,51l-6.85-4-.54-.31a5.51,5.51,0,0,0-4.78-.33,4.94,4.94,0,0,0-.7.33L289.4,54l-3.1,1.79a5.48,5.48,0,0,0-2.74,4.75v1.5A3,3,0,0,1,285.76,61.12Z"/><path class="cls-8" d="M283.56,80.77a2.08,2.08,0,0,0,2.08,2.08h0a2.09,2.09,0,0,0,2.08-2.09v-9.2a2.08,2.08,0,0,0-1.08-1.82,2,2,0,0,0-1-.27,2.08,2.08,0,0,0-2.08,2.09v9.2Z"/><path class="cls-9" d="M285.76,67.19a3.25,3.25,0,0,0,.89-.14,3,3,0,0,0,2.13-2.73c0-.06,0-.11,0-.17a3,3,0,0,0-1.07-2.29,3,3,0,0,0-2-.74,3,3,0,0,0,0,6.07Z"/><path class="cls-6" d="M71.18,74.44c-.06.41-.26.55-.73.55s-2.25,0-3.55-.08a10.42,10.42,0,0,1,.72,3,12.56,12.56,0,0,0,4.68-.54c1.11-.45,1.61-1.28,1.86-2.88l1.75-11H78.1l.45-2.88H60.68l-.46,2.88H72.91Z"/><path class="cls-6" d="M63.16,73.09h5.77l1.23-7.78H61.64l-1.47,9.25h2.76ZM64,68h3l-.38,2.38h-3Z"/><path class="cls-6" d="M97.74,60H87.85l-1.11,7h9.9Zm-3.5,5h-4.6l.1-.64h4.6Zm.38-2.42H90l.1-.65h4.6Z"/><path class="cls-6" d="M80.58,71.33l-.53,3.34c0,.26-.13.34-.37.34s-.87,0-1.5,0a8.58,8.58,0,0,1,.29,2.62,5.53,5.53,0,0,0,2.94-.55c.74-.43,1-1.13,1.22-2.37l.64-4,2.1-.57v-.24h4.44L89.1,74.3a3.67,3.67,0,0,1-.94-1.82c.23-.6.46-1.27.66-1.93l-2.51-.32a10.4,10.4,0,0,1-3.57,6,12,12,0,0,1,1.8,1.68,10.8,10.8,0,0,0,2.36-2.81c1,2.21,2.85,2.64,5.3,2.64h3.4a9.55,9.55,0,0,1,1.15-2.49c-1,0-3.29,0-4,0a7.66,7.66,0,0,1-1.07,0l.28-1.8h3.54l.35-2.19H92.26l.22-1.39h4.64l.36-2.27H85.63l-.25,1.57,0-1.6L83.69,68l.38-2.41h1.84l.41-2.6H84.48l.57-3.56H82.46l-.56,3.56H80l-.41,2.6h1.93l-.48,3c-.8.18-1.55.33-2.2.45L79,71.74Z"/><path class="cls-6" d="M113.75,75.59h-.64c-.34,0-.45-.17-.37-.68l.67-4.19h-1.33a18.31,18.31,0,0,0,1.26-4.36l.44-2.78h-2.62l-.43,2.72A11.85,11.85,0,0,1,103.64,76a8,8,0,0,1,1.46,2,14.8,14.8,0,0,0,5.24-4.28l-.25,1.52c-.3,1.88.32,2.41,2.1,2.41h1.24c2.17,0,2.71-1,3.41-4a5.25,5.25,0,0,1-2-1C114.39,75,114.18,75.59,113.75,75.59Z"/><path class="cls-6" d="M105.67,71.62c-.69.18-1.4.36-2.11.51l.56-3.54h1.72l.41-2.6h-1.72l.48-3h2.13l.41-2.62h-7.14L100,63h2.27l-.47,3h-2l-.41,2.6h2l-.67,4.21c-1,.23-2,.43-2.79.59l.1,2.7c2.19-.55,5-1.24,7.59-1.9Z"/><polygon class="cls-6" points="106.42 70.63 109.1 70.63 110.36 62.63 114.82 62.63 113.56 70.63 116.37 70.63 118.02 60.2 108.07 60.2 106.42 70.63"/><path class="cls-6" d="M138.39,60.63H120.52l-.46,2.88h12.7L131,74.44c-.06.41-.26.55-.73.55s-2.25,0-3.55-.08a9.81,9.81,0,0,1,.72,3,12.56,12.56,0,0,0,4.68-.54c1.11-.45,1.61-1.28,1.87-2.88l1.73-11h2.19Z"/><path class="cls-6" d="M130,65.31h-8.52L120,74.56h2.76l.23-1.47h5.77Zm-3.62,5.08h-2.95L123.8,68h3Z"/><path class="cls-6" d="M157,59.91h-14.8L141,67.38h4.2c-.45.34-.91.69-1.39,1a9.18,9.18,0,0,0-.95-.57L140.6,69.3a24.46,24.46,0,0,1,2.93,2.11c-.29.14-.57.25-.84.37-1.35,0-2.6,0-3.68,0L138.74,74l3.73-.06A16,16,0,0,1,137.91,76a15,15,0,0,1,1.78,1.87,20.51,20.51,0,0,0,5.25-3l-2.28-.94,3.16-.06-.64,4.07H148l.66-4.12,2.81-.08-2.22,1.36a25.4,25.4,0,0,1,3.91,2.74l2.48-1.58a30.35,30.35,0,0,0-4-2.54l1.75,0a5.9,5.9,0,0,1,.62.78l2.42-1.39a19.1,19.1,0,0,0-3.8-3.38l-2.25,1.25c.3.24.63.47.94.74l-4.12.06c1.93-.9,4-2,5.7-3l-2.21-1.35a43.93,43.93,0,0,1-4.45,2.7l-.71-.57c1-.56,2.19-1.27,3.31-2l-.24-.12h7.18Zm-9.79,5.36H144l.1-.65h3.2Zm.42-2.62h-3.21l.1-.63h3.21Zm5.72,2.62h-3.38l.1-.65h3.38Zm.42-2.62h-3.39l.1-.63h3.39Z"/><path class="cls-6" d="M176.28,70.23l1.53-9.7h-8.95l-1.54,9.7Zm-5.13-7h3.4l-.68,4.3h-3.4Z"/><path class="cls-6" d="M165,76.28a14.89,14.89,0,0,1,2.15,1.64A19.26,19.26,0,0,0,171,72.27l-2.71-.65A12.92,12.92,0,0,1,165,76.28Z"/><path class="cls-6" d="M171.92,72.43a20.54,20.54,0,0,1,1.41,5.45l2.87-1.07a19.62,19.62,0,0,0-1.63-5.3Z"/><path class="cls-6" d="M167.26,70.31a32.44,32.44,0,0,0-2.39-2.58l0-.24h2.5l.42-2.64h-2.5l.37-2.36c.94-.21,1.83-.43,2.68-.7l-1.1-2.35a39.53,39.53,0,0,1-7.36,1.64,9.23,9.23,0,0,1,.39,2.21c.83-.08,1.71-.19,2.61-.31l-.3,1.88h-3.09l-.42,2.64h2.58a21.3,21.3,0,0,1-3.7,4.75,14.7,14.7,0,0,1,.9,2.82,20.41,20.41,0,0,0,2.67-3.54l-1,6.41h2.7l1.19-7.49a19.82,19.82,0,0,1,.95,2.17Z"/><path class="cls-6" d="M192.89,75h-1.41c-.61,0-.69-.08-.59-.75l.53-3.3h3.28l1.25-7.9h-2.64c.72-.84,1.49-1.84,2.23-2.81l-2.89-.88a26.25,26.25,0,0,1-2.48,3.7h-3.45l.88-.36a13.44,13.44,0,0,0-1.28-3.4l-2.71,1a15.55,15.55,0,0,1,.92,2.72h-2.64L180.64,71h3.21c-.67,2-1.65,3.6-5.91,4.58A6.48,6.48,0,0,1,179.17,78c5.2-1.45,6.73-3.93,7.71-7h1.56l-.53,3.36c-.39,2.51.23,3.29,2.67,3.29h2.19c2,0,2.9-.8,3.66-3.74A6.83,6.83,0,0,1,194,72.78C193.6,74.7,193.43,75,192.89,75ZM184,68.46l.46-2.9h8l-.46,2.9Z"/><path class="cls-6" d="M210.89,59.36h-3.13c-.28,1.63-.53,3.35-.94,5.07h-6.94l-.47,2.95h6.47a14.09,14.09,0,0,1-8.14,8.06,7,7,0,0,1,1.77,2.42,16.93,16.93,0,0,0,8.25-7.64c1,3.46,2.7,6.06,5.89,7.64a15.83,15.83,0,0,1,2.54-2.7c-3.37-1.38-5.19-4.24-5.9-7.78h6.64l.47-2.95h-7.51C210.32,62.71,210.61,61,210.89,59.36Z"/><path class="cls-6" d="M236.3,61h-3.55c.24-.26.45-.51.67-.76l-2.53-.93a13.78,13.78,0,0,1-4.44,3.55l.55-3.47h-2.75L223.52,64c-1.71.86-3.38,1.7-4.52,2.19l.74,2.48c1-.57,2.19-1.21,3.34-1.9l-.45,2.82h2.76l.37-2.37a8.15,8.15,0,0,1,1.1,2.35c5.09-.86,9.24-3,11.5-7.88l-1.58-.76Zm-4.24,4.4a14,14,0,0,0-1.42-1.74l-2.21,1.21a14.9,14.9,0,0,1,1.16,1.58,22.68,22.68,0,0,1-3.82.77l.64-4.07A17.51,17.51,0,0,1,227.6,65a19.66,19.66,0,0,0,2.58-1.68h4.34A8.83,8.83,0,0,1,232.06,65.37Z"/><path class="cls-6" d="M236.46,70.53H229c.09-.31.17-.64.26-1h-3c-.09.36-.16.67-.25,1h-7.25L218.38,73h6.41c-1.1,1.23-3,2-7.08,2.5a6.24,6.24,0,0,1,.95,2.38c4.46-.66,6.89-1.78,8.36-3.42,1.35,2,3.52,3,7.14,3.36a12.19,12.19,0,0,1,2.08-2.52c-3.58-.14-5.94-.8-7.05-2.31h6.88Z"/><path class="cls-6" d="M220,61.43a12,12,0,0,1,1.07,2.9l2.43-1.27a9.64,9.64,0,0,0-1.23-2.76Z"/><rect class="cls-4" x="13.78" y="44" width="3.33" height="3.33"/><rect class="cls-10" x="13.78" y="44" width="3.33" height="3.33"/><rect class="cls-1" x="13.78" y="54.73" width="3.33" height="3.33"/><rect class="cls-2" x="13.78" y="54.73" width="3.33" height="3.33"/><rect class="cls-3" x="13.78" y="54.73" width="3.33" height="3.33"/><rect class="cls-11" x="13.78" y="54.73" width="3.33" height="3.33"/><rect class="cls-1" x="13.78" y="65.46" width="3.33" height="3.33"/><rect class="cls-3" x="13.78" y="65.46" width="3.33" height="3.33"/><rect class="cls-5" x="13.78" y="65.46" width="3.33" height="3.33"/><rect class="cls-12" x="13.78" y="65.46" width="3.33" height="3.33"/><rect class="cls-1" x="13.78" y="76.18" width="3.33" height="3.33"/><rect class="cls-3" x="13.78" y="76.18" width="3.33" height="3.33"/><rect class="cls-5" x="13.78" y="76.18" width="3.33" height="3.33"/><rect class="cls-13" x="13.78" y="76.18" width="3.33" height="3.33"/><rect class="cls-1" x="13.78" y="86.91" width="3.33" height="3.33"/><rect class="cls-3" x="13.78" y="86.91" width="3.33" height="3.33"/><rect class="cls-5" x="13.78" y="86.91" width="3.33" height="3.33"/><rect class="cls-14" x="13.78" y="86.91" width="3.33" height="3.33"/><rect class="cls-1" x="13.78" y="100.62" width="3.33" height="0.35"/><rect class="cls-3" x="13.78" y="100.62" width="3.33" height="0.35"/><rect class="cls-1" x="13.78" y="97.64" width="3.33" height="2.98"/><rect class="cls-3" x="13.78" y="97.64" width="3.33" height="2.98"/><rect class="cls-5" x="13.78" y="97.64" width="3.33" height="2.98"/><rect class="cls-3" x="13.78" y="97.64" width="3.33" height="2.98"/></g></g></svg>