<svg xmlns="http://www.w3.org/2000/svg" viewBox="0 0 49.51 43.36"><defs><style>.cls-1{fill:#f7d235;}.cls-2{fill:#ff7600;}.cls-3{fill:#ff7e00;}</style></defs><g id="图层_2" data-name="图层 2"><g id="图层_1-2" data-name="图层 1"><g id="组_1158" data-name="组 1158"><path id="路径_1739" data-name="路径 1739" class="cls-1" d="M7.37,9.24a4.65,4.65,0,0,1,.41-1.83H4.6A2.81,2.81,0,0,1,1.83,4.64,2.81,2.81,0,0,1,4.6,1.87H29.52V4.64h1.83V.94a.92.92,0,0,0-.9-.94H4.6A4.61,4.61,0,0,0,0,4.6V32.29a6.49,6.49,0,0,0,6.47,6.47H7.66a6.66,6.66,0,0,1-.29-1.83ZM37.05,28.63H35.14a5.5,5.5,0,0,0,4.52,4.52V31.27a3.64,3.64,0,0,1-2.61-2.64Z"/><g id="组_922" data-name="组 922"><path id="路径_1740" data-name="路径 1740" class="cls-2" d="M40.51,31.56A5.51,5.51,0,0,1,36,27a7.45,7.45,0,0,1-.08-.94c0-.31,0-.63.08-.94a5.57,5.57,0,0,1,5.46-4.6h6.43V11.32a.92.92,0,0,0-.9-.94H12.78A2.8,2.8,0,0,1,10,7.61a2.72,2.72,0,0,1,.74-1.83,2.69,2.69,0,0,1,2-.94H37.7V8.55h1.83V4a.92.92,0,0,0-.9-.94H12.83A4.69,4.69,0,0,0,8.59,5.78a4.64,4.64,0,0,0-.4,1.83V35.3a5.43,5.43,0,0,0,.28,1.83,6.47,6.47,0,0,0,6.19,4.6H47a.92.92,0,0,0,.94-.9V31.55H41.41A2.1,2.1,0,0,1,40.51,31.56Z"/><path id="路径_1741" data-name="路径 1741" d="M47,43.36H14.66a8.07,8.07,0,0,1-7.74-5.71,7.22,7.22,0,0,1-.37-2.35V7.61a6.2,6.2,0,0,1,.54-2.47,6.31,6.31,0,0,1,5.74-3.75H38.6A2.54,2.54,0,0,1,41.17,3.9V8.76H47a2.52,2.52,0,0,1,2.56,2.51V22.19H41.45a4,4,0,0,0-3.85,3.22v.06q0,.32-.06.63a5.69,5.69,0,0,0,.07.71A3.86,3.86,0,0,0,40.77,30L41,30l.16-.05h8.33V40.8A2.53,2.53,0,0,1,47,43.36ZM9.81,10.85V35.3A4,4,0,0,0,10,36.59l0,.07a4.86,4.86,0,0,0,4.64,3.45h31.6V33.19H41.59a4.05,4.05,0,0,1-1.3,0h0a7.13,7.13,0,0,1-5.85-5.87,7.85,7.85,0,0,1-.1-1.19,7.28,7.28,0,0,1,.08-1l0-.17a7.17,7.17,0,0,1,7.07-6h4.8V12H12.79a4.37,4.37,0,0,1-3-1.16Zm3-4.38a1.08,1.08,0,0,0-.8.37l0,0a1.12,1.12,0,0,0-.31.73,1.17,1.17,0,0,0,1.14,1.14H36.07V6.47Z"/></g><path id="路径_1742" data-name="路径 1742" class="cls-3" d="M48.78,23.62H42.63A2.65,2.65,0,0,0,40,25.42a2.15,2.15,0,0,0,0,1.23,2.55,2.55,0,0,0,2,1.72,2.71,2.71,0,0,0,.69.08h6.12a.65.65,0,0,0,.69-.59V24.23a.68.68,0,0,0-.69-.61Z"/></g></g></g></svg>