<svg xmlns="http://www.w3.org/2000/svg" viewBox="0 0 101.69 92.53"><defs><style>.cls-1{fill:#f7d235;}.cls-2{fill:#ff7600;}.cls-3{fill:#74e9ff;}.cls-4{fill:#7f184c;}.cls-5{fill:#ffc71a;opacity:0.3;isolation:isolate;}</style></defs><g id="图层_2" data-name="图层 2"><g id="图层_1-2" data-name="图层 1"><g id="组_1088" data-name="组 1088"><g id="组_1087" data-name="组 1087"><path id="路径_1987" data-name="路径 1987" class="cls-1" d="M15.56,51.44A39.47,39.47,0,0,0,55,90.91h0A39.46,39.46,0,0,0,94.51,51.44h0A39.48,39.48,0,0,0,55,12h0A39.48,39.48,0,0,0,15.56,51.43h0Z"/><path id="路径_1988" data-name="路径 1988" class="cls-2" d="M63.49,85.09a39.48,39.48,0,0,1-26.4-68.82A39.48,39.48,0,1,0,81.44,80.78a39.32,39.32,0,0,1-17.95,4.31Z"/><path id="路径_1989" data-name="路径 1989" class="cls-3" d="M55.51,90.91V47.61A7.71,7.71,0,0,0,48.67,44a8.09,8.09,0,0,0-6.2,3.65V88.87M76.07,44a8.07,8.07,0,0,0-6.21,3.64V88a39.54,39.54,0,0,0,13-8.64V47.61A7.71,7.71,0,0,0,76.07,44Z"/><path id="路径_1990" data-name="路径 1990" class="cls-4" d="M85,50.62a1.59,1.59,0,0,1-1.4-.82,8.26,8.26,0,0,0-7.22-4.24,8.64,8.64,0,0,0-7.3,4.28,1.6,1.6,0,1,1-2.75-1.64,11.85,11.85,0,0,1,10.06-5.85,11.49,11.49,0,0,1,10,5.89,1.61,1.61,0,0,1-.62,2.18h0a1.4,1.4,0,0,1-.78.2Zm-27.89,0a1.61,1.61,0,0,1-1.4-.82,8.26,8.26,0,0,0-7.21-4.24,8.62,8.62,0,0,0-7.3,4.28,1.6,1.6,0,1,1-2.75-1.64,11.84,11.84,0,0,1,10.05-5.85,11.48,11.48,0,0,1,10,5.89,1.6,1.6,0,0,1-.62,2.18,1.44,1.44,0,0,1-.78.2Z"/><path id="路径_1991" data-name="路径 1991" class="cls-2" d="M55.51,69.94a7.17,7.17,0,0,0,7.18,7.17h0a7.17,7.17,0,0,0,7.17-7.17h0a7.18,7.18,0,0,0-7.17-7.18h0a7.17,7.17,0,0,0-7.18,7.18Z"/><path id="路径_1992" data-name="路径 1992" d="M66.91,50.4a1.61,1.61,0,0,0,2.2-.56,8.64,8.64,0,0,1,7.3-4.28,8.26,8.26,0,0,1,7.22,4.24,1.6,1.6,0,0,0,2.18.62h0a1.6,1.6,0,0,0,.62-2.18,11.46,11.46,0,0,0-10-5.89,11.85,11.85,0,0,0-10,5.84,1.6,1.6,0,0,0,.55,2.2ZM38.47,48.2a1.61,1.61,0,0,0,2.76,1.64,8.61,8.61,0,0,1,7.3-4.28,8.26,8.26,0,0,1,7.21,4.24,1.62,1.62,0,0,0,2.18.63h0a1.59,1.59,0,0,0,.62-2.18h0a11.46,11.46,0,0,0-10-5.89,11.85,11.85,0,0,0-10.05,5.84Zm18.65,6.45a1.61,1.61,0,0,0-3.21,0h0V80.14a1.6,1.6,0,0,0,1.6,1.6h0a1.61,1.61,0,0,0,1.61-1.6V76.72a8.76,8.76,0,0,0,11.14,0v.39a1.61,1.61,0,0,0,3.21,0h0V54.65A1.61,1.61,0,0,0,69.86,53h0a1.61,1.61,0,0,0-1.6,1.61v8.5a8.76,8.76,0,0,0-11.14,0Zm5.57,9.72a5.57,5.57,0,1,1-5.57,5.57,5.58,5.58,0,0,1,5.57-5.57Z"/><path id="路径_1993" data-name="路径 1993" d="M84.21,80.33A41.05,41.05,0,0,0,71,13.59a1.6,1.6,0,0,0-1.24,3A37.85,37.85,0,0,1,84.52,75.18V54.65a1.61,1.61,0,1,0-3.21,0v24A37.73,37.73,0,0,1,55,89.31a37.3,37.3,0,0,1-11-1.62v-33a1.61,1.61,0,0,0-1.61-1.6h0a1.61,1.61,0,0,0-1.61,1.6h0v31.9A37.86,37.86,0,0,1,55,13.57a1.61,1.61,0,1,0,0-3.21,41.08,41.08,0,0,0-13.21,80,1.42,1.42,0,0,0,.29.1A41,41,0,0,0,83.85,80.7a1.75,1.75,0,0,0,.36-.36Z"/><path id="路径_1994" data-name="路径 1994" d="M68.26,82.47a1.6,1.6,0,0,0,1.6,1.6h0a1.6,1.6,0,0,0,1.61-1.6h0a1.61,1.61,0,0,0-1.61-1.61h0a1.61,1.61,0,0,0-1.6,1.61Z"/><path id="路径_1995" data-name="路径 1995" d="M53.9,85.39a1.61,1.61,0,0,0,3.21,0h0a1.61,1.61,0,0,0-3.21,0Z"/><path id="路径_1996" data-name="路径 1996" d="M63,13.23a1.61,1.61,0,1,0,1.61-1.61h0A1.61,1.61,0,0,0,63,13.23Z"/></g><path id="路径_1997" data-name="路径 1997" class="cls-1" d="M11.42,73H7.84V69.45A1.39,1.39,0,0,0,6.46,68h0A1.4,1.4,0,0,0,5,69.41V73H1.42A1.4,1.4,0,0,0,0,74.41v0a1.4,1.4,0,0,0,1.38,1.42H5v3.58a1.4,1.4,0,0,0,1.38,1.42h0a1.39,1.39,0,0,0,1.42-1.38V75.87h3.58a1.4,1.4,0,0,0,1.42-1.38v0A1.43,1.43,0,0,0,11.42,73Z"/><path id="路径_1998" data-name="路径 1998" class="cls-1" d="M12.89,6.18l4.71,4.71a.86.86,0,0,0,1.21,0h0l4.71-4.71a.85.85,0,0,0,0-1.2V5L18.82.25a.85.85,0,0,0-1.2,0h0L12.89,5a.85.85,0,0,0,0,1.2Zm1.85-.58,3.5-3.5,3.5,3.5-3.5,3.5ZM93.3,11a1.21,1.21,0,0,0-1.22.25l-6,6a1.26,1.26,0,0,0-.34.78,1.12,1.12,0,0,0,.34.77l6,6A1.07,1.07,0,0,0,93.3,25,1.19,1.19,0,0,0,94,24V12.05a1.19,1.19,0,0,0-.68-1Zm-1.56,3.69v6.6L88.44,18Z"/><path id="路径_1999" data-name="路径 1999" class="cls-5" d="M93,76.48h8.7v8.69H93Z"/></g></g></g></svg>