<svg xmlns="http://www.w3.org/2000/svg" viewBox="0 0 22.07 23.42"><defs><style>.cls-1{fill:#fdd835;}.cls-2{fill:#fff;}.cls-3{fill:#141414;}.cls-4{fill:#da358c;}</style></defs><g id="图层_2" data-name="图层 2"><g id="图层_1-2" data-name="图层 1"><g id="方糖"><path id="路径_1479" data-name="路径 1479" class="cls-1" d="M2.16,6.87l9.36-5.68,9.6,5.68V17.48l-9.6,5.13v-9.2L2.4,8.48Z"/><g id="组_652" data-name="组 652"><g id="组_651" data-name="组 651"><path id="路径_1480" data-name="路径 1480" class="cls-2" d="M2.58,8.48v8.94l8.94,5v-9Z"/></g></g><g id="组_653" data-name="组 653"><path id="路径_1481-2" data-name="路径 1481-2" class="cls-3" d="M11.56,23.42a2.68,2.68,0,0,1-1.35-.36L5.35,20.29a1,1,0,0,1,1-1.8l4.85,2.77h0a.63.63,0,0,0,.65,0l7.8-4.5a.62.62,0,0,0,.32-.55v-9a.63.63,0,0,0-.32-.56l-7.8-4.5a.63.63,0,0,0-.65,0l-7.8,4.5a.63.63,0,0,0-.32.56V8.29A1,1,0,1,1,1,8.29V7.21A2.74,2.74,0,0,1,2.4,4.86L10.2.36a2.73,2.73,0,0,1,2.71,0l7.8,4.5a2.72,2.72,0,0,1,1.36,2.35v9a2.72,2.72,0,0,1-1.36,2.35l-7.8,4.5A2.65,2.65,0,0,1,11.56,23.42Z"/></g><g id="组_654" data-name="组 654"><path id="路径_1482" data-name="路径 1482" class="cls-3" d="M11.56,14.27a2.68,2.68,0,0,1-1.35-.36L5.45,11.24a1,1,0,0,1,1-1.8l4.77,2.68h0a.61.61,0,0,0,.64,0l7.8-4.5a.55.55,0,0,0,.33-.5,1,1,0,0,1,2.06,0,2.58,2.58,0,0,1-1.35,2.29l-7.8,4.5A2.69,2.69,0,0,1,11.56,14.27Z"/></g><g id="组_655" data-name="组 655"><path id="路径_1483" data-name="路径 1483" class="cls-3" d="M2.09,18.24a1,1,0,0,1-1-1V12.65a1,1,0,1,1,2.07,0v4.56a1,1,0,0,1-1,1Z"/></g><g id="组_656" data-name="组 656"><path id="路径_1484" data-name="路径 1484" class="cls-3" d="M11.52,19a1,1,0,0,1-.47-.11L5.39,15.93a1,1,0,0,1,1-1.83h0l4.14,2.14V13.5a1,1,0,1,1,2.07,0v4.44a1,1,0,0,1-1,1Z"/></g><g id="组_657" data-name="组 657"><path id="矩形_727" data-name="矩形 727" class="cls-4" d="M2.1,6.38h0a2.09,2.09,0,0,1,2.09,2.1h0a2.09,2.09,0,0,1-2.09,2.1h0A2.1,2.1,0,0,1,0,8.48H0A2.1,2.1,0,0,1,2.1,6.38Z"/></g></g></g></g></svg>