<svg xmlns="http://www.w3.org/2000/svg" xmlns:xlink="http://www.w3.org/1999/xlink" viewBox="0 0 343.06 54"><defs><style>.cls-1{fill:none;}.cls-2{clip-path:url(#clip-path);}.cls-3{fill:#f7d235;}.cls-4{fill:#f9c02a;}.cls-5{fill:#f9db5d;}.cls-6{fill:#fd9210;}.cls-7{fill:#faad20;}.cls-8{fill:#fba219;}.cls-9{fill:#fbb338;}.cls-10{fill:#f9bc28;}.cls-11{fill:#fbac1f;}.cls-12{fill:#f9b524;}.cls-13{fill:#f9bf37;}.cls-14{fill:#face2a;}.cls-15{fill:#fdb21a;}.cls-16{fill:#fff;}.cls-17{fill:#141414;}.cls-18{fill:#d43586;}.cls-19{fill:#fe8408;}.cls-20{fill:#fe8808;}.cls-21{fill:#fd870a;}.cls-22{fill:#fe8d0a;}.cls-23{fill:#fba018;}.cls-24{fill:#fe920c;}.cls-25{fill:#fd9e13;}.cls-26{fill:#fba81d;}.cls-27{fill:#fca617;}.cls-28{fill:#faaf21;}.cls-29{fill:#fcad1a;}.cls-30{fill:#f9b625;}.cls-31{fill:#fcb31d;}.cls-32{fill:#fba41a;}</style><clipPath id="clip-path" transform="translate(0.06 1)"><path class="cls-1" d="M343,53H0V10A10,10,0,0,1,10,0H333a10,10,0,0,1,10,10Z"/></clipPath></defs><g id="图层_2" data-name="图层 2"><g id="图层_1-2" data-name="图层 1"><g class="cls-2"><path class="cls-3" d="M343,53H0V10A10,10,0,0,1,10,0H333a10,10,0,0,1,10,10Z" transform="translate(0.06 1)"/><path class="cls-4" d="M35.52,39.49a1.49,1.49,0,0,1,0-3,1.49,1.49,0,0,1,0,3m8,0A1.49,1.49,0,1,1,45,38a1.48,1.48,0,0,1-1.48,1.49m8,0A1.49,1.49,0,1,1,52.92,38a1.49,1.49,0,0,1-1.47,1.49m-10-7.16a1.49,1.49,0,1,1,1.47-1.49,1.49,1.49,0,0,1-1.47,1.49m8,0a1.49,1.49,0,1,1,1.48-1.49,1.48,1.48,0,0,1-1.48,1.49m8,0a1.49,1.49,0,1,1,1.47-1.49,1.49,1.49,0,0,1-1.47,1.49M46.14,25.17a1.49,1.49,0,1,1,1.47-1.49,1.48,1.48,0,0,1-1.47,1.49m8,0a1.49,1.49,0,1,1,1.48-1.49,1.48,1.48,0,0,1-1.48,1.49m8,0a1.49,1.49,0,1,1,1.47-1.49,1.48,1.48,0,0,1-1.47,1.49M49.09,18a1.49,1.49,0,1,1,1.47-1.49A1.49,1.49,0,0,1,49.09,18m8,0a1.49,1.49,0,1,1,1.48-1.49A1.48,1.48,0,0,1,57.05,18m8,0a1.49,1.49,0,1,1,1.48-1.49A1.48,1.48,0,0,1,65,18M53.22,10.86a1.49,1.49,0,1,1,1.47-1.49,1.49,1.49,0,0,1-1.47,1.49m8,0a1.49,1.49,0,1,1,1.48-1.49,1.48,1.48,0,0,1-1.48,1.49m8,0a1.49,1.49,0,1,1,1.48-1.49,1.48,1.48,0,0,1-1.48,1.49M55.58,3.11A1.49,1.49,0,0,1,54.1,1.62a1.48,1.48,0,1,1,2.95,0,1.48,1.48,0,0,1-1.47,1.49m8,0a1.48,1.48,0,0,1-1.47-1.49,1.47,1.47,0,1,1,2.94,0,1.48,1.48,0,0,1-1.47,1.49m8,0A1.48,1.48,0,0,1,70,1.62a1.48,1.48,0,1,1,3,0A1.49,1.49,0,0,1,71.5,3.11M77-1H49.47a20.85,20.85,0,0,1-.38,2.58v0a1.52,1.52,0,0,1-.18.7,20.37,20.37,0,0,1-1.55,4.14l-1,1.94a1.55,1.55,0,0,1,.35,1,1.49,1.49,0,0,1-1.48,1.49h-.12L42.52,16a1.53,1.53,0,0,1,.08.49A1.49,1.49,0,0,1,41.55,18l-2.36,4.66a1.49,1.49,0,0,1-1,2.56,1.1,1.1,0,0,1-.26,0l-3,5.93a1.5,1.5,0,0,1-.41.81l-.14.28a20,20,0,0,1-4.56,5.94,19.84,19.84,0,0,0,5.32,4,19.52,19.52,0,0,0,9,2.2A19.82,19.82,0,0,0,61.82,33.37l13-25.72A19.94,19.94,0,0,0,77-1" transform="translate(0.06 1)"/><path class="cls-5" d="M35.52,36.51A1.49,1.49,0,1,0,37,38a1.49,1.49,0,0,0-1.47-1.49" transform="translate(0.06 1)"/><path class="cls-5" d="M43.48,36.51A1.49,1.49,0,1,0,45,38a1.48,1.48,0,0,0-1.48-1.49" transform="translate(0.06 1)"/><path class="cls-5" d="M51.45,36.51A1.49,1.49,0,1,0,52.92,38a1.48,1.48,0,0,0-1.47-1.49" transform="translate(0.06 1)"/><path class="cls-5" d="M34.91,31.08l-.41.81a1.5,1.5,0,0,0,.41-.81" transform="translate(0.06 1)"/><path class="cls-5" d="M41.42,29.35a1.49,1.49,0,1,0,1.47,1.49,1.49,1.49,0,0,0-1.47-1.49" transform="translate(0.06 1)"/><path class="cls-5" d="M49.38,29.35a1.49,1.49,0,1,0,1.48,1.49,1.48,1.48,0,0,0-1.48-1.49" transform="translate(0.06 1)"/><path class="cls-5" d="M57.35,29.35a1.49,1.49,0,1,0,1.47,1.49,1.49,1.49,0,0,0-1.47-1.49" transform="translate(0.06 1)"/><path class="cls-5" d="M39.19,22.61l-1.28,2.54a1.1,1.1,0,0,0,.26,0,1.49,1.49,0,0,0,1-2.56" transform="translate(0.06 1)"/><path class="cls-5" d="M46.14,22.19a1.49,1.49,0,1,0,1.47,1.49,1.49,1.49,0,0,0-1.47-1.49" transform="translate(0.06 1)"/><path class="cls-5" d="M54.1,22.19a1.49,1.49,0,1,0,1.48,1.49,1.48,1.48,0,0,0-1.48-1.49" transform="translate(0.06 1)"/><path class="cls-5" d="M62.07,22.19a1.49,1.49,0,1,0,1.47,1.49,1.49,1.49,0,0,0-1.47-1.49" transform="translate(0.06 1)"/><path class="cls-5" d="M42.52,16l-1,1.91a1.49,1.49,0,0,0,1.05-1.42,1.53,1.53,0,0,0-.08-.49" transform="translate(0.06 1)"/><path class="cls-5" d="M49.09,15a1.49,1.49,0,1,0,1.47,1.49A1.48,1.48,0,0,0,49.09,15" transform="translate(0.06 1)"/><path class="cls-5" d="M57.05,15a1.49,1.49,0,1,0,1.48,1.49A1.48,1.48,0,0,0,57.05,15" transform="translate(0.06 1)"/><path class="cls-5" d="M65,15a1.49,1.49,0,1,0,1.48,1.49A1.48,1.48,0,0,0,65,15" transform="translate(0.06 1)"/><path class="cls-5" d="M46.38,8.4l-1.25,2.46h.12a1.49,1.49,0,0,0,1.48-1.49,1.55,1.55,0,0,0-.35-1" transform="translate(0.06 1)"/><path class="cls-5" d="M53.22,7.88a1.49,1.49,0,1,0,1.47,1.49,1.48,1.48,0,0,0-1.47-1.49" transform="translate(0.06 1)"/><path class="cls-5" d="M61.18,7.88a1.49,1.49,0,0,0,0,3,1.49,1.49,0,0,0,0-3" transform="translate(0.06 1)"/><path class="cls-5" d="M69.14,7.88a1.49,1.49,0,1,0,1.48,1.49,1.48,1.48,0,0,0-1.48-1.49" transform="translate(0.06 1)"/><path class="cls-5" d="M49.09,1.58l-.18.74a1.52,1.52,0,0,0,.18-.7v0" transform="translate(0.06 1)"/><path class="cls-5" d="M55.58.12a1.49,1.49,0,0,0-1.48,1.5,1.48,1.48,0,1,0,2.95,0A1.49,1.49,0,0,0,55.58.12" transform="translate(0.06 1)"/><path class="cls-5" d="M63.54.12a1.49,1.49,0,0,0-1.47,1.5,1.47,1.47,0,1,0,2.94,0A1.49,1.49,0,0,0,63.54.12" transform="translate(0.06 1)"/><path class="cls-5" d="M71.5.12A1.49,1.49,0,0,0,70,1.62a1.48,1.48,0,1,0,3,0A1.49,1.49,0,0,0,71.5.12" transform="translate(0.06 1)"/><path class="cls-6" d="M.36,31.66,0,32.37v1.54a19.83,19.83,0,0,0,13.61,9l-1.26-.24.25-.5c-1-.75-2-1.5-3-2.27l-.81,1.6c-.39-.17-.78-.35-1.17-.55s-.6-.32-.89-.49l1-2q-1.47-1.22-2.88-2.46L3.74,38.25A19.75,19.75,0,0,1,2,36.56l1.12-2.24c-.95-.88-1.87-1.77-2.77-2.66" transform="translate(0.06 1)"/><path class="cls-7" d="M24.3,24,14.74,43c-.38,0-.75-.09-1.13-.15A19.72,19.72,0,0,0,29.8,38.11,19.37,19.37,0,0,1,27,40.21l1.72-3.41a20.53,20.53,0,0,1-2.29-3.63l-4.66,9.28a19.88,19.88,0,0,1-2.85.54l6.37-12.68A20.53,20.53,0,0,1,24.3,24M14.18-1H10.07L0,19v8.19L14.18-1m6.7,0H16.76L.36,31.66c.9.89,1.82,1.78,2.77,2.66L20.88-1m6.69,0H23.46L4.91,35.92q1.41,1.24,2.88,2.46L27.57-1m6.7,0H30.15L9.63,39.86c1,.77,2,1.52,3,2.27L34.27-1" transform="translate(0.06 1)"/><path class="cls-8" d="M34.5,31.89a1.47,1.47,0,0,1-1,.44l-2.11,4.2a19.75,19.75,0,0,1-1.59,1.58,20,20,0,0,0,4.56-5.94l.14-.28m2.75-7L34.67,30a1.55,1.55,0,0,1,.26.85l0,.24,3-5.93a1.47,1.47,0,0,1-.66-.3m4.3-6.9a1.55,1.55,0,0,1-.43.07,1.34,1.34,0,0,1-.4-.06l-2.16,4.28a1.49,1.49,0,0,1,.63.37L41.55,18m2.87-7.35L42,15.35a1.51,1.51,0,0,1,.49.69l2.61-5.18a1.56,1.56,0,0,1-.71-.26m4.49-8.28a1.51,1.51,0,0,1-.66.64L45.74,8a1.5,1.5,0,0,1,.64.44l1-1.94a20.37,20.37,0,0,0,1.55-4.14M41-1H36.85L24.3,24a20.53,20.53,0,0,0,.94,6.33c-.09-.29-.18-.58-.26-.87a1.44,1.44,0,0,1,.51-.09l.22,0,3.13-6.23a1.26,1.26,0,0,1,.13-.26l2.86-5.7a1.58,1.58,0,0,1-.14-.65,1.48,1.48,0,0,1,1.21-1.47l2.92-5.82a1.44,1.44,0,0,1,.5-1L39,3A1.5,1.5,0,0,1,39.65.12a1.39,1.39,0,0,1,.67.17L41-1m6.7,0H43.54l-4.9,9.77a1.46,1.46,0,0,1,.12.6,1.49,1.49,0,0,1-1.16,1.46l-3,6a1.49,1.49,0,0,1-.39.78L31.5,23a1.42,1.42,0,0,1,.19.71,1.48,1.48,0,0,1-1.29,1.48l-4,8a20.53,20.53,0,0,0,2.29,3.63L46.18,2a1.24,1.24,0,0,1,0-.33A1.5,1.5,0,0,1,47,.24L47.66-1m1.81,0h0c-.06.7-.16,1.41-.29,2.11l-.12.23,0,.24A20.85,20.85,0,0,0,49.47-1" transform="translate(0.06 1)"/><path class="cls-9" d="M25.49,29.35a1.44,1.44,0,0,0-.51.09c.08.29.17.58.26.87l.47-.94-.22,0" transform="translate(0.06 1)"/><path class="cls-9" d="M34.67,30,33.5,32.33a1.47,1.47,0,0,0,1-.44l.41-.81,0-.24a1.55,1.55,0,0,0-.26-.85" transform="translate(0.06 1)"/><path class="cls-9" d="M31.5,23l-1.1,2.19a1.48,1.48,0,0,0,1.29-1.48A1.42,1.42,0,0,0,31.5,23M29,22.88a1.26,1.26,0,0,0-.13.26l.13-.26" transform="translate(0.06 1)"/><path class="cls-9" d="M38.56,22.24l-1.31,2.61a1.47,1.47,0,0,0,.66.3l1.28-2.54a1.49,1.49,0,0,0-.63-.37" transform="translate(0.06 1)"/><path class="cls-9" d="M34.61,16.78l-.39.78a1.49,1.49,0,0,0,.39-.78M32.9,15.06a1.48,1.48,0,0,0-1.21,1.47,1.58,1.58,0,0,0,.14.65l1.07-2.12" transform="translate(0.06 1)"/><path class="cls-9" d="M42,15.35,40.72,18a1.34,1.34,0,0,0,.4.06,1.55,1.55,0,0,0,.43-.07l1-1.91a1.51,1.51,0,0,0-.49-.69" transform="translate(0.06 1)"/><path class="cls-9" d="M38.64,8.77l-1,2.06a1.49,1.49,0,0,0,1.16-1.46,1.46,1.46,0,0,0-.12-.6m-2.32-.52a1.44,1.44,0,0,0-.5,1l.5-1" transform="translate(0.06 1)"/><path class="cls-9" d="M45.74,8,44.42,10.6a1.56,1.56,0,0,0,.71.26L46.38,8.4A1.5,1.5,0,0,0,45.74,8" transform="translate(0.06 1)"/><path class="cls-9" d="M39.65.12A1.5,1.5,0,0,0,39,3L40.32.29a1.39,1.39,0,0,0-.67-.17" transform="translate(0.06 1)"/><path class="cls-9" d="M49.06,1.34,48.25,3a1.51,1.51,0,0,0,.66-.64l.18-.74,0-.24M47,.24a1.5,1.5,0,0,0-.9,1.38,1.24,1.24,0,0,0,0,.33L47,.24" transform="translate(0.06 1)"/><path class="cls-7" d="M7.48-1H7.35c-.28,0-.55,0-.82,0L0,12V13.9L7.48-1" transform="translate(0.06 1)"/><polyline class="cls-10" points="10.12 0 7.54 0 0.06 14.9 0.06 20.04 10.12 0"/><path class="cls-11" d="M0,31.3v1.07l.36-.71L0,31.3" transform="translate(0.06 1)"/><path class="cls-10" d="M16.76-1H14.18L0,27.23V31.3l.36.36L16.76-1" transform="translate(0.06 1)"/><path class="cls-11" d="M3.13,34.32,2,36.56a19.75,19.75,0,0,0,1.73,1.69l1.17-2.33-1.78-1.6" transform="translate(0.06 1)"/><path class="cls-10" d="M23.46-1H20.88L3.13,34.32l1.78,1.6L23.46-1" transform="translate(0.06 1)"/><path class="cls-11" d="M7.79,38.38l-1,2c.29.17.59.33.89.49s.78.38,1.17.55l.81-1.6c-.62-.49-1.24-1-1.84-1.48" transform="translate(0.06 1)"/><path class="cls-10" d="M30.15-1H27.57L7.79,38.38c.6.5,1.22,1,1.84,1.48L30.15-1" transform="translate(0.06 1)"/><path class="cls-11" d="M12.6,42.13l-.25.5,1.26.24-1-.74" transform="translate(0.06 1)"/><path class="cls-10" d="M34.62-1h-.35L12.6,42.13l1,.74c.38.06.75.11,1.13.15L24.3,24a20.23,20.23,0,0,1,2.18-8.88L34.62-1" transform="translate(0.06 1)"/><path class="cls-12" d="M36.85-1H34.62L26.48,15.1A20.23,20.23,0,0,0,24.3,24L36.85-1" transform="translate(0.06 1)"/><path class="cls-10" d="M25.24,30.31,18.87,43a19.88,19.88,0,0,0,2.85-.54l4.66-9.28a19.59,19.59,0,0,1-1.14-2.86" transform="translate(0.06 1)"/><path class="cls-12" d="M28.84,23.14l-3.13,6.23A1.49,1.49,0,0,1,26,32.25a16.72,16.72,0,0,1-.72-1.94,19.59,19.59,0,0,0,1.14,2.86l4-8h-.19a1.48,1.48,0,0,1-1.47-1.49,1.4,1.4,0,0,1,.1-.54m3-6L29,22.88A1.46,1.46,0,0,1,31.5,23l2.72-5.41a1.46,1.46,0,0,1-1.06.46,1.5,1.5,0,0,1-1.33-.84m4-7.94L32.9,15.06l.26,0a1.48,1.48,0,0,1,1.47,1.49l0,.25,3-6a1.55,1.55,0,0,1-.31,0,1.49,1.49,0,0,1-1.48-1.49V9.24M43.54-1H41L40.32.29a1.47,1.47,0,0,1,.8,1.33,1.48,1.48,0,0,1-1.47,1.49A1.5,1.5,0,0,1,39,3l-2.66,5.3a1.46,1.46,0,0,1,2.32.52L43.54-1" transform="translate(0.06 1)"/><path class="cls-13" d="M25.71,29.37l-.47.94A16.72,16.72,0,0,0,26,32.25a1.49,1.49,0,0,0-.25-2.88" transform="translate(0.06 1)"/><path class="cls-13" d="M30.21,22.19a1.48,1.48,0,0,0-1.24.69l-.13.26a1.4,1.4,0,0,0-.1.54,1.48,1.48,0,0,0,1.47,1.49h.19L31.5,23a1.47,1.47,0,0,0-1.29-.78" transform="translate(0.06 1)"/><path class="cls-13" d="M33.16,15l-.26,0-1.07,2.12a1.5,1.5,0,0,0,1.33.84,1.46,1.46,0,0,0,1.06-.46l.39-.78,0-.25A1.48,1.48,0,0,0,33.16,15" transform="translate(0.06 1)"/><path class="cls-13" d="M37.29,7.88a1.46,1.46,0,0,0-1,.37l-.5,1v.13a1.49,1.49,0,0,0,1.48,1.49,1.55,1.55,0,0,0,.31,0l1-2.06a1.47,1.47,0,0,0-1.35-.89" transform="translate(0.06 1)"/><path class="cls-13" d="M40.32.29,39,3a1.5,1.5,0,0,0,.67.16,1.48,1.48,0,0,0,1.47-1.49,1.47,1.47,0,0,0-.8-1.33" transform="translate(0.06 1)"/><path class="cls-10" d="M28.67,36.8,27,40.21a19.37,19.37,0,0,0,2.85-2.1c-.39-.42-.77-.86-1.13-1.31" transform="translate(0.06 1)"/><path class="cls-12" d="M46.18,2,28.67,36.8c.36.45.74.89,1.13,1.31a19.75,19.75,0,0,0,1.59-1.58l2.11-4.2h0a1.49,1.49,0,0,1,0-3,1.47,1.47,0,0,1,1.21.64l2.58-5.14a1.51,1.51,0,0,1-.55-1.17,1.48,1.48,0,0,1,1.47-1.49,1.6,1.6,0,0,1,.39,0L40.72,18a1.49,1.49,0,0,1,.4-2.92,1.45,1.45,0,0,1,.91.31l2.39-4.75a1.49,1.49,0,0,1,.83-2.72,1.57,1.57,0,0,1,.49.08l2.51-5a1.51,1.51,0,0,1-.64.15A1.48,1.48,0,0,1,46.18,2M49.47-1H47.66L47,.24a1.53,1.53,0,0,1,.57-.12,1.47,1.47,0,0,1,1.45,1.22l.12-.23c.13-.7.23-1.41.29-2.11" transform="translate(0.06 1)"/><path class="cls-13" d="M33.46,29.35a1.49,1.49,0,0,0,0,3h0L34.67,30a1.47,1.47,0,0,0-1.21-.64" transform="translate(0.06 1)"/><path class="cls-13" d="M38.17,22.19a1.48,1.48,0,0,0-1.47,1.49,1.51,1.51,0,0,0,.55,1.17l1.31-2.61a1.6,1.6,0,0,0-.39,0" transform="translate(0.06 1)"/><path class="cls-13" d="M41.12,15a1.49,1.49,0,0,0-.4,2.92L42,15.35a1.45,1.45,0,0,0-.91-.31" transform="translate(0.06 1)"/><path class="cls-13" d="M45.25,7.88a1.49,1.49,0,0,0-.83,2.72L45.74,8a1.57,1.57,0,0,0-.49-.08" transform="translate(0.06 1)"/><path class="cls-13" d="M47.61.12A1.53,1.53,0,0,0,47,.24L46.18,2a1.48,1.48,0,0,0,1.43,1.16A1.51,1.51,0,0,0,48.25,3l.81-1.62A1.47,1.47,0,0,0,47.61.12" transform="translate(0.06 1)"/><polyline class="cls-14" points="301.72 0 297.03 0 267.06 53.69 271.74 53.69 275.69 46.62 275.59 46.62 275.59 43.33 277.53 43.33 301.72 0"/><polyline class="cls-14" points="313.88 0 309.19 0 279.22 53.69 283.9 53.69 287.85 46.62 286.2 46.62 286.2 43.33 289.49 43.33 289.49 43.68 313.88 0"/><path class="cls-14" d="M296.75,43l-5.43,9.72h4.23l.6-.26,3.8-6.81h-3.2V43M326-1H321.3L297.11,42.33H300v3.13L326-1" transform="translate(0.06 1)"/><path class="cls-15" d="M312.57,45.06l-2.1,1.08h0q-2.22,1.13-4.48,2.23L303.39,53h4.74l4.44-7.94" transform="translate(0.06 1)"/><path class="cls-14" d="M310.31,46.15h-3.13L306,48.38c1.47-.74,2.91-1.48,4.34-2.23M334.27-1h-1.58L309,42.82h1.35v3.32l2-1.08L337-.48A7.33,7.33,0,0,0,334.27-1" transform="translate(0.06 1)"/><path class="cls-15" d="M330.8,34.42c-2.35,1.54-4.77,3-7.26,4.53l-2.34,4.18v3h-1.69L315.69,53h4.74L330.8,34.42" transform="translate(0.06 1)"/><path class="cls-14" d="M342.69,6,323.54,39c2.49-1.43,4.91-2.87,7.26-4.35l12.2-21V8.1a7.31,7.31,0,0,0-.31-2.1" transform="translate(0.06 1)"/><polyline class="cls-15" points="343.06 27.11 331.99 46.94 331.99 47.15 331.87 47.15 328.05 54 332.79 54 343.06 35.6 343.06 27.11"/><polyline class="cls-15" points="339.06 32.14 336.34 37 339.06 37 339.06 32.14"/><polygon class="cls-3" points="12.66 20.52 24.25 13.48 36.13 20.52 36.13 33.65 24.25 40 24.25 28.6 12.96 22.51 12.66 20.52"/><polygon class="cls-16" points="13.19 22.51 13.19 33.57 24.25 39.74 24.25 28.6 13.19 22.51"/><path class="cls-17" d="M24.24,40a3.3,3.3,0,0,1-1.67-.45l-6-3.42a1.28,1.28,0,1,1,1.27-2.23l6,3.43h0a.81.81,0,0,0,.8,0l9.65-5.58a.78.78,0,0,0,.4-.69V19.93a.78.78,0,0,0-.4-.69l-9.65-5.58a.81.81,0,0,0-.8,0l-9.65,5.58a.8.8,0,0,0-.4.69v1.34a1.28,1.28,0,0,1-2.56,0V19.93A3.38,3.38,0,0,1,12.91,17l9.65-5.57a3.36,3.36,0,0,1,3.36,0L35.57,17a3.36,3.36,0,0,1,1.68,2.91V31.07A3.36,3.36,0,0,1,35.57,34l-9.65,5.57A3.36,3.36,0,0,1,24.24,40Z" transform="translate(0.06 1)"/><path class="cls-17" d="M24.24,28.68a3.35,3.35,0,0,1-1.67-.45l-5.89-3.31a1.28,1.28,0,0,1,1.25-2.23L23.83,26h0a.81.81,0,0,0,.8,0l9.65-5.57a.67.67,0,0,0,.4-.62,1.28,1.28,0,0,1,2.56,0,3.22,3.22,0,0,1-1.68,2.84l-9.65,5.57A3.36,3.36,0,0,1,24.24,28.68Z" transform="translate(0.06 1)"/><path class="cls-17" d="M12.51,33.59a1.28,1.28,0,0,1-1.28-1.28V26.67a1.28,1.28,0,1,1,2.56,0v5.64A1.28,1.28,0,0,1,12.51,33.59Z" transform="translate(0.06 1)"/><path class="cls-17" d="M24.19,34.49a1.25,1.25,0,0,1-.59-.14l-7-3.62a1.28,1.28,0,0,1,1.17-2.27l5.13,2.65V27.72a1.28,1.28,0,1,1,2.56,0v5.49a1.3,1.3,0,0,1-.61,1.1A1.35,1.35,0,0,1,24.19,34.49Z" transform="translate(0.06 1)"/><path class="cls-18" d="M12.58,24h0a1.86,1.86,0,1,1,1.87-1.86A1.86,1.86,0,0,1,12.58,24Z" transform="translate(0.06 1)"/><polyline class="cls-19" points="331.99 43.82 328.65 43.82 328.65 47.15 331.87 47.15 331.99 46.94 331.99 43.82"/><polyline class="cls-20" points="331.99 46.94 331.87 47.15 331.99 47.15 331.99 46.94"/><polyline class="cls-21" points="321.26 43.82 317.93 43.82 317.93 47.15 319.57 47.15 321.26 44.13 321.26 43.82"/><polyline class="cls-22" points="321.26 44.13 319.57 47.15 321.26 47.15 321.26 44.13"/><polyline class="cls-23" points="309.13 43.82 307.2 43.82 307.2 47.15 307.27 47.15 309.13 43.82"/><polyline class="cls-24" points="310.53 47.14 310.5 47.15 310.53 47.15 310.53 47.14"/><polyline class="cls-25" points="310.53 43.82 309.13 43.82 307.27 47.15 310.5 47.15 310.53 47.14 310.53 43.82"/><path class="cls-26" d="M299.75,46l-.09.16h.09V46m-3-3.17h-.37v.65l.37-.65" transform="translate(0.06 1)"/><polyline class="cls-27" points="299.8 43.82 296.83 43.82 296.47 44.47 296.47 47.15 299.71 47.15 299.8 46.99 299.8 43.82"/><polyline class="cls-28" points="289.07 44.18 287.41 47.15 289.07 47.15 289.07 44.18"/><polyline class="cls-29" points="289.07 43.82 285.74 43.82 285.74 47.15 287.41 47.15 289.07 44.18 289.07 43.82"/><polyline class="cls-30" points="278.35 43.82 276.98 43.82 275.12 47.15 278.35 47.15 278.35 43.82"/><polyline class="cls-31" points="276.98 43.82 275.01 43.82 275.01 47.15 275.12 47.15 276.98 43.82"/><path class="cls-32" d="M7.6,40.91a19.87,19.87,0,0,1-7.66-7V53H29.83A142.83,142.83,0,0,1,13.55,42.87,19.71,19.71,0,0,1,7.6,40.91Z" transform="translate(0.06 1)"/><path class="cls-32" d="M303.34,53l2.58-4.62Q301,50.77,295.84,53Z" transform="translate(0.06 1)"/><polygon class="cls-32" points="340.29 54 343 49.14 343 35.6 332.73 54 340.29 54"/><path class="cls-32" d="M317.82,42.82h3.33v.31L323.48,39q-5.3,3.13-11,6.11L308.08,53h7.55l3.83-6.85h-1.64Z" transform="translate(0.06 1)"/><path class="cls-32" d="M330.75,34.42,320.38,53h7.55l3.83-6.85h-3.22V42.82h3.34v3.12l11.06-19.83v-.34Q337.2,30.23,330.75,34.42Z" transform="translate(0.06 1)"/></g></g></g></svg>