<svg xmlns="http://www.w3.org/2000/svg" viewBox="0 0 23.03 31.5"><defs><style>.cls-1{fill:#f9d435;}.cls-2{fill:#141414;}</style></defs><g id="图层_2" data-name="图层 2"><g id="图层_1-2" data-name="图层 1"><g id="组_1155" data-name="组 1155"><g id="组_1151" data-name="组 1151"><circle id="椭圆_244" data-name="椭圆 244" class="cls-1" cx="11.52" cy="12" r="5.5"/></g><g id="组_1152" data-name="组 1152"><ellipse id="椭圆_245" data-name="椭圆 245" class="cls-1" cx="11.52" cy="27.5" rx="11.5" ry="4"/></g><g id="组_1153" data-name="组 1153"><path id="路径_2038" data-name="路径 2038" class="cls-2" d="M11.52,17.5a6,6,0,1,1,6-6A6,6,0,0,1,11.52,17.5Zm0-10a4,4,0,1,0,4,4A4,4,0,0,0,11.52,7.5Z"/></g><g id="组_1154" data-name="组 1154"><path id="路径_2039" data-name="路径 2039" class="cls-2" d="M11.52,29.75a1,1,0,0,1-.63-.21,40.19,40.19,0,0,1-8.23-9.27C-.18,15.54,0,12.4,0,11.72a1.94,1.94,0,0,1,0-.22A11.5,11.5,0,0,1,21.63,6a1,1,0,0,1-.4,1.35A1,1,0,0,1,19.87,7h0A9.5,9.5,0,0,0,2,11.5v.23a1.15,1.15,0,0,1,0,.19s-.37,2.77,2.36,7.32a37.55,37.55,0,0,0,7.14,8.21,37.82,37.82,0,0,0,7.14-8.21c2.73-4.55,2.36-7.3,2.36-7.33a.55.55,0,0,1,0-.18v-.16a1,1,0,0,1,1-1h0a1,1,0,0,1,1,.94v.23h0c.07.67.21,3.81-2.64,8.56a39.71,39.71,0,0,1-8.23,9.26A1,1,0,0,1,11.52,29.75Z"/></g></g></g></g></svg>