<svg xmlns="http://www.w3.org/2000/svg" viewBox="0 0 103.8 96.3"><defs><style>.cls-1{fill:#fff;}.cls-2{fill:#ff7600;}.cls-3{fill:#ffa664;}.cls-4{fill:#f7d235;}.cls-5{fill:#141414;}.cls-6{fill:#ffc71a;opacity:0.3;isolation:isolate;}</style></defs><g id="图层_2" data-name="图层 2"><g id="图层_1-2" data-name="图层 1"><g id="组_906" data-name="组 906"><path id="路径_1704" data-name="路径 1704" class="cls-1" d="M54.28,76.31h-7.2c-4.58,0-8.3,4.84-8.3,10.79v6.37a39.79,39.79,0,0,0,23.81,0V87.1c0-5.95-3.73-10.79-8.31-10.79Z"/><path id="路径_1705" data-name="路径 1705" class="cls-2" d="M42,30.16c0-2.79.71-5.06,3.36-5.06H55.7c2.66,0,3.58,2.28,3.58,5.06v1H62.8v-7.6a8.88,8.88,0,0,0-8.76-9H46.56a9.25,9.25,0,0,0-9.18,9v7.6H42Z"/><path id="路径_1706" data-name="路径 1706" class="cls-3" d="M55.65,14.57a8.79,8.79,0,0,1,2.24,2.06,8.1,8.1,0,0,1,1.55,3.43,46.91,46.91,0,0,1,.68,9.83h2.32V21.67S61.11,15.3,55.65,14.57Z"/><path id="路径_1707" data-name="路径 1707" class="cls-3" d="M51.93,77.38H46.27c-3.61,0-6.54,4.53-6.54,10.11v6a26.69,26.69,0,0,0,18.74,0v-6C58.47,81.91,55.54,77.38,51.93,77.38Z"/><path id="路径_1708" data-name="路径 1708" class="cls-4" d="M40.71,38.92c0,5,7.39,7.88,9.74,7.88s9.73-2.8,9.73-7.88V36.31h1.23a1.92,1.92,0,0,0,1.91-1.91,2,2,0,0,0-2-2H57.7V29a2.19,2.19,0,0,0-2.19-2.19h-10A2.19,2.19,0,0,0,43.28,29v3.41H39.61a2,2,0,0,0-2,2,1.9,1.9,0,0,0,1.9,1.9h1.23Zm8.51-1.5a1.73,1.73,0,0,0,1.31.8,1.68,1.68,0,0,0,1.32-.82l2.09,1.27a4.19,4.19,0,0,1-3.41,2h0a4.2,4.2,0,0,1-3.39-2Z"/><path id="路径_1709" data-name="路径 1709" class="cls-4" d="M98.48,42.3C97,28.19,85,19.69,84.88,19.61l-.07-.05c-.18-.15-4.71-3.6-11.38-.08A5,5,0,0,0,74.78,25l.17.15a2.85,2.85,0,0,0,1.88.72h0C82,25.81,83.26,23,83.27,23l2.27.92a6.58,6.58,0,0,1-2.3,2.61l2.4,3,0,.38c.66,9.58,4,10.73,5,10.85a7.05,7.05,0,0,1,4.1,2l-1.73,1.73a4.59,4.59,0,0,0-2.67-1.3,5.07,5.07,0,0,1-2-.71L87,43a7.9,7.9,0,0,1-3.72.61c-2.27-.2-5.3.64-6.84,5.67l-2.34-.72A15.83,15.83,0,0,1,75,46.27c-4.59,0-7.14,1.7-8.48,3.18a9.13,9.13,0,0,1-6.71,3H59.5V50h.28a6.66,6.66,0,0,0,2.45-.5A6.68,6.68,0,0,1,58.66,46a12.1,12.1,0,0,1-16.4,0,6.59,6.59,0,0,1-3.55,3.47,6.43,6.43,0,0,0,2.58.55h.28v2.44h-.28a9.13,9.13,0,0,1-6.71-3c-1.35-1.48-3.89-3.15-8.48-3.18A14.89,14.89,0,0,1,27,48.64l-2.34.72c-1.54-5-4.57-5.86-6.84-5.67a7.86,7.86,0,0,1-3.71-.61l-1.41-.58a5.33,5.33,0,0,1-2,.7A4.64,4.64,0,0,0,8,44.49L6.27,42.77a7.07,7.07,0,0,1,4.11-2c1-.13,4.37-1.27,5-10.85l0-.38,2.4-3a6.63,6.63,0,0,1-2.3-2.6l1.14-.47L17.8,23c.05.12,1.32,2.83,6.43,2.86a2.85,2.85,0,0,0,1.89-.72l.17-.16a5,5,0,0,0,1.35-5.49C21,16,16.45,19.46,16.26,19.61l-.07.05c-.12.08-12.09,8.57-13.58,22.69,0,.29-.08.59-.14.92-.19,1,.69,1.9,2.47,2.38l.64.18.2.63c0,.09,3.14,9.47,10,13a12.71,12.71,0,0,0,10,.53l.76,2.32A19,19,0,0,1,24,63a10.29,10.29,0,0,0,2.69,7.75,28.61,28.61,0,0,1,6.15,11.06,55.51,55.51,0,0,1,1.32,8.31c1,.5,2.09,1,3.17,1.36v-4.7c0-6.51,4.45-11.8,9.92-11.8h6.49c5.47,0,9.92,5.3,9.92,11.8v4.73c1.11-.41,2.2-.88,3.27-1.4a27.78,27.78,0,0,1,1.31-8l.09-.31a28.61,28.61,0,0,1,6.15-11.06,10.83,10.83,0,0,0,2.62-5.39,9.81,9.81,0,0,0,.08-2.36,17.54,17.54,0,0,1-2.68-.68l.77-2.32a12.69,12.69,0,0,0,10-.53c6.91-3.51,10-12.88,10-13l.2-.63.64-.18c1.78-.48,2.65-1.33,2.46-2.39a7.12,7.12,0,0,1-.13-.91Zm-79.39,14a8.72,8.72,0,0,1-4.35-1.13c-4.05-2.3-5.33-7.29-5.39-7.5l1.19-.3,1.18-.3s1.1,4.21,4.24,6a7.19,7.19,0,0,0,5.76.39l.7,2.34A11.41,11.41,0,0,1,19.09,56.32ZM62,63.91a1.57,1.57,0,1,1-1.58,1.57h0A1.57,1.57,0,0,1,62,63.91Zm-22.32,0a1.57,1.57,0,1,1-1.57,1.57h0a1.57,1.57,0,0,1,1.57-1.57Zm35.05-6.09a4.55,4.55,0,0,0-3.4,2.55l-3.78,8.31a5.21,5.21,0,0,1-4.74,3.06H57c-2.22,0-5.6-1.4-6.52-3.64-.89,2.28-4.19,3.69-6.36,3.69H38.24a5.21,5.21,0,0,1-4.74-3.06l-3.77-8.31a4.56,4.56,0,0,0-3.4-2.55,6.91,6.91,0,0,1-2.75-1.16l1.53-1.91a4.54,4.54,0,0,0,1.65.66A7,7,0,0,1,32,59.41l3.78,8.32a2.79,2.79,0,0,0,2.52,1.62h5.85c1.55,0,3.94-1.2,4.12-2.31l1-6.11,1.16.19,1.26-.2,1,6.11c.18,1.1,2.68,2.28,4.3,2.28h5.85a2.79,2.79,0,0,0,2.52-1.62l3.77-8.32a7,7,0,0,1,5.2-3.95A4.59,4.59,0,0,0,76,54.76l1.52,1.91a6.66,6.66,0,0,1-2.76,1.15Zm11.4-2.58a8.59,8.59,0,0,1-4.34,1.14,11.76,11.76,0,0,1-3.34-.52l.7-2.35a7.15,7.15,0,0,0,5.76-.39c3.14-1.77,4.23-5.93,4.24-6l2.37.59C91.49,48,90.2,53,86.15,55.24Z"/><path id="路径_1710" data-name="路径 1710" class="cls-5" d="M79.79,71.82a29.36,29.36,0,0,0-5.29,8.54l2.27.9a27,27,0,0,1,4.86-7.82,13.29,13.29,0,0,0,3.2-6.63l-2.42-.37a10.84,10.84,0,0,1-2.62,5.38ZM73.55,83.19a28.4,28.4,0,0,0-1.28,6.89l2.44.12a26.71,26.71,0,0,1,1.19-6.33l.09-.31-2.35-.68Z"/><path id="路径_1711" data-name="路径 1711" class="cls-3" d="M16,53.07c-3.13-1.78-4.22-5.94-4.24-6l-1.18.3-1.19.3c.06.2,1.34,5.2,5.39,7.5a8.72,8.72,0,0,0,4.35,1.13,11.53,11.53,0,0,0,3.34-.52l-.7-2.34A7.23,7.23,0,0,1,16,53.07Zm69,0a7.15,7.15,0,0,1-5.76.39l-.7,2.35a11.82,11.82,0,0,0,3.34.52,8.74,8.74,0,0,0,4.35-1.13c4-2.3,5.33-7.3,5.38-7.5l-2.37-.6s-1.1,4.2-4.24,6Z"/><path id="路径_1712" data-name="路径 1712" class="cls-5" d="M100.9,42A34.42,34.42,0,0,0,93,24a37.89,37.89,0,0,0-6.68-6.41c-.57-.44-6.32-4.62-14.44-.09l-.34.19-.17.36a7.48,7.48,0,0,0,1.8,8.71l.17.15a5.26,5.26,0,0,0,3.5,1.34h0A12.87,12.87,0,0,0,81,27.65l2.26,2.79c.41,5.27,1.68,8.37,3.09,10.2l-.32.14a5.41,5.41,0,0,1-2.57.42,8.21,8.21,0,0,0-6.87,2.68c-6.42-.41-10,1.83-11.83,3.85a4.54,4.54,0,0,1-4.08-3.6,8.1,8.1,0,0,0,2-5.2v-.35a4.35,4.35,0,0,0,3.13-4.18,4.42,4.42,0,0,0-1-2.75V23.53A10.8,10.8,0,0,0,53.9,12.85H46.68A10.8,10.8,0,0,0,35.77,23.53v8.58a4.41,4.41,0,0,0-.63,2.29,4.34,4.34,0,0,0,3.13,4.18v.34a8.09,8.09,0,0,0,2,5.25,4.5,4.5,0,0,1-4,3.54c-1.88-2-5.43-4.2-11.78-3.8a8.19,8.19,0,0,0-6.86-2.66,5.52,5.52,0,0,1-2.57-.43l-.33-.14c1.41-1.82,2.68-4.92,3.1-10.2l2.26-2.79a12.81,12.81,0,0,0,4.12.64A5.24,5.24,0,0,0,27.75,27l.17-.15a7.46,7.46,0,0,0,1.79-8.71l-.16-.35-.35-.2c-8.1-4.53-13.87-.35-14.43.09a37.2,37.2,0,0,0-6.68,6.41,34.35,34.35,0,0,0-7.92,18c0,.23-.06.47-.1.74-.33,1.75.49,3.91,3.6,5,.85,2.3,4.23,10.33,11,13.79a14.32,14.32,0,0,0,6.55,1.58h.22a12.7,12.7,0,0,0,3.32,9.13,26.26,26.26,0,0,1,5.64,10.13A59.75,59.75,0,0,1,31.74,91l.05.68.62.31A40.11,40.11,0,0,0,50.13,96.3h.36a40.17,40.17,0,0,0,18.18-4.38l.69-.35,0-.78a24.64,24.64,0,0,1,1.21-8.08l.09-.31a26.22,26.22,0,0,1,5.64-10.12,13.26,13.26,0,0,0,3.2-6.62,11.83,11.83,0,0,0,.12-2.52h.22a14.19,14.19,0,0,0,6.55-1.58c6.8-3.45,10.2-11.49,11-13.79,3.12-1.08,3.92-3.25,3.6-5-.05-.24-.08-.48-.11-.73ZM38.21,23.53a8.37,8.37,0,0,1,8.47-8.23H53.9a8.35,8.35,0,0,1,8.46,8.23V29.9H60.15V29a4.65,4.65,0,0,0-4.64-4.64h-10A4.65,4.65,0,0,0,40.83,29v.91H38.21Zm1.28,12.78a1.9,1.9,0,0,1-1.91-1.91,2,2,0,0,1,2-2h3.67V29a2.19,2.19,0,0,1,2.19-2.19h10A2.19,2.19,0,0,1,57.7,29v3.4h3.58a2,2,0,0,1,2,2h0a1.9,1.9,0,0,1-1.9,1.91H60.19v2.61c0,5.08-7.31,7.87-9.74,7.87s-9.73-2.88-9.73-7.87V36.31Zm21.68,56a37.22,37.22,0,0,1-21.45,0V86.74c0-5.16,3.36-9.36,7.48-9.36h6.49c4.12,0,7.48,4.2,7.48,9.36Zm35-46.69-.64.17-.2.63c0,.1-3.12,9.46-10,13a12.73,12.73,0,0,1-10,.53l-.76,2.32a17.68,17.68,0,0,0,2.67.67,9.89,9.89,0,0,1-.07,2.37,10.88,10.88,0,0,1-2.62,5.39,28.61,28.61,0,0,0-6.15,11.06L68.2,82a27.78,27.78,0,0,0-1.31,8c-1.07.52-2.16,1-3.27,1.4V86.74c0-6.51-4.45-11.8-9.93-11.8H47.21c-5.47,0-9.93,5.3-9.93,11.8v4.7c-1.07-.4-2.13-.85-3.16-1.35a55.51,55.51,0,0,0-1.32-8.31,28.76,28.76,0,0,0-6.16-11.06A10.29,10.29,0,0,1,24,63a19,19,0,0,0,2.67-.68L25.85,60a12.69,12.69,0,0,1-10-.53c-6.9-3.5-10-12.88-10-13l-.2-.63-.64-.18c-1.78-.48-2.65-1.33-2.46-2.39.06-.33.1-.63.13-.92C4.1,28.24,16.08,19.75,16.19,19.67l.07-.05c.19-.15,4.71-3.61,11.38-.09A5,5,0,0,1,26.29,25l-.17.15a2.81,2.81,0,0,1-1.89.73c-5.1,0-6.38-2.75-6.43-2.86l-1.12.47L15.54,24a6.52,6.52,0,0,0,2.3,2.61l-2.4,3,0,.39c-.67,9.57-4,10.72-5,10.84a7,7,0,0,0-4.1,2L8,44.51a4.54,4.54,0,0,1,2.67-1.3,5.27,5.27,0,0,0,2-.7l1.41.58a7.86,7.86,0,0,0,3.71.61c2.27-.2,5.3.63,6.85,5.67L27,48.65a14.93,14.93,0,0,0-.92-2.32c4.59,0,7.14,1.7,8.48,3.18a9.16,9.16,0,0,0,6.72,3h.28V50.08h-.28a6.36,6.36,0,0,1-2.58-.55,6.54,6.54,0,0,0,3.54-3.47,12.08,12.08,0,0,0,16.4,0,6.61,6.61,0,0,0,3.57,3.5,6.28,6.28,0,0,1-2.45.5h-.28v2.45h.28a9.15,9.15,0,0,0,6.72-3C67.85,48,70.39,46.31,75,46.28a14.82,14.82,0,0,0-.92,2.31l2.34.72c1.55-5,4.58-5.86,6.85-5.67A7.88,7.88,0,0,0,87,43l1.4-.58a5.29,5.29,0,0,0,2,.71,4.58,4.58,0,0,1,2.67,1.29l1.73-1.73a7.07,7.07,0,0,0-4.11-2c-1-.12-4.37-1.27-5-10.85l0-.38-2.4-3a6.44,6.44,0,0,0,2.3-2.61L83.27,23S82,25.81,76.86,25.85h0A2.85,2.85,0,0,1,75,25.13L74.79,25a5,5,0,0,1-1.35-5.49c6.67-3.52,11.19-.07,11.38.08l.07.05C85,19.69,97,28.19,98.48,42.3c0,.29.08.59.13.92.19,1.05-.69,1.9-2.47,2.38Z"/><path id="路径_1713" data-name="路径 1713" class="cls-5" d="M74.32,55.41a7,7,0,0,0-5.2,4l-3.78,8.31a2.76,2.76,0,0,1-2.52,1.62H57c-1.62,0-4.12-1.17-4.3-2.27l-1-6.11-1.27.2-1.15-.19-1,6.1c-.18,1.12-2.58,2.31-4.12,2.31H38.25a2.76,2.76,0,0,1-2.52-1.62L32,59.4a7,7,0,0,0-5.2-3.95,4.59,4.59,0,0,1-1.66-.66L23.57,56.7a6.77,6.77,0,0,0,2.75,1.16,4.58,4.58,0,0,1,3.41,2.55l3.77,8.32a5.22,5.22,0,0,0,4.75,3.06H44.1c2.17,0,5.47-1.42,6.35-3.69.92,2.24,4.29,3.64,6.53,3.64h5.86a5.22,5.22,0,0,0,4.74-3.06l3.77-8.31a4.56,4.56,0,0,1,3.4-2.56,6.76,6.76,0,0,0,2.75-1.15L76,54.74A4.49,4.49,0,0,1,74.32,55.41Z"/><path id="路径_1714" data-name="路径 1714" class="cls-5" d="M39.7,67.05a1.57,1.57,0,1,0-1.57-1.58h0a1.57,1.57,0,0,0,1.57,1.57Zm22.32,0a1.57,1.57,0,1,0-1.58-1.57h0A1.57,1.57,0,0,0,62,67.05ZM50.52,40.67h0a4.16,4.16,0,0,0,3.4-2l-2.08-1.27a1.47,1.47,0,0,1-2,.66,1.43,1.43,0,0,1-.66-.65L47.14,38.7a4.18,4.18,0,0,0,3.38,2Z"/><path id="路径_1715" data-name="路径 1715" class="cls-4" d="M102.44,68.49H99.69V65.73a1.1,1.1,0,0,0-2.19,0h0v2.76H94.75a1.09,1.09,0,0,0,0,2.18H97.5v2.76a1.1,1.1,0,0,0,2.19,0h0V70.67h2.75a1.07,1.07,0,0,0,1.09-1v0A1.09,1.09,0,0,0,102.44,68.49Z"/><path id="路径_1716" data-name="路径 1716" class="cls-4" d="M.9,84.86l4.61,4.61a.83.83,0,0,0,1.17,0h0l4.61-4.61a.84.84,0,0,0,0-1.18h0l-4.61-4.6a.82.82,0,0,0-1.17,0h0L.9,83.67a.84.84,0,0,0,0,1.18Zm1.8-.57,3.42-3.42,3.42,3.42L6.12,87.71ZM99.45,27.77V19.06l4.35,4.35Z"/><path id="路径_1717" data-name="路径 1717" class="cls-6" d="M9.76,3.34a3.34,3.34,0,0,0,3.35,3.34h0a3.34,3.34,0,0,0,3.34-3.34h0A3.35,3.35,0,0,0,13.11,0h0A3.35,3.35,0,0,0,9.76,3.34Z"/><path id="路径_1718" data-name="路径 1718" class="cls-6" d="M88.39,86.81h6.68v6.68H88.39Z"/></g></g></g></svg>