<svg xmlns="http://www.w3.org/2000/svg" viewBox="0 0 87.65 76.66"><defs><style>.cls-1{fill:#f9d435;}.cls-2{fill:#bfbfbf;}</style></defs><g id="图层_2" data-name="图层 2"><g id="图层_1-2" data-name="图层 1"><g id="组_1178" data-name="组 1178"><circle id="椭圆_247" data-name="椭圆 247" class="cls-1" cx="43.82" cy="55.81" r="20.85"/><g id="组_1177" data-name="组 1177"><path id="路径_2052" data-name="路径 2052" class="cls-2" d="M31.23,54.76H18.64c-1.65,0-3.83,1.09-4.38,2.19L.57,74.47c-1.1,1.09-.55,2.19,1.09,2.19H86c1.65,0,2.19-1.1,1.1-2.19L73.39,57A6.75,6.75,0,0,0,69,54.76H56.42L52,60.23H69l8.76,11H9.88l8.76-11h17l-4.38-5.47Z"/><path id="路径_2053" data-name="路径 2053" class="cls-2" d="M43.8,0A22,22,0,0,0,21.9,21.9a24.85,24.85,0,0,0,2.74,11L38.33,56.39c3.28,5.48,8.21,5.48,11,0L61.87,33.94a22.48,22.48,0,0,0,3.83-12A22,22,0,0,0,43.8,0ZM57.49,30.12l-11,19.71c-2.19,3.83-3.29,3.83-5.48,0L29.56,29.57c-1.64-2.19-2.19-4.93-2.19-8.22,0-8.76,7.12-15.87,16.43-15.87s16.42,7.11,16.42,15.87a16.46,16.46,0,0,1-2.73,8.76Z"/></g></g></g></g></svg>