<svg xmlns="http://www.w3.org/2000/svg" viewBox="0 0 105.69 81.26"><defs><style>.cls-1{fill:#ff7600;}.cls-2{fill:#f9d435;}.cls-3{fill:#2d2924;}.cls-4{fill:#f7d235;}.cls-5{fill:#ffc71a;opacity:0.3;isolation:isolate;}.cls-6{fill:#fdd835;}</style></defs><g id="图层_2" data-name="图层 2"><g id="图层_1-2" data-name="图层 1"><g id="组_1210" data-name="组 1210"><path id="路径_2069" data-name="路径 2069" class="cls-1" d="M46.16,61.43h-.07a5.92,5.92,0,0,1-3.58-1.34A5.2,5.2,0,0,1,41,56.73V47a9.84,9.84,0,0,1,.4-3.24,12,12,0,0,1,1.12-2.63L47.4,32.5a.57.57,0,0,1,.08-.13,7.77,7.77,0,0,1,2.08-2.08,6.16,6.16,0,0,1,3-.78h30.8a8.06,8.06,0,0,1,3.11.85,8.86,8.86,0,0,1,2.29,2.07l.1.14,5.77,9.14s.05.09.07.13A10.87,10.87,0,0,1,96,46.76v9.76a4.83,4.83,0,0,1-1.54,3.57,5.88,5.88,0,0,1-3.77,1.33H46.16Z"/><path id="路径_2070" data-name="路径 2070" class="cls-2" d="M20.59,0h0a4.63,4.63,0,1,0,4.62,4.62A4.62,4.62,0,0,0,20.59,0Zm0,6.94A2.32,2.32,0,1,1,22.9,4.62,2.32,2.32,0,0,1,20.59,6.94Z"/><path id="路径_2071" data-name="路径 2071" class="cls-2" d="M102.45,14.3V12.12a1.06,1.06,0,0,0-1.06-1.06h0a1.08,1.08,0,0,0-1.08,1.06V14.3H98.11a1.06,1.06,0,0,0-1.06,1.07h0a1.08,1.08,0,0,0,1.06,1.08h2.18v2.19a1.07,1.07,0,0,0,1.07,1.06h0a1.08,1.08,0,0,0,1.08-1.06V16.46h2.18a1.05,1.05,0,0,0,1.06-1.06v0a1.08,1.08,0,0,0-1.06-1.08Z"/><path id="路径_2072" data-name="路径 2072" class="cls-2" d="M21.76,79.09a2.18,2.18,0,0,1,2.16-2.16h13a2.17,2.17,0,0,1,0,4.33h-13a2.16,2.16,0,0,1-2.16-2.15h0Z"/><path id="路径_2073" data-name="路径 2073" class="cls-3" d="M31.88,60H31.8a6.94,6.94,0,0,1-4.22-1.58,6.12,6.12,0,0,1-1.76-3.95V43a11.76,11.76,0,0,1,.48-3.82,14.11,14.11,0,0,1,1.32-3.1l5.72-10.12.09-.15a9.36,9.36,0,0,1,2.45-2.45,7.08,7.08,0,0,1,3.54-.92H75.7a9.39,9.39,0,0,1,3.67,1,10.3,10.3,0,0,1,2.7,2.44l.12.17L89,36.8a1,1,0,0,1,.08.14,12.85,12.85,0,0,1,1.58,5.8v11.5a5.67,5.67,0,0,1-1.82,4.2A7,7,0,0,1,84.38,60H31.88Zm-.59-21.65a10.77,10.77,0,0,0-.84,2.05,7.61,7.61,0,0,0-.3,2.33V54.33a2,2,0,0,0,.37.93l0,0,0,0a3.38,3.38,0,0,0,1.31.36H84.37a2.81,2.81,0,0,0,1.54-.46,1.34,1.34,0,0,0,.38-.83V42.92a8.61,8.61,0,0,0-1-3.85l0,0L78.57,28.46l0,0A6.32,6.32,0,0,0,77.2,27.2a5.07,5.07,0,0,0-1.71-.43H39.42a2.84,2.84,0,0,0-1.25.27,4.94,4.94,0,0,0-1.09,1.1l0,0L31.37,38.23l-.06.1h0l0,0ZM58,19.24a2.18,2.18,0,0,1-2.17-2.18V4.57a2.17,2.17,0,0,1,4.34,0v12.5A2.17,2.17,0,0,1,58,19.24Zm14.56-.09A2.17,2.17,0,0,1,70.41,17a2.2,2.2,0,0,1,.48-1.37l5-6.12a2.17,2.17,0,1,1,3.37,2.74l-5,6.12a2.16,2.16,0,0,1-1.69.8ZM43.7,19A2.15,2.15,0,0,1,42,18.17l-4.88-6.12a2.17,2.17,0,1,1,3.39-2.71h0l4.88,6.12a2.16,2.16,0,0,1-.34,3.05A2.19,2.19,0,0,1,43.7,19Z"/><path id="路径_2074" data-name="路径 2074" class="cls-3" d="M58.1,51.09A10.51,10.51,0,0,1,47.88,43.2l-.09-.37H28.5a2.18,2.18,0,0,1-.09-4.35h.09l21.24,0a2.18,2.18,0,0,1,2.17,2.17,6.19,6.19,0,0,0,12.37,0,2.17,2.17,0,0,1,2.17-2.17l21,0a2.18,2.18,0,0,1,0,4.35H68.4l-.1.38a10.5,10.5,0,0,1-10.2,7.88Z"/><path id="路径_2075" data-name="路径 2075" class="cls-4" d="M4.8,38.47v9.6L0,43.27Z"/><path id="路径_2076" data-name="路径 2076" class="cls-5" d="M84.35,73.23h6v6h-6Z"/><g id="组_1209" data-name="组 1209"><path id="路径_2077" data-name="路径 2077" class="cls-6" d="M32.11,56.52a4.65,4.65,0,0,1-2-.6,2.09,2.09,0,0,1-.22-.2,3.21,3.21,0,0,1-.69-1.6,1.09,1.09,0,0,1,0-.18V42.54a1.32,1.32,0,0,1,.35-.9,1.28,1.28,0,0,1,.85-.39H48a1.21,1.21,0,0,1,1.16.9l.1.38a9.35,9.35,0,0,0,18.1,0l.09-.38a1.21,1.21,0,0,1,1.16-.9H86.5a1.19,1.19,0,0,1,1.2,1.15s0,.13,0,.15V54a2.49,2.49,0,0,1-.77,1.76,4,4,0,0,1-2.33.76H32.11Z"/><g id="组_1208" data-name="组 1208"><path id="路径_2078" data-name="路径 2078" class="cls-3" d="M30.36,42.45H48l.1.38a10.56,10.56,0,0,0,20.43,0l.09-.38H86.5V54a1.33,1.33,0,0,1-.38.83,2.78,2.78,0,0,1-1.54.46H32.11A3.34,3.34,0,0,1,30.8,55l0,0,0,0a2,2,0,0,1-.37-.93V42.45m0-2.4a2.39,2.39,0,0,0-2.4,2.4V53.94c0,.1,0,.21,0,.32a4.3,4.3,0,0,0,1,2.3,3.17,3.17,0,0,0,.34.3,5.56,5.56,0,0,0,2.62.85H84.59a5.16,5.16,0,0,0,3.14-1.07A3.72,3.72,0,0,0,88.91,54V42.42s0-.09,0-.11a2.44,2.44,0,0,0-2.4-2.26H68.62a2.41,2.41,0,0,0-2.33,1.81l-.09.38a8.16,8.16,0,0,1-15.77,0l-.1-.38A2.4,2.4,0,0,0,48,40.06H30.37Z"/></g></g></g></g></g></svg>