<svg xmlns="http://www.w3.org/2000/svg" viewBox="0 0 93.55 77.68"><defs><style>.cls-1{fill:#f7d235;}.cls-2{fill:#141414;}.cls-3{fill:#ff7600;}.cls-4{fill:#ffc71a;opacity:0.3;isolation:isolate;}</style></defs><g id="图层_2" data-name="图层 2"><g id="图层_1-2" data-name="图层 1"><g id="组_925" data-name="组 925"><rect id="矩形_809" data-name="矩形 809" class="cls-1" x="15.98" y="17.85" width="58.33" height="9.95"/><path id="路径_1755" data-name="路径 1755" class="cls-2" d="M71.81,29.6H18a4.7,4.7,0,0,1-4.66-4.66V20.56A4.71,4.71,0,0,1,18,15.89H71.81a4.7,4.7,0,0,1,4.66,4.67v4.38A4.69,4.69,0,0,1,71.81,29.6ZM18,19.71a.76.76,0,0,0-.71.71V24.8a.75.75,0,0,0,.71.7H71.81a.75.75,0,0,0,.71-.7V20.42a.76.76,0,0,0-.71-.71Zm0,19.64a2,2,0,0,1-2-1.89V32.85a1.94,1.94,0,0,1,1.89-2H18a1.93,1.93,0,0,1,2,1.88v4.62a2,2,0,0,1-2,2Z"/><path id="路径_1756" data-name="路径 1756" class="cls-3" d="M65.16,73.12H40.29a13.72,13.72,0,0,1-13.7-13.7v-4.1A13.73,13.73,0,0,1,40.3,41.61H65.17a13.72,13.72,0,0,1,13.7,13.71v4.1A13.81,13.81,0,0,1,65.16,73.12Z"/><path id="路径_1757" data-name="路径 1757" class="cls-2" d="M66.3,67.75h-43c-4.1,0-7.48-3.11-7.48-6.92V42.46a1.93,1.93,0,0,1,1.88-2h.09a1.93,1.93,0,0,1,2,1.88V60.83c0,1.7,1.7,3,3.53,3h43a3.34,3.34,0,0,0,3.53-3V32.29a1.93,1.93,0,0,1,1.89-2h.09a1.93,1.93,0,0,1,2,1.88V60.83c.14,3.81-3.25,6.92-7.49,6.92Z"/><path id="路径_1758" data-name="路径 1758" class="cls-2" d="M59.66,47.55H30a2,2,0,0,1-2-1.89v-.09a1.93,1.93,0,0,1,1.89-2H59.66a1.94,1.94,0,0,1,2,1.88v.1a2,2,0,0,1-1.89,2Z"/><path id="路径_1759" data-name="路径 1759" class="cls-2" d="M44.82,58.85a1.93,1.93,0,0,1-2-1.88V35.67a1.94,1.94,0,0,1,1.88-2h.1a1.94,1.94,0,0,1,2,1.89V56.87a1.94,1.94,0,0,1-1.89,2ZM39.73,19.71a14.14,14.14,0,0,1-4.38-.57c-4.1-1-4.8-3.1-4.94-4.38a8.86,8.86,0,0,1,8.05-9.6c1.27-.15,3.39.42,5.09,3.39,1.55,2.54,3,7.63,1.84,9.32-.71,1.27-3.11,1.84-5.66,1.84Z"/><path id="路径_1760" data-name="路径 1760" class="cls-2" d="M49.2,19.71c-2.54,0-4.8-.57-5.65-1.7-1.13-1.84.28-6.78,1.83-9.33,1.84-3.11,3.82-3.53,5.09-3.39A8.55,8.55,0,0,1,56.55,8.4a9.06,9.06,0,0,1,2.12,6.5c-.14,1.13-.85,3.25-5,4.38C52.22,19.5,50.71,19.64,49.2,19.71Z"/><path id="路径_1761" data-name="路径 1761" class="cls-1" d="M2.7,51.16H5.09V48.78a.93.93,0,0,1,.91-1H6a.94.94,0,0,1,1,.92v2.41H9.37a.94.94,0,0,1,.94.92v0a.93.93,0,0,1-.91,1H7v2.38a.93.93,0,0,1-.92,1H6a.93.93,0,0,1-.94-.92V53.05H2.7a.93.93,0,0,1-.94-.91v0A1,1,0,0,1,2.7,51.16Z"/><path id="路径_1762" data-name="路径 1762" class="cls-1" d="M89.1,72.45l-4-4a.71.71,0,0,0-1,0h0l-4,4a.72.72,0,0,0,0,1h0l4,4a.72.72,0,0,0,1,0h0l4-4a.72.72,0,0,0,0-1Zm-4.52,3.49-3-3,3-3,3,3ZM0,20.27,3.77,16.5V24Z"/><path id="路径_1763" data-name="路径 1763" class="cls-4" d="M80.23,2.89a2.89,2.89,0,1,1-5.78,0h0a2.89,2.89,0,1,1,5.78,0Z"/><path id="路径_1764" data-name="路径 1764" class="cls-4" d="M93.55,33.56H87.76v5.79h5.79Z"/><path id="路径_1765" data-name="路径 1765" class="cls-1" d="M39,8.6h0a5.68,5.68,0,0,0-5.21,6.12c0,.65.91,1.17,1.43,1.3,2.6,1.17,6.64.78,7.56.26a12,12,0,0,0-2.35-6.77C39.87,8.86,39.48,8.6,39,8.6Z"/><path id="路径_1766" data-name="路径 1766" class="cls-1" d="M46,16.33c.91.52,4.94.78,7.55-.26.52-.26,1.43-.65,1.43-1.3a5.62,5.62,0,0,0-1.3-4,5.4,5.4,0,0,0-3.78-2,2,2,0,0,0-1.56.91A12,12,0,0,0,46,16.33Z"/></g></g></g></svg>