<svg xmlns="http://www.w3.org/2000/svg" viewBox="0 0 112.05 76.13"><defs><style>.cls-1{fill:#f7d235;}.cls-2{fill:#ff7600;}.cls-3{fill:#ff7e00;}.cls-4{fill:#ffc71a;opacity:0.3;isolation:isolate;}</style></defs><g id="图层_2" data-name="图层 2"><g id="图层_1-2" data-name="图层 1"><g id="组_923" data-name="组 923"><path id="路径_1739" data-name="路径 1739" class="cls-1" d="M38.92,23.13a6.65,6.65,0,0,1,.59-2.67H34.88a4,4,0,0,1,0-8.08H71.24v4h2.67V11a1.35,1.35,0,0,0-1.32-1.37H34.88a6.75,6.75,0,0,0-6.72,6.72v40.4a9.47,9.47,0,0,0,9.45,9.44h1.72a9.71,9.71,0,0,1-.41-2.67ZM82.23,51.41H79.44A8,8,0,0,0,86,58V55.27a5.34,5.34,0,0,1-3.8-3.86Z"/><g id="组_922" data-name="组 922"><path id="路径_1740" data-name="路径 1740" class="cls-2" d="M87.28,55.69a8,8,0,0,1-6.6-6.6,8.91,8.91,0,0,1-.11-1.36,10.4,10.4,0,0,1,.11-1.37,8.1,8.1,0,0,1,8-6.71H98V26.16a1.34,1.34,0,0,0-1.32-1.37H46.82a4.08,4.08,0,0,1-4-4,4,4,0,0,1,1.07-2.67,3.9,3.9,0,0,1,3-1.37H83.18v5.41h2.67V15.4A1.33,1.33,0,0,0,84.53,14H46.88a6.79,6.79,0,0,0-6.18,4,6.65,6.65,0,0,0-.59,2.67v40.4a7.9,7.9,0,0,0,.41,2.68,9.47,9.47,0,0,0,9,6.71H96.67A1.34,1.34,0,0,0,98,69.22V55.69H88.59A3.21,3.21,0,0,1,87.28,55.69Z"/><path id="路径_1741" data-name="路径 1741" d="M96.67,72.92H49.55a11.8,11.8,0,0,1-11.29-8.34,10.25,10.25,0,0,1-.53-3.43V20.75a9.1,9.1,0,0,1,.78-3.6,9.21,9.21,0,0,1,8.37-5.49H84.49a3.7,3.7,0,0,1,3.74,3.66v7.1h8.44a3.69,3.69,0,0,1,3.74,3.65V42H88.65A5.77,5.77,0,0,0,83,46.71l0,.1c0,.3-.07.61-.08.92a7.18,7.18,0,0,0,.1,1,5.62,5.62,0,0,0,4.62,4.58,2.21,2.21,0,0,0,.35,0l.24-.07h12.16V69.18a3.7,3.7,0,0,1-3.66,3.74ZM42.48,25.48V61.15A5.47,5.47,0,0,0,42.76,63l0,.1a7.06,7.06,0,0,0,6.76,5h46.1V58.06H88.84a5.77,5.77,0,0,1-1.9,0h-.08a10.4,10.4,0,0,1-8.53-8.57,12.5,12.5,0,0,1-.15-1.74,12.8,12.8,0,0,1,.12-1.51l0-.25a10.42,10.42,0,0,1,10.3-8.69h7V27.17H46.81a6.38,6.38,0,0,1-4.33-1.69Zm4.34-6.39a1.51,1.51,0,0,0-1.17.54l0,.05a1.63,1.63,0,0,0-.44,1.07,1.71,1.71,0,0,0,1.66,1.67h34V19.09Z"/></g><path id="路径_1742" data-name="路径 1742" class="cls-3" d="M99.33,44.1h-9a3.88,3.88,0,0,0-3.82,2.64,2.9,2.9,0,0,0,0,1.78A3.7,3.7,0,0,0,89.4,51a4.29,4.29,0,0,0,1,.12h8.92a.94.94,0,0,0,1-.87V45A1,1,0,0,0,99.33,44.1Z"/><path id="路径_1743" data-name="路径 1743" class="cls-1" d="M15,68.58H11.53V65.13a1.34,1.34,0,0,0-1.33-1.36h0a1.35,1.35,0,0,0-1.37,1.32v3.49H5.35A1.34,1.34,0,0,0,4,69.9v0A1.34,1.34,0,0,0,5.3,71.31H8.79v3.45a1.36,1.36,0,0,0,1.32,1.37h.05a1.36,1.36,0,0,0,1.37-1.33V71.31H15A1.34,1.34,0,0,0,16.34,70v0A1.39,1.39,0,0,0,15,68.58Z"/><path id="路径_1744" data-name="路径 1744" class="cls-4" d="M17.88,43.69h7.6v7.6h-7.6Z"/><path id="路径_1745" data-name="路径 1745" class="cls-4" d="M104.45,25.92a3.8,3.8,0,0,0,3.8,3.8h0a3.8,3.8,0,0,0,3.8-3.8h0a3.8,3.8,0,0,0-3.8-3.8h0a3.8,3.8,0,0,0-3.8,3.8Z"/><path id="路径_1746" data-name="路径 1746" class="cls-1" d="M97.58,5.06,92.78.26a.86.86,0,0,0-1.22,0h0l-4.8,4.8a.87.87,0,0,0,0,1.22v0l4.8,4.8a.88.88,0,0,0,1.23,0h0l4.8-4.8a.88.88,0,0,0,0-1.23Zm-5.44,4.2L88.58,5.7l3.56-3.56L95.7,5.7ZM0,16.53V31.15a1.42,1.42,0,0,0,.83,1.24,1.3,1.3,0,0,0,1.49-.3l7.31-7.3a1.45,1.45,0,0,0,.41-1,1.55,1.55,0,0,0-.41-.95l-7.31-7.3a1.46,1.46,0,0,0-1.49-.3A1.44,1.44,0,0,0,0,16.53Zm6.77,7.31-4,4V19.8Z"/></g></g></g></svg>