<svg xmlns="http://www.w3.org/2000/svg" viewBox="0 0 332 22.05"><defs><style>.cls-1{fill:#e0228e;fill-rule:evenodd;}.cls-2{opacity:0.6;isolation:isolate;}.cls-3{fill:#ff7600;}</style></defs><g id="图层_2" data-name="图层 2"><g id="图层_1-2" data-name="图层 1"><g id="组_974" data-name="组 974"><g id="联合_3" data-name="联合 3"><path d="M179.93,16.84V12.6h-1.48V11.2h2.88v-7h7V8.27h-2.84V9.8h2.84v1.4h-4.28v1.4h2.8v2.76h-1.36V14h-2.84V11.2h-1.36v5.64Zm2.76-7h1.4V8.28h-1.4Zm2.84-2.88h1.36V5.52h-1.36Zm-2.84,0h1.4V5.52h-1.4Zm-19.6,9.92V15.36h1.4v1.48Zm-2.8,0V14h-1.4V11.2h1.4v1.4h2.8V11.2h1.4V14h-2.8v2.88Zm-4.28,0V15.36h1.52v1.48Zm-5.65,0V11.2h2.89v1.4h-1.36v4.24Zm-4.15,0V15.36h1.35v1.48Zm42.16-1.48V11.2h1.4v4.16Zm-19.77,0V12.6h1.53V14h4.16V12.6h1.4v2.76Zm-11.07,0V14h1.36v1.4Zm-4.28,0V12.6h1.4v2.76Zm-5.69,0V14h-1.35V12.6H149v2.76ZM143.45,14v-7h-1.4V5.52h1.4V4.16h1.36V14Zm26.68-1.36V11.2h1.36v1.4Zm1.36-1.4V6.92h1.44V11.2Zm-11.2,0V9.8h1.4v1.4Zm-2.76,0V9.8h1.36v1.4Zm-4.28,0V9.8h1.4v1.4Zm-7.05,0V9.8h4.16v1.4Zm21-1.4V8.28h1.36V5.52h1.53V9.8Zm-5.55,0V8.28h-1.4V9.8h-1.4V8.28H156V6.92h4.29V5.52h-1.4V4.16h1.4V2.76h-2.76V1.41h2.76V0h1.4v1.4h2.8V2.76h-2.8v1.4h1.4V5.52h-1.4v1.4h4.16V8.28h-2.76V9.8Zm-9.8,0h-1.53V8.28h-2.8V5.52H146.2V4.16h1.36V2.76H149v1.4h2.93V2.76H149V0h1.4V1.4h2.88V4.16h1.4V8.27h-2.75V9.8Zm0-2.88h1.35V5.52h-1.35Zm-2.93,0h1.4V5.52H149Zm25.32,1.35V4.16h-4.15V2.76h5.56V6.91h1.36V8.27Zm4.16-2.76V4.16h1.48V5.51Zm9.93-1.35V2.76h-7v1.4h-1.4V1.4h4.16V0h1.44V1.4h4.24V4.16Z"/></g><g id="组_973" data-name="组 973"><g id="路径_1924" data-name="路径 1924"><path d="M148,19h.4v2.93H148Z"/></g><g id="路径_1925" data-name="路径 1925"><path d="M152.07,20.37l-1-1.4h.51l.76,1.13.75-1.13h.5l-1,1.39,1.07,1.55h-.52l-.84-1.27-.85,1.27H151Z"/></g><g id="路径_1926" data-name="路径 1926"><path d="M156.28,19h1.9v.37h-1.5v.87h1.4v.38h-1.4v.94h1.58v.37h-2Z"/></g><g id="路径_1927" data-name="路径 1927"><path d="M161,19h.4v2.56h1.35v.37H161Z"/></g><g id="路径_1928" data-name="路径 1928"><path d="M165.38,19h1a1.17,1.17,0,0,1,.46.07.84.84,0,0,1,.29.2.72.72,0,0,1,.15.27.86.86,0,0,1,0,.28.78.78,0,0,1-.19.51,1,1,0,0,1-.23.18.75.75,0,0,1-.3.09l.83,1.34H167l-.74-1.3h-.45v1.3h-.4Zm.4,1.29h.52l.23,0a.48.48,0,0,0,.2-.07.32.32,0,0,0,.14-.14.53.53,0,0,0,.06-.24.54.54,0,0,0-.06-.25.32.32,0,0,0-.14-.14.68.68,0,0,0-.2-.07l-.23,0h-.52Z"/></g><g id="路径_1929" data-name="路径 1929"><path d="M171.46,22a1.58,1.58,0,0,1-.61-.12,1.51,1.51,0,0,1-.49-.33,1.57,1.57,0,0,1-.31-.49,1.61,1.61,0,0,1,0-1.22,1.57,1.57,0,0,1,.31-.49,1.34,1.34,0,0,1,.49-.32,1.64,1.64,0,0,1,1.23,0,1.31,1.31,0,0,1,.48.32,1.43,1.43,0,0,1,.32.49,1.71,1.71,0,0,1,0,1.22,1.43,1.43,0,0,1-.32.49,1.47,1.47,0,0,1-.48.33A1.59,1.59,0,0,1,171.46,22Zm0-.38a1.07,1.07,0,0,0,.81-.34,1.17,1.17,0,0,0,.22-.37,1.3,1.3,0,0,0,0-.91,1,1,0,0,0-.22-.37,1.11,1.11,0,0,0-1.56-.06l-.05.06a1,1,0,0,0-.23.37,1.42,1.42,0,0,0,0,.91,1.2,1.2,0,0,0,.23.37,1.05,1.05,0,0,0,.8.34Z"/></g><g id="路径_1930" data-name="路径 1930"><path d="M177.12,22a1.67,1.67,0,0,1-.62-.12,1.47,1.47,0,0,1-.48-.33,1.43,1.43,0,0,1-.32-.49,1.71,1.71,0,0,1,0-1.22,1.43,1.43,0,0,1,.32-.49,1.31,1.31,0,0,1,.48-.32,1.66,1.66,0,0,1,1.24,0,1.39,1.39,0,0,1,.79.81,1.61,1.61,0,0,1,0,1.22,1.41,1.41,0,0,1-.31.49,1.58,1.58,0,0,1-.48.33A1.67,1.67,0,0,1,177.12,22Zm0-.38a1.07,1.07,0,0,0,.8-.34,1.17,1.17,0,0,0,.22-.37,1.3,1.3,0,0,0,0-.91,1,1,0,0,0-.22-.37.94.94,0,0,0-.35-.25,1.11,1.11,0,0,0-.91,0,.87.87,0,0,0-.35.25,1,1,0,0,0-.23.37,1.42,1.42,0,0,0,0,.91,1.2,1.2,0,0,0,.23.37,1.05,1.05,0,0,0,.8.34Z"/></g><g id="路径_1931" data-name="路径 1931"><path d="M181.39,19h.6l.93,2.22h0l.92-2.22h.6v2.93h-.4V19.5h0l-1,2.41h-.27l-1-2.41h0v2.41h-.4Z"/></g><g id="路径_1932" data-name="路径 1932"><path d="M145.31,19.51a.61.61,0,0,0-.15-.26.72.72,0,0,0-.29-.2,1,1,0,0,0-.46-.08h-1v2.94h.4V19.32h.53a.93.93,0,0,1,.23,0,.66.66,0,0,1,.2.06.47.47,0,0,1,0,.78.66.66,0,0,1-.2.06c-.08,0-.79,0-.87,0h0v.37h.75a1.17,1.17,0,0,0,.46-.07.84.84,0,0,0,.29-.2.72.72,0,0,0,.15-.27,1.06,1.06,0,0,0,0-.56Z"/></g></g><g id="路径_1933" data-name="路径 1933"><path class="cls-1" d="M186.76,18.83H190v3.22h-3.22Z"/></g></g><g id="直线_29" data-name="直线 29" class="cls-2"><rect class="cls-3" y="12.8" width="129" height="0.5"/></g><g id="直线_30" data-name="直线 30" class="cls-2"><rect class="cls-3" x="203" y="12.8" width="129" height="0.5"/></g></g></g></svg>