<svg xmlns="http://www.w3.org/2000/svg" viewBox="0 0 196.3 24.71"><defs><style>.cls-1{fill:#ee741b;}.cls-2{fill:#fff;}</style></defs><g id="图层_2" data-name="图层 2"><g id="图层_1-2" data-name="图层 1"><g id="组_972" data-name="组 972"><g id="组_969" data-name="组 969"><path id="路径_1878" data-name="路径 1878" class="cls-1" d="M9.32,21.17a25.35,25.35,0,0,0-1-2.68A24.6,24.6,0,0,1,3.9,22.84,9.42,9.42,0,0,0,2,20.27a19.19,19.19,0,0,0,4.8-5c-.88-1.79-1.88-3.59-2.75-5.16l2.7-1.92c.66,1.11,1.39,2.35,2.12,3.61a34.74,34.74,0,0,0,1.87-4.35H4.64l.47-3h7l.58-.12,2,.72a44.68,44.68,0,0,1-4.07,10,29.26,29.26,0,0,1,1.72,3.83Zm11.44-10c-.07.45-.15.9-.27,1.4.22,4.15,1.4,7.5,4.6,9.07a15.48,15.48,0,0,0-2.67,2.93,9.25,9.25,0,0,1-4.17-6.11,17.14,17.14,0,0,1-6.4,6.11,9.64,9.64,0,0,0-2.07-2.43,14.2,14.2,0,0,0,7.74-11.05l.29-1.85h3.26ZM17.89,8.32A19.26,19.26,0,0,1,15,13.17a16.77,16.77,0,0,0-2.4-2c1.94-2,3.22-5.49,4.1-9.13l3.19.4c-.24.95-.5,1.86-.81,2.76h5.34l.52-.12,2.25.62A42.2,42.2,0,0,1,24,12.38l-2.54-.9A33.21,33.21,0,0,0,22.9,8.32Z"/><path id="路径_1879" data-name="路径 1879" class="cls-1" d="M32.44,18.85c.57,1.52,2,2.16,4.23,2.25a122.91,122.91,0,0,0,12.73-.23,17.4,17.4,0,0,0-1.53,3.2c-3.24.17-8.57.22-11.68.08-2.74-.12-4.44-.76-5.55-2.59-1,.9-2,1.75-3.27,2.8l-1.07-3.3c.89-.55,1.92-1.22,2.89-1.93l.75-4.73H27.73l.5-3.18h5.42ZM31.35,8.35A14.63,14.63,0,0,0,29,4.24l3-1.71a14.5,14.5,0,0,1,2.57,3.9Zm1.94,7.12,1.3-.23L36.43,3.62,38,4a20,20,0,0,0,3.09-2l1.72,2.32.17-1.06H51l-1.91,12c-.21,1.33-.55,2.11-1.46,2.61a6.76,6.76,0,0,1-3.26.52A9.88,9.88,0,0,0,44,16l-.72,4.54H40.21l2.5-15.75a35.89,35.89,0,0,1-3.55,1.54l-1.3,8.22L40.5,14l-.09,2.92c-2.25.57-4.72,1.17-6.72,1.64Zm12.3-9.29L44.1,15.59c.59,0,1.23,0,1.45,0s.37-.1.41-.36l1.43-9.08Z"/><path id="路径_1880" data-name="路径 1880" class="cls-1" d="M66.76,15.62A17,17,0,0,0,73.46,21a19,19,0,0,0-2.88,2.93,18,18,0,0,1-6.2-5.9l-1,6.56H59.66l1-6.56a29.84,29.84,0,0,1-8.15,5.85,13.4,13.4,0,0,0-2-2.9,27.86,27.86,0,0,0,8.52-5.35H52.15l.52-3.3h4.11a13.47,13.47,0,0,0-1-3.73l2.34-.83H54.51L55,4.45h7.81L63.24,2h3.68l-.39,2.44h8L74,7.75H70.64l2.29.69c-1,1.45-2,2.85-2.87,3.87h4.11l-.52,3.3ZM59.22,7.75a11.89,11.89,0,0,1,1.12,3.68L58,12.31h3.64l.72-4.56Zm6.79,0-.72,4.56H68.8l-1.87-.64a28.3,28.3,0,0,0,2.36-3.92Z"/><path id="路径_1881" data-name="路径 1881" class="cls-1" d="M87.6,19.44l-.41,3.21c-4.24.57-8.82,1.09-12.18,1.5l0-3.45c1.32-.1,2.91-.26,4.65-.42l.38-2.4H76.45l.49-3.07h3.61l.32-2h3.44l-.32,2h3.54l-.48,3.07H83.51l-.33,2Zm.91-.9,1.06-6.72-2.94,1.5a10.34,10.34,0,0,0-.26-1.1c-3.45.19-7,.31-9.66.4L77,9.44l2,0c.45-.93.9-1.93,1.26-2.88H77.53l.48-3h12.1l-.49,3H87.2a19.35,19.35,0,0,1,2.39,5.18L90.66,5H94L91.81,18.54ZM85.19,9.32c-.25-.52-.5-1-.76-1.47l2.7-1.31h-3c-.54,1-1.09,1.93-1.64,2.83Zm14.5-6.63L96.85,20.63c-.29,1.83-.77,2.76-1.9,3.3a11.71,11.71,0,0,1-4.83.67,11.85,11.85,0,0,0-.55-3.5c1.32.07,2.75.07,3.22.07s.62-.14.69-.57L96.31,2.69Z"/><path id="路径_1882" data-name="路径 1882" class="cls-1" d="M109.33,3c-.74,1.52-1.58,3.08-2.51,4.6l-2.69,17h-3.28l1.76-11.12q-.6.68-1.2,1.29a21.49,21.49,0,0,0-1-3.8A31.56,31.56,0,0,0,106.3,2Zm13.5,12.14a34.1,34.1,0,0,1-3.35,2.35A7.33,7.33,0,0,0,122.15,21a14.46,14.46,0,0,0-2.61,2.69c-2.79-2.21-3.68-6.16-3.84-11h-.4c-.46.34-.94.67-1.44,1,3.27,3.21,2.33,8.22.34,9.84a4.1,4.1,0,0,1-2.83,1.09c-.47,0-1,0-1.58-.05a7.29,7.29,0,0,0-.16-2.42,29.18,29.18,0,0,1-3.21,1.49,9.41,9.41,0,0,0-1.38-2.4,28.15,28.15,0,0,0,7.74-3.7,2.7,2.7,0,0,0-.16-.48,36.93,36.93,0,0,1-5.52,2.76A9.64,9.64,0,0,0,106,17.7a26.41,26.41,0,0,0,5.65-2.37,3.07,3.07,0,0,1-.25-.26,31.91,31.91,0,0,1-3.51,1.5,15,15,0,0,0-1.48-2.21,28.57,28.57,0,0,0,4.51-1.64h-3.11l.7-4.42a6.58,6.58,0,0,0-1.4-1.07A18.5,18.5,0,0,0,112.41,2l3.11.59c-.18.27-.4.55-.6.81H118l.65-.19,1.76,1.47c-.54.69-1.16,1.45-1.81,2.17h4.6l-.92,5.84h-3.73c0,.74.13,1.45.23,2.14a27.36,27.36,0,0,0,2.07-1.81Zm-10.56,6.17a2.29,2.29,0,0,0,.53-.95c-.79.5-1.6,1-2.43,1.43.28,0,.54,0,.78,0a1.28,1.28,0,0,0,1.13-.5Zm-1.06-10.83h2.38l.2-1.31h-2.37Zm1.68-4.59c-.32.34-.63.67-1,1H115c.28-.28.6-.64.9-1Zm6.68,3.28h-2.71l-.21,1.31h2.71Z"/><path id="路径_1883" data-name="路径 1883" class="cls-1" d="M132.09,20.53a25.93,25.93,0,0,1-6.45,3.83A18,18,0,0,0,123.45,22a18.6,18.6,0,0,0,5.65-2.69Zm11.67-.61a5.8,5.8,0,0,0-.73-1l-6.37.17-.85,5.41h-3.42l.84-5.34c-3.26.07-6.27.14-8.65.16l.29-2.68c1.4,0,3,0,4.78-.05l.67-.33A34.77,34.77,0,0,0,127,13.93l2.53-1.88,1,.57c.45-.31.94-.66,1.4-1H125.6L126,9h8.82l.09-.57h-6.3l.38-2.4h6.3l.09-.57h-7.51L128.26,3h7.51l.16-1h3.47l-.17,1h8l-.39,2.45h-8l-.09.57h6.81l-.38,2.4h-6.81l-.1.57h9l-.4,2.57h-7.29l2,1.21c-2,1.28-4.36,2.62-6.58,3.73l5.62-.1c-.46-.38-.9-.78-1.32-1.11L142,13.62a23.66,23.66,0,0,1,4.65,4.4Zm-7.38-8.32c-1.3.88-2.65,1.76-3.8,2.4.32.21.6.43.87.64,1.73-1,3.42-2.07,4.78-3Zm3.8,7.63a33.49,33.49,0,0,1,4.77,3l-3,1.9a34,34,0,0,0-4.57-3.23Z"/><path id="路径_1884" data-name="路径 1884" class="cls-1" d="M165.41,14.45a41.58,41.58,0,0,1,4,8.36l-3.91,1.9a14.62,14.62,0,0,0-.56-1.85c-5.65.4-11.52.73-15.74,1l.13-3.66c1-.05,2.15-.07,3.37-.14A61.47,61.47,0,0,0,158,10.74l4,1a90.46,90.46,0,0,1-5.3,8.12c2.2-.09,4.55-.21,6.87-.33-.56-1.23-1.18-2.47-1.77-3.54ZM160.52,3.59a35.94,35.94,0,0,1-7.9,9.67,17.79,17.79,0,0,0-3-2.59,23.8,23.8,0,0,0,7.05-8.2Zm6.37-1a24.23,24.23,0,0,0,4.79,7.72,21,21,0,0,0-3.4,3.05A39.92,39.92,0,0,1,163.18,4Z"/><path id="路径_1885" data-name="路径 1885" class="cls-1" d="M192.65,21.67c-.21,1.33-.56,2-1.5,2.45a8.66,8.66,0,0,1-3.39.43,9.26,9.26,0,0,0-.37-2.45l-.88.29c0-.17,0-.36-.06-.55-3.21.17-6.48.28-9,.38l.28-2.83c1.11,0,2.47,0,3.95-.05l.17-1h-4.33l-1,6.3h-3.28l1.45-9.1h7.6l.1-.67h-5l1.23-7.74H192l-1.22,7.74h-5.18l-.1.67h8.12ZM196.3,3.59l-.81,5.11h-3.28l.35-2.18H178.33L178,8.7h-3.12l.81-5.11h8.53L184.46,2h3.47l-.25,1.56Zm-13.52,9,.1-.64h-1.95l-.1.64Zm-1.52-2.71h2l.1-.61h-1.95Zm4.5,9.36c-.07-.19-.13-.38-.2-.54l1.37-.43h-1.87l-.16,1ZM188,12h-2l-.1.64h2Zm.43-2.68h-2l-.1.61h2Zm-.6,12.63a6.61,6.61,0,0,0,1.09,0c.26,0,.37-.07.4-.3l.53-3.33h-1.76a14,14,0,0,1,1,3.23Z"/></g><g id="组_971" data-name="组 971"><g id="组_970" data-name="组 970"><path id="路径_1886" data-name="路径 1886" class="cls-2" d="M7.32,19.17a25.35,25.35,0,0,0-1-2.68A24.6,24.6,0,0,1,1.9,20.84,9.42,9.42,0,0,0,0,18.27a19.19,19.19,0,0,0,4.8-5c-.88-1.79-1.88-3.59-2.75-5.16l2.7-1.92c.66,1.11,1.39,2.35,2.12,3.61A34.74,34.74,0,0,0,8.74,5.49H2.64l.47-3h7l.58-.12,2,.72A44.68,44.68,0,0,1,8.64,13a29.26,29.26,0,0,1,1.72,3.83Zm11.44-10c-.07.45-.15.9-.27,1.4.22,4.15,1.4,7.5,4.6,9.07a15.48,15.48,0,0,0-2.67,2.93,9.25,9.25,0,0,1-4.17-6.11,17.14,17.14,0,0,1-6.4,6.11,9.64,9.64,0,0,0-2.07-2.43A14.2,14.2,0,0,0,15.52,9.12l.29-1.85h3.26ZM15.89,6.32A19.26,19.26,0,0,1,13,11.17a16.77,16.77,0,0,0-2.4-2c1.94-2,3.22-5.49,4.1-9.13l3.19.4c-.24,1-.5,1.86-.81,2.76h5.34l.52-.12,2.25.62A42.2,42.2,0,0,1,22,10.38l-2.54-.9A33.21,33.21,0,0,0,20.9,6.32Z"/><path id="路径_1887" data-name="路径 1887" class="cls-2" d="M30.44,16.85c.57,1.52,2,2.16,4.23,2.25a122.91,122.91,0,0,0,12.73-.23,17.4,17.4,0,0,0-1.53,3.2c-3.24.17-8.57.22-11.68.08-2.74-.12-4.44-.76-5.55-2.59-1,.9-2,1.75-3.27,2.8l-1.07-3.3c.89-.55,1.92-1.22,2.89-1.93l.75-4.73H25.73l.5-3.18h5.42ZM29.35,6.35A14.63,14.63,0,0,0,27,2.24L30,.53a14.5,14.5,0,0,1,2.57,3.9Zm1.94,7.12,1.3-.23L34.43,1.62,36,2a20,20,0,0,0,3.09-2l1.72,2.32.17-1.06H49l-1.91,12c-.21,1.33-.55,2.11-1.46,2.61a6.76,6.76,0,0,1-3.26.52A9.88,9.88,0,0,0,42,14l-.72,4.54H38.21l2.5-15.75a35.89,35.89,0,0,1-3.55,1.54l-1.3,8.22L38.5,12l-.09,2.92c-2.25.57-4.72,1.17-6.72,1.64Zm12.3-9.29L42.1,13.59c.59,0,1.23,0,1.45,0s.37-.1.41-.36l1.43-9.08Z"/><path id="路径_1888" data-name="路径 1888" class="cls-2" d="M64.76,13.62A17,17,0,0,0,71.46,19a19,19,0,0,0-2.88,2.93,18,18,0,0,1-6.2-5.9l-1,6.56H57.66l1-6.56a29.84,29.84,0,0,1-8.15,5.85,13.4,13.4,0,0,0-2-2.9,27.86,27.86,0,0,0,8.52-5.35H50.15l.52-3.3h4.11a13.47,13.47,0,0,0-1-3.73l2.34-.83H52.51L53,2.45h7.81L61.24,0h3.68l-.39,2.44h8L72,5.75H68.64l2.29.69c-1,1.45-2,2.85-2.87,3.87h4.11l-.52,3.3ZM57.22,5.75a11.89,11.89,0,0,1,1.12,3.68L56,10.31h3.64l.72-4.56Zm6.79,0-.72,4.56H66.8l-1.87-.64a28.3,28.3,0,0,0,2.36-3.92Z"/><path id="路径_1889" data-name="路径 1889" class="cls-2" d="M85.6,17.44l-.41,3.21c-4.24.57-8.82,1.09-12.18,1.5l0-3.45c1.32-.1,2.91-.26,4.65-.42l.38-2.4H74.45l.49-3.07h3.61l.32-2h3.44l-.32,2h3.54l-.48,3.07H81.51l-.33,2Zm.91-.9,1.06-6.72-2.94,1.5a10.34,10.34,0,0,0-.26-1.1c-3.45.19-7,.31-9.66.4L75,7.44l2,0c.45-.93.9-1.93,1.26-2.88H75.53l.48-3h12.1l-.49,3H85.2a19.35,19.35,0,0,1,2.39,5.18L88.66,3H92L89.81,16.54ZM83.19,7.32c-.25-.52-.5-1-.76-1.47l2.7-1.31h-3c-.54,1-1.09,1.93-1.64,2.83ZM97.69.69,94.85,18.63c-.29,1.83-.77,2.76-1.9,3.3a11.71,11.71,0,0,1-4.83.67,11.85,11.85,0,0,0-.55-3.5c1.32.07,2.75.07,3.22.07s.62-.14.69-.57L94.31.69Z"/><path id="路径_1890" data-name="路径 1890" class="cls-2" d="M107.33,1c-.74,1.52-1.58,3.08-2.51,4.6l-2.69,17H98.85l1.76-11.12q-.6.68-1.2,1.29a21.49,21.49,0,0,0-1-3.8A31.56,31.56,0,0,0,104.3,0Zm13.5,12.14a34.1,34.1,0,0,1-3.35,2.35A7.33,7.33,0,0,0,120.15,19a14.46,14.46,0,0,0-2.61,2.69c-2.79-2.21-3.68-6.16-3.84-11h-.4c-.46.34-.94.67-1.44,1,3.27,3.21,2.33,8.22.34,9.84a4.1,4.1,0,0,1-2.83,1.09c-.47,0-1,0-1.58-.05a7.29,7.29,0,0,0-.16-2.42,29.18,29.18,0,0,1-3.21,1.49,9.41,9.41,0,0,0-1.38-2.4,28.15,28.15,0,0,0,7.74-3.7,2.7,2.7,0,0,0-.16-.48,36.93,36.93,0,0,1-5.52,2.76A9.64,9.64,0,0,0,104,15.7a26.41,26.41,0,0,0,5.65-2.37,3.07,3.07,0,0,1-.25-.26,31.91,31.91,0,0,1-3.51,1.5,15,15,0,0,0-1.48-2.21,28.57,28.57,0,0,0,4.51-1.64h-3.11l.7-4.42a6.58,6.58,0,0,0-1.4-1.07A18.5,18.5,0,0,0,110.41,0l3.11.59c-.18.27-.4.55-.6.81H116l.65-.19,1.76,1.47c-.54.69-1.16,1.45-1.81,2.17h4.6l-.92,5.84h-3.73c0,.74.13,1.45.23,2.14a27.36,27.36,0,0,0,2.07-1.81Zm-10.56,6.17a2.29,2.29,0,0,0,.53-.95c-.79.5-1.6,1-2.43,1.43.28,0,.54,0,.78,0a1.28,1.28,0,0,0,1.13-.5ZM109.21,8.46h2.38l.2-1.31h-2.37Zm1.68-4.59c-.32.34-.63.67-1,1H113c.28-.28.6-.64.9-1Zm6.68,3.28h-2.71l-.21,1.31h2.71Z"/><path id="路径_1891" data-name="路径 1891" class="cls-2" d="M130.09,18.53a25.93,25.93,0,0,1-6.45,3.83A18,18,0,0,0,121.45,20a18.6,18.6,0,0,0,5.65-2.69Zm11.67-.61a5.8,5.8,0,0,0-.73-1l-6.37.17-.85,5.41h-3.42l.84-5.34c-3.26.07-6.27.14-8.65.16l.29-2.68c1.4,0,3,0,4.78-.05l.67-.33A34.77,34.77,0,0,0,125,11.93l2.53-1.88,1,.57c.45-.31.94-.66,1.4-1H123.6L124,7h8.82l.09-.57h-6.3l.38-2.4h6.3l.09-.57h-7.51L126.26,1h7.51l.16-1h3.47l-.17,1h8l-.39,2.45h-8l-.09.57h6.81l-.38,2.4h-6.81l-.1.57h9l-.4,2.57h-7.29l2,1.21c-2,1.28-4.36,2.62-6.58,3.73l5.62-.1c-.46-.38-.9-.78-1.32-1.11L140,11.62a23.66,23.66,0,0,1,4.65,4.4ZM134.38,9.6c-1.3.88-2.65,1.76-3.8,2.4.32.21.6.43.87.64,1.73-1,3.42-2.07,4.78-3Zm3.8,7.63a33.49,33.49,0,0,1,4.77,3l-3,1.9a34,34,0,0,0-4.57-3.23Z"/><path id="路径_1892" data-name="路径 1892" class="cls-2" d="M163.41,12.45a41.58,41.58,0,0,1,4,8.36l-3.91,1.9a14.62,14.62,0,0,0-.56-1.85c-5.65.4-11.52.73-15.74,1l.13-3.66c1-.05,2.15-.07,3.37-.14A61.47,61.47,0,0,0,156,8.74l4,1a90.46,90.46,0,0,1-5.3,8.12c2.2-.09,4.55-.21,6.87-.33-.56-1.23-1.18-2.47-1.77-3.54ZM158.52,1.59a35.94,35.94,0,0,1-7.9,9.67,17.79,17.79,0,0,0-3-2.59,23.8,23.8,0,0,0,7.05-8.2Zm6.37-1a24.23,24.23,0,0,0,4.79,7.72,21,21,0,0,0-3.4,3.05A39.92,39.92,0,0,1,161.18,2Z"/><path id="路径_1893" data-name="路径 1893" class="cls-2" d="M190.65,19.67c-.21,1.33-.56,2-1.5,2.45a8.66,8.66,0,0,1-3.39.43,9.26,9.26,0,0,0-.37-2.45l-.88.29c0-.17,0-.36-.06-.55-3.21.17-6.48.28-9,.38l.28-2.83c1.11,0,2.47,0,3.95-.05l.17-1h-4.33l-1,6.3h-3.28l1.45-9.1h7.6l.1-.67h-5l1.23-7.74H190l-1.22,7.74h-5.18l-.1.67h8.12ZM194.3,1.59l-.81,5.11h-3.28l.35-2.18H176.33L176,6.7h-3.12l.81-5.11h8.53L182.46,0h3.47l-.25,1.56Zm-13.52,9,.1-.64h-1.95l-.1.64Zm-1.52-2.71h2l.1-.61h-1.95Zm4.5,9.36c-.07-.19-.13-.38-.2-.54l1.37-.43h-1.87l-.16,1ZM186,10h-2l-.1.64h2Zm.43-2.68h-2l-.1.61h2Zm-.6,12.63a6.61,6.61,0,0,0,1.09,0c.26,0,.37-.07.4-.3l.53-3.33h-1.76a14,14,0,0,1,1,3.23Z"/></g></g></g></g></g></svg>